<?xml version="1.0" encoding="UTF-8"?>
<!-- Generator: visioncortex VTracer 0.6.3 -->
<svg version="1.1" xmlns="http://www.w3.org/2000/svg" width="1280" height="1280">
<path d="M0 0 C29.37 0 58.74 0 89 0 C89 0.66 89 1.32 89 2 C90.49 1.5 90.49 1.5 92 1 C94.61 1.15 97.16 1.38 99.75 1.69 C100.53 1.78 101.31 1.87 102.12 1.96 C116.56 3.72 130.95 6.2 145 10 C146.93 10.48 148.87 10.96 150.8 11.43 C169.42 16 188.01 21.34 205.6 29 C208.69 30.29 211.76 31.19 215 32 C215 32.66 215 33.32 215 34 C216.01 34.14 216.01 34.14 217.04 34.29 C220.72 35.17 223.94 36.73 227.31 38.38 C232.47 40.84 237.59 43.12 243 45 C243 45.66 243 46.32 243 47 C243.99 47.25 244.98 47.49 246 47.75 C250.28 48.96 254.09 50.91 258 53 C258 53.66 258 54.32 258 55 C258.85 55.06 259.69 55.12 260.56 55.19 C264.83 56.2 267.74 58.11 271 61 C271.33 61.66 271.66 62.32 272 63 C274.53 63.66 274.53 63.66 277 64 C277 64.66 277 65.32 277 66 C278.14 66.19 278.14 66.19 279.31 66.38 C282 67 282 67 285 69 C285 69.66 285 70.32 285 71 C285.6 71.1 286.2 71.21 286.81 71.31 C289 72 289 72 290.38 73.41 C292.17 75.17 293.8 76.02 296.06 77.06 C298.58 78.23 300.01 79.01 302 81 C302.9 81.4 302.9 81.4 303.81 81.81 C306.73 83.39 308.66 85.66 311 88 C311.93 88.56 312.86 89.11 313.81 89.69 C314.53 90.12 315.26 90.55 316 91 C316 91.66 316 92.32 316 93 C316.9 93.4 316.9 93.4 317.81 93.81 C320 95 320 95 321.44 96.5 C323 98.2 323 98.2 325.62 99 C326.41 99.33 327.19 99.66 328 100 C328.33 100.99 328.66 101.98 329 103 C330.24 103.74 330.24 103.74 331.5 104.5 C334 106 334 106 335 109 C336.31 109.71 337.65 110.37 339 111 C343.98 114.8 348.17 119.19 352.21 123.95 C355.29 127.48 358.66 130.72 362 134 C371 143 371 143 373.07 145.07 C374.24 146.24 375.41 147.4 376.59 148.55 C379.9 151.8 379.9 151.8 381 154 C381.99 154.66 382.98 155.32 384 156 C384 156.66 384 157.32 384 158 C384.66 158 385.32 158 386 158 C386.1 158.59 386.19 159.18 386.29 159.79 C387.15 162.47 388.29 163.5 390.38 165.38 C393.51 168.35 395.06 171.13 397 175 C399 176.67 401 178.34 403 180 C404.19 182.62 404.19 182.62 405 185 C405.98 186.02 406.98 187.02 408 188 C408 188.66 408 189.32 408 190 C408.66 190.33 409.32 190.66 410 191 C410.19 192.21 410.19 192.21 410.38 193.44 C410.58 194.28 410.79 195.13 411 196 C412.85 197.05 412.85 197.05 415 198 C417.31 200.44 417.31 200.44 419 203 C418.67 203.99 418.34 204.98 418 206 C418.95 206.89 419.9 207.77 420.88 208.69 C423.48 211.29 424.94 213.42 426 217 C426.33 217.99 426.66 218.98 427 220 C427.66 220.33 428.32 220.66 429 221 C429.62 223.56 429.62 223.56 430 226 C430.99 226.33 431.98 226.66 433 227 C433 227.99 433 228.98 433 230 C433.66 230.33 434.32 230.66 435 231 C435.72 232.64 436.38 234.32 437 236 C437.52 237.2 438.03 238.39 438.56 239.62 C440 243 440 243 441 246 C441.66 246.33 442.32 246.66 443 247 C444.19 250.44 444.19 250.44 445 254 C444.67 254.66 444.34 255.32 444 256 C444.96 256.37 444.96 256.37 445.94 256.75 C448 258 448 258 448.75 260.12 C448.87 261.05 448.87 261.05 449 262 C449.66 262 450.32 262 451 262 C451.5 263.48 452 264.96 452.5 266.44 C452.78 267.26 453.06 268.08 453.34 268.93 C454 271 454 271 454 272 C454.73 273.96 455.46 275.92 456.21 277.88 C457.21 280.56 458.09 283.28 459 286 C460.1 289.02 460.72 290.72 463 293 C463.12 296.12 463.12 296.12 463 299 C463.66 299 464.32 299 465 299 C465.14 300.11 465.29 301.23 465.44 302.38 C465.78 305.82 465.78 305.82 467 308 C466.67 308.66 466.34 309.32 466 310 C466.66 310 467.32 310 468 310 C469.33 313.46 470.11 316.58 470.38 320.25 C470.79 324.9 472.34 328.7 474.26 332.93 C474.63 333.96 474.63 333.96 475 335 C474.67 335.66 474.34 336.32 474 337 C474.66 337 475.32 337 476 337 C476.06 337.68 476.12 338.35 476.18 339.05 C476.27 339.94 476.35 340.83 476.44 341.75 C476.52 342.63 476.6 343.51 476.68 344.42 C476.94 346.92 476.94 346.92 477.5 349 C478.1 351.41 478.33 353.77 478.56 356.25 C478.65 357.14 478.73 358.03 478.82 358.95 C478.88 359.63 478.94 360.3 479 361 C479.99 361.33 480.98 361.66 482 362 C482 365.96 482 369.92 482 374 C482.66 374.33 483.32 374.66 484 375 C484.04 375.9 484.04 375.9 484.08 376.82 C484.19 379.53 484.31 382.23 484.44 384.94 C484.48 385.88 484.52 386.83 484.56 387.8 C484.6 388.7 484.64 389.6 484.68 390.53 C484.72 391.36 484.76 392.19 484.79 393.05 C484.79 395 484.79 395 486 396 C486.32 398.58 486.51 401.16 486.72 403.75 C486.76 405.97 486.76 405.97 488 407 C488.1 409.23 488.13 411.46 488.13 413.69 C488.13 414.39 488.13 415.09 488.13 415.81 C488.14 418.13 488.14 420.45 488.13 422.78 C488.13 424.39 488.13 425.99 488.14 427.6 C488.14 430.98 488.14 434.35 488.13 437.73 C488.12 442.06 488.13 446.39 488.13 450.72 C488.14 454.05 488.14 457.37 488.13 460.69 C488.13 462.29 488.13 463.89 488.14 465.48 C488.14 467.72 488.13 469.95 488.13 472.18 C488.13 474.09 488.13 474.09 488.13 476.03 C488 479 488 479 487 481 C486.69 483.59 486.49 486.18 486.28 488.79 C486 491 486 491 485 492 C484.84 493.49 484.75 494.98 484.68 496.47 C484.64 497.37 484.6 498.27 484.56 499.2 C484.52 500.14 484.48 501.09 484.44 502.06 C484.39 503.01 484.35 503.96 484.31 504.94 C484.2 507.29 484.1 509.65 484 512 C483.34 512 482.68 512 482 512 C482.03 512.92 482.07 513.83 482.11 514.77 C482.13 515.96 482.16 517.15 482.19 518.38 C482.22 519.56 482.26 520.74 482.29 521.96 C482.2 522.96 482.1 523.97 482 525 C481.01 525.66 480.02 526.32 479 527 C478.45 529.85 478.45 529.85 478.38 533.06 C478.08 538.92 478.08 538.92 477 540 C476.77 541.68 476.59 543.37 476.44 545.06 C476.31 546.44 476.31 546.44 476.18 547.85 C476.12 548.56 476.06 549.27 476 550 C475.34 550 474.68 550 474 550 C474.33 550.99 474.66 551.98 475 553 C474.48 555.01 474.48 555.01 473.62 557.12 C473.35 557.83 473.07 558.53 472.79 559.26 C472 561 472 561 471 562 C470.82 563.58 470.68 565.16 470.56 566.75 C470.23 570.51 469.71 573.59 468 577 C467.34 577 466.68 577 466 577 C466.33 577.99 466.66 578.98 467 580 C466.08 582.73 465.09 585.34 464 588 C463.47 589.39 462.95 590.79 462.44 592.19 C461.63 594.35 460.8 596.49 459.94 598.62 C458.85 601.38 457.92 604.18 457 607 C456.34 607 455.68 607 455 607 C455.33 607.99 455.66 608.98 456 610 C455.06 612.69 455.06 612.69 454 615 C453.34 615 452.68 615 452 615 C451.67 617.64 451.34 620.28 451 623 C450.34 623 449.68 623 449 623 C448.6 624.58 448.6 624.58 448.19 626.19 C447.11 629.64 445.89 631.97 444 635 C442.93 637.31 441.97 639.65 441 642 C440.34 642 439.68 642 439 642 C439.33 642.99 439.66 643.98 440 645 C439.53 645.41 439.05 645.83 438.56 646.25 C436.78 648.25 436.6 649.44 436 652 C435 653.67 434 655.33 433 657 C432.3 659.19 432.3 659.19 432 661 C431.34 661 430.68 661 430 661 C429.6 662.61 429.6 662.61 429.19 664.25 C428.12 667.61 427.17 669.34 425 672 C425 672.66 425 673.32 425 674 C423.62 675.62 423.62 675.62 422 677 C421.34 677 420.68 677 420 677 C420.33 677.99 420.66 678.98 421 680 C420.34 680.33 419.68 680.66 419 681 C418.34 680.67 417.68 680.34 417 680 C417.33 680.99 417.66 681.98 418 683 C416.62 687.77 413.85 691.22 410.31 694.62 C408.74 696.08 408.74 696.08 408 699 C406 700 406 700 404 701 C403.67 701.99 403.34 702.98 403 704 C402.34 704 401.68 704 401 704 C401.33 704.99 401.66 705.98 402 707 C400.07 709.02 398.37 710.42 396 712 C395.31 713.99 394.64 715.99 394 718 C393.34 718.33 392.68 718.66 392 719 C391.34 718.67 390.68 718.34 390 718 C390.33 718.99 390.66 719.98 391 721 C390.34 721.33 389.68 721.66 389 722 C388.34 721.67 387.68 721.34 387 721 C386.88 722.08 386.88 722.08 386.75 723.19 C385.85 726.58 384.25 728.34 382 731 C381.58 731.92 381.58 731.92 381.15 732.86 C379.66 735.63 377.76 737.51 375.54 739.74 C374.61 740.67 373.69 741.61 372.74 742.57 C371.72 743.58 370.71 744.59 369.7 745.6 C368.66 746.64 367.62 747.69 366.58 748.73 C364.41 750.92 362.23 753.1 360.04 755.27 C357.25 758.06 354.47 760.86 351.69 763.66 C349.55 765.82 347.4 767.97 345.25 770.11 C344.22 771.14 343.2 772.17 342.17 773.21 C340.74 774.65 339.29 776.09 337.85 777.52 C337.03 778.34 336.21 779.16 335.37 780 C332.96 782.04 330.95 782.96 328 784 C326.64 784.96 325.29 785.95 324 787 C323.34 786.67 322.68 786.34 322 786 C322 786.66 322 787.32 322 788 C321.34 788 320.68 788 320 788 C320.33 788.99 320.66 789.98 321 791 C316.25 794 316.25 794 314 794 C313.67 794.99 313.34 795.98 313 797 C308.44 801.05 304.11 804.13 298 805 C298.33 805.99 298.66 806.98 299 808 C298.28 808.25 297.56 808.5 296.81 808.75 C293.76 810.11 291.59 811.9 289 814 C288.34 814 287.68 814 287 814 C286.67 814.66 286.34 815.32 286 816 C285.34 816 284.68 816 284 816 C283.67 816.99 283.34 817.98 283 819 C281.19 820.06 281.19 820.06 279 821 C278.36 821.33 277.72 821.66 277.06 822 C274.73 823.13 272.45 824.16 270 825 C269.34 824.67 268.68 824.34 268 824 C268.33 824.99 268.66 825.98 269 827 C268.34 827.33 267.68 827.66 267 828 C266.34 827.67 265.68 827.34 265 827 C265 827.66 265 828.32 265 829 C264.24 829.36 264.24 829.36 263.46 829.73 C260.04 831.4 256.94 833.05 253.81 835.25 C250.84 837.1 249.43 837.4 246 837 C246 837.66 246 838.32 246 839 C242.38 840.49 238.72 841.79 235 843 C235 843.66 235 844.32 235 845 C234.3 845.27 233.6 845.54 232.88 845.81 C229.96 846.95 229.96 846.95 227.19 848.56 C223.33 850.3 220.2 850.64 216 851 C216 851.66 216 852.32 216 853 C212.12 854.63 208.18 855.94 204.18 857.22 C202.02 857.99 200.06 858.97 198 860 C196.59 860.51 195.18 860.98 193.75 861.44 C189.45 862.84 185.23 864.4 181 866 C178.07 866.98 176.04 867.08 173 867 C173 867.66 173 868.32 173 869 C172.3 869.05 171.6 869.1 170.88 869.15 C169.97 869.22 169.06 869.3 168.12 869.38 C167.22 869.44 166.32 869.51 165.38 869.59 C162.82 869.8 162.82 869.8 161 872 C158.68 872.7 156.34 873.37 154 874 C153.34 874.33 152.68 874.66 152 875 C149.41 875.31 146.82 875.51 144.21 875.72 C142.03 875.77 142.03 875.77 141 877 C137.67 877.29 134.34 877.45 131 877.62 C127.89 877.7 127.89 877.7 126 880 C123.54 880.34 123.54 880.34 120.62 880.5 C116.71 880.66 116.71 880.66 113.1 882 C110.81 883.09 109.26 883.29 106.74 883.38 C105.95 883.41 105.16 883.45 104.35 883.48 C103.53 883.51 102.72 883.54 101.88 883.56 C96.27 883.51 96.27 883.51 91 885 C90.34 884.67 89.68 884.34 89 884 C88.67 884.66 88.34 885.32 88 886 C83.42 887.56 78.47 887.37 73.69 887.56 C72.12 887.63 72.12 887.63 70.52 887.69 C48.67 888.47 26.83 888.17 5 887 C5 886.67 5 886.34 5 886 C-1.34 884.85 -7.57 884.9 -14 885 C-14 884.67 -14 884.34 -14 884 C-15.28 883.86 -16.56 883.71 -17.88 883.56 C-20.26 883.29 -21.84 883.08 -24 882 C-25.54 881.93 -27.08 881.92 -28.62 881.94 C-29.85 881.95 -29.85 881.95 -31.1 881.96 C-31.73 881.98 -32.35 881.99 -33 882 C-33.66 880.68 -34.32 879.36 -35 878 C-35.99 878.33 -36.98 878.66 -38 879 C-38.33 878.67 -38.66 878.34 -39 878 C-40.83 877.95 -42.67 877.96 -44.5 878 C-46.33 878.04 -48.17 878.05 -50 878 C-50.33 877.67 -50.66 877.34 -51 877 C-53.58 876.72 -56.16 876.55 -58.75 876.38 C-59.49 876.25 -60.24 876.13 -61 876 C-61.33 875.34 -61.66 874.68 -62 874 C-63.86 873.39 -63.86 873.39 -66 873 C-67.33 872.67 -68.67 872.33 -70 872 C-70 871.34 -70 870.68 -70 870 C-70.99 870.33 -71.98 870.66 -73 871 C-73.33 870.67 -73.66 870.34 -74 870 C-75.68 869.77 -77.37 869.59 -79.06 869.44 C-79.98 869.35 -80.9 869.27 -81.85 869.18 C-82.56 869.12 -83.27 869.06 -84 869 C-84 868.34 -84 867.68 -84 867 C-85.83 866.81 -85.83 866.81 -87.69 866.62 C-91.06 866.21 -93.9 865.45 -97 864 C-97 863.34 -97 862.68 -97 862 C-97.99 862.33 -98.98 862.66 -100 863 C-100.33 862.67 -100.66 862.34 -101 862 C-102.15 861.86 -103.31 861.71 -104.5 861.56 C-105.65 861.38 -106.81 861.19 -108 861 C-108.33 860.34 -108.66 859.68 -109 859 C-111.07 858.19 -111.07 858.19 -113.56 857.56 C-118.16 856.27 -122.55 854.73 -127 853 C-127 852.34 -127 851.68 -127 851 C-127.99 851.33 -128.98 851.66 -130 852 C-132.69 851.06 -132.69 851.06 -135 850 C-135 849.34 -135 848.68 -135 848 C-135.78 848.04 -136.57 848.08 -137.38 848.12 C-140 848 -140 848 -142 846 C-142.68 845.84 -143.36 845.67 -144.06 845.5 C-144.7 845.34 -145.34 845.17 -146 845 C-146.33 844.34 -146.66 843.68 -147 843 C-148.64 842.27 -150.31 841.61 -152 841 C-155.33 839.67 -158.67 838.33 -162 837 C-162 836.34 -162 835.68 -162 835 C-162.89 834.71 -163.77 834.42 -164.69 834.12 C-167.5 833.17 -170.25 832.13 -173 831 C-173 830.34 -173 829.68 -173 829 C-173.91 828.92 -174.82 828.84 -175.75 828.75 C-179.53 827.88 -180.33 826.67 -183 824 C-184.11 823.71 -185.23 823.42 -186.38 823.12 C-190.42 821.87 -191.88 820.48 -194.54 817.34 C-196.29 815.73 -197.68 815.4 -200 815 C-200 814.34 -200 813.68 -200 813 C-200.99 812.67 -201.98 812.34 -203 812 C-203 811.34 -203 810.68 -203 810 C-204.03 809.79 -205.06 809.59 -206.12 809.38 C-209.99 808.29 -211.93 806.36 -214.6 803.46 C-217.78 800.14 -221.43 798.35 -226 798 C-229.06 799.25 -231.11 800.86 -233.42 803.2 C-234.07 803.86 -234.73 804.52 -235.4 805.2 C-236.11 805.92 -236.82 806.64 -237.55 807.39 C-238.31 808.15 -239.06 808.91 -239.84 809.69 C-241.48 811.35 -243.11 813 -244.75 814.66 C-247.33 817.28 -249.92 819.89 -252.51 822.5 C-259.88 829.91 -267.24 837.35 -274.59 844.78 C-279.09 849.33 -283.59 853.87 -288.11 858.41 C-289.83 860.14 -291.54 861.88 -293.25 863.62 C-295.64 866.04 -298.04 868.46 -300.45 870.87 C-301.16 871.6 -301.87 872.32 -302.6 873.07 C-303.25 873.73 -303.91 874.38 -304.58 875.05 C-305.15 875.62 -305.72 876.2 -306.3 876.79 C-308 878 -308 878 -312 878 C-311.67 878.99 -311.34 879.98 -311 881 C-311.33 881.66 -311.66 882.32 -312 883 C-311.69 884.67 -311.36 886.34 -311 888 C-310.75 891.05 -310.56 894.1 -310.38 897.16 C-310.18 899.93 -310.18 899.93 -308.99 901.88 C-307.83 904.36 -307.77 906.04 -307.8 908.77 C-307.81 909.66 -307.82 910.54 -307.82 911.46 C-307.84 912.38 -307.86 913.3 -307.88 914.25 C-307.89 915.65 -307.89 915.65 -307.9 917.09 C-307.93 919.39 -307.96 921.7 -308 924 C-308.66 924 -309.32 924 -310 924 C-310.05 925.17 -310.1 926.34 -310.15 927.54 C-310.22 929.09 -310.3 930.64 -310.38 932.19 C-310.41 932.96 -310.44 933.73 -310.47 934.52 C-310.69 938.74 -311.1 942.14 -313 946 C-313.66 946 -314.32 946 -315 946 C-314.67 946.99 -314.34 947.98 -314 949 C-315.29 951.03 -316.63 953.02 -318 955 C-319.11 957.3 -320.05 959.63 -321 962 C-321.66 962 -322.32 962 -323 962 C-322.67 962.99 -322.34 963.98 -322 965 C-323.7 969.39 -324.91 970.95 -329 973 C-329.17 974.11 -329.17 974.11 -329.34 975.25 C-330.21 978.87 -331.83 980.33 -334.46 982.96 C-335.16 983.67 -335.16 983.67 -335.88 984.4 C-337.46 985.99 -339.06 987.57 -340.65 989.16 C-341.8 990.31 -342.95 991.46 -344.09 992.61 C-347.24 995.78 -350.41 998.93 -353.58 1002.08 C-356.99 1005.48 -360.39 1008.9 -363.79 1012.31 C-370.45 1018.99 -377.13 1025.66 -383.81 1032.32 C-391.59 1040.08 -399.35 1047.85 -407.12 1055.61 C-420.96 1069.47 -434.82 1083.31 -448.69 1097.15 C-462.15 1110.59 -475.61 1124.04 -489.05 1137.5 C-503.69 1152.14 -518.32 1166.78 -532.97 1181.41 C-534.53 1182.97 -536.09 1184.53 -537.65 1186.09 C-538.42 1186.86 -539.18 1187.62 -539.97 1188.41 C-545.39 1193.83 -550.81 1199.25 -556.23 1204.67 C-562.82 1211.27 -569.43 1217.86 -576.03 1224.45 C-579.41 1227.82 -582.78 1231.18 -586.15 1234.56 C-589.22 1237.64 -592.31 1240.72 -595.39 1243.79 C-596.51 1244.9 -597.63 1246.02 -598.75 1247.14 C-600.26 1248.66 -601.77 1250.17 -603.29 1251.67 C-604.13 1252.51 -604.98 1253.36 -605.85 1254.22 C-608 1256 -608 1256 -611 1256 C-612.5 1257.55 -612.5 1257.55 -613.88 1259.5 C-616.65 1262.95 -616.65 1262.95 -619.88 1263.44 C-620.58 1263.29 -621.28 1263.15 -622 1263 C-622 1263.66 -622 1264.32 -622 1265 C-623.05 1265.37 -623.05 1265.37 -624.12 1265.75 C-627.14 1266.94 -627.14 1266.94 -630 1269.12 C-633.1 1271.06 -634.44 1271.42 -638 1271 C-638 1271.66 -638 1272.32 -638 1273 C-639.11 1273.12 -640.23 1273.25 -641.38 1273.38 C-645.03 1273.65 -645.03 1273.65 -647 1276 C-649.57 1276.38 -649.57 1276.38 -652.56 1276.56 C-656.09 1276.5 -656.09 1276.5 -659 1278 C-661.21 1278.1 -663.42 1278.13 -665.62 1278.13 C-666.29 1278.13 -666.95 1278.13 -667.63 1278.14 C-669.03 1278.14 -670.44 1278.13 -671.84 1278.13 C-673.99 1278.13 -676.14 1278.13 -678.3 1278.14 C-679.66 1278.14 -681.02 1278.13 -682.38 1278.13 C-683.62 1278.13 -684.87 1278.13 -686.15 1278.13 C-689 1278 -689 1278 -690 1277 C-693.1 1276.72 -696.2 1276.55 -699.31 1276.38 C-700.64 1276.19 -700.64 1276.19 -702 1276 C-702.33 1275.34 -702.66 1274.68 -703 1274 C-705.32 1273.59 -707.66 1273.26 -710 1273 C-710 1272.34 -710 1271.68 -710 1271 C-711.18 1271.06 -711.18 1271.06 -712.38 1271.12 C-715 1271 -715 1271 -717 1269 C-719.07 1268.36 -719.07 1268.36 -721 1268 C-721 1267.34 -721 1266.68 -721 1266 C-721.99 1266.33 -722.98 1266.66 -724 1267 C-725.94 1265.69 -725.94 1265.69 -728 1264 C-728.66 1263.69 -729.32 1263.38 -730 1263.06 C-732.47 1261.75 -734.03 1259.97 -736 1258 C-738.35 1256.47 -740.61 1255.17 -743.19 1254.06 C-745 1253 -745 1253 -745.79 1251.26 C-747.43 1248.2 -749.64 1246.18 -752.12 1243.75 C-752.62 1243.26 -753.12 1242.77 -753.64 1242.26 C-755.77 1240.16 -757.91 1238.07 -760.06 1235.98 C-761.62 1234.45 -763.19 1232.92 -764.75 1231.38 C-765.68 1230.47 -766.62 1229.56 -767.58 1228.62 C-769.83 1226.18 -771.4 1223.89 -773 1221 C-774.16 1219.37 -775.32 1217.74 -776.5 1216.12 C-783 1206.9 -783 1206.9 -783 1201 C-783.66 1201 -784.32 1201 -785 1201 C-785.19 1200.19 -785.39 1199.38 -785.59 1198.55 C-785.98 1196.95 -785.98 1196.95 -786.38 1195.31 C-786.63 1194.26 -786.89 1193.2 -787.15 1192.11 C-787.9 1189.07 -787.9 1189.07 -789.07 1186.59 C-790.3 1183.18 -790.42 1179.84 -790.56 1176.25 C-790.37 1171.76 -790.37 1171.76 -792 1168 C-792.1 1166 -792.13 1164 -792.12 1162 C-792.13 1160.91 -792.13 1159.81 -792.13 1158.69 C-792 1156 -792 1156 -791 1155 C-790.77 1153.65 -790.59 1152.3 -790.44 1150.94 C-790.29 1149.64 -790.15 1148.34 -790 1147 C-790.66 1146.67 -791.32 1146.34 -792 1146 C-791.34 1146 -790.68 1146 -790 1146 C-790.03 1145.1 -790.03 1145.1 -790.07 1144.17 C-790.09 1143.37 -790.11 1142.57 -790.12 1141.75 C-790.15 1140.96 -790.17 1140.17 -790.2 1139.36 C-789.98 1136.76 -789.25 1135.27 -788 1133 C-787.31 1130.67 -786.65 1128.34 -786 1126 C-785.34 1124 -784.68 1122 -784 1120 C-783.34 1120 -782.68 1120 -782 1120 C-781.9 1119.29 -781.79 1118.58 -781.68 1117.85 C-780.92 1114.65 -779.68 1112.24 -778.06 1109.38 C-777.54 1108.43 -777.01 1107.49 -776.47 1106.52 C-775.38 1104.65 -774.21 1102.81 -773 1101 C-772.34 1101 -771.68 1101 -771 1101 C-770.76 1100.11 -770.53 1099.23 -770.29 1098.32 C-768.84 1094.59 -767.24 1092.74 -764.43 1089.93 C-763.72 1089.22 -763.72 1089.22 -763.01 1088.49 C-761.43 1086.9 -759.84 1085.32 -758.25 1083.74 C-757.1 1082.6 -755.96 1081.45 -754.81 1080.3 C-751.67 1077.14 -748.51 1073.99 -745.35 1070.84 C-741.95 1067.45 -738.55 1064.05 -735.16 1060.64 C-728.51 1053.98 -721.85 1047.32 -715.18 1040.67 C-707.42 1032.92 -699.67 1025.17 -691.92 1017.42 C-678.09 1003.58 -664.25 989.76 -650.4 975.94 C-636.97 962.52 -623.54 949.1 -610.12 935.67 C-595.51 921.05 -580.9 906.44 -566.27 891.83 C-564.72 890.27 -563.16 888.71 -561.6 887.16 C-560.83 886.39 -560.06 885.63 -559.27 884.84 C-553.87 879.43 -548.46 874.03 -543.06 868.62 C-536.47 862.03 -529.88 855.45 -523.29 848.87 C-519.92 845.51 -516.56 842.15 -513.2 838.79 C-510.13 835.71 -507.05 832.63 -503.96 829.57 C-502.84 828.46 -501.73 827.34 -500.62 826.22 C-499.11 824.71 -497.59 823.2 -496.07 821.69 C-494.81 820.43 -494.81 820.43 -493.53 819.15 C-490.83 816.86 -488.19 815.49 -485 814 C-483.86 813.07 -483.86 813.07 -482.69 812.12 C-476.91 807.55 -470.37 804.57 -463.52 801.97 C-461.88 801.34 -460.26 800.66 -458.67 799.93 C-452.38 797.11 -446.22 796.15 -439.42 795.39 C-436.14 795.07 -436.14 795.07 -433.54 794.46 C-430.07 793.83 -426.64 793.82 -423.12 793.81 C-422.44 793.8 -421.76 793.79 -421.06 793.78 C-416.37 793.76 -412.51 794.58 -408 796 C-405.95 796.43 -403.88 796.83 -401.81 797.19 C-400.81 797.37 -399.8 797.55 -398.77 797.73 C-396.11 797.99 -394.47 797.97 -392 797 C-390.64 795.35 -389.32 793.68 -388 792 C-386.92 791.03 -385.82 790.08 -384.7 789.15 C-378.34 783.66 -372.49 777.64 -366.56 771.69 C-365.26 770.4 -363.97 769.1 -362.67 767.81 C-359.97 765.11 -357.27 762.41 -354.57 759.7 C-351.13 756.26 -347.69 752.81 -344.24 749.37 C-341.57 746.71 -338.9 744.04 -336.23 741.37 C-334.96 740.1 -333.69 738.83 -332.42 737.56 C-323.61 728.82 -323.61 728.82 -315.45 719.47 C-313.79 717.79 -312.16 716.94 -310 716 C-310.49 711.72 -311.27 709.32 -314 706 C-314 705.34 -314 704.68 -314 704 C-314.99 703.67 -315.98 703.34 -317 703 C-317.7 701.68 -318.37 700.35 -319 699 C-319.52 698.48 -320.03 697.97 -320.56 697.44 C-322 696 -322 696 -323 693 C-323.66 692.01 -324.32 691.02 -325 690 C-325 689.34 -325 688.68 -325 688 C-325.99 687.67 -326.98 687.34 -328 687 C-328.33 685.35 -328.66 683.7 -329 682 C-329.66 682 -330.32 682 -331 682 C-331.43 680.55 -331.43 680.55 -331.88 679.06 C-332.64 675.89 -332.64 675.89 -335 675 C-336.42 672.94 -337.76 670.88 -339.06 668.75 C-339.43 668.18 -339.79 667.6 -340.17 667.01 C-342.21 663.7 -343.53 660.87 -344 657 C-344.66 657 -345.32 657 -346 657 C-346.27 656.39 -346.54 655.78 -346.81 655.16 C-350.03 647.97 -353.49 640.92 -357.04 633.89 C-357.52 632.93 -357.52 632.93 -358.01 631.95 C-358.68 630.63 -359.35 629.31 -360.03 627.99 C-362.26 623.61 -364.2 619.21 -366 614.62 C-366.52 613.32 -367.03 612.01 -367.55 610.7 C-368.03 609.48 -368.51 608.26 -369 607 C-369.75 605.15 -370.5 603.29 -371.25 601.44 C-375 592.02 -375 592.02 -375 587 C-375.66 587 -376.32 587 -377 587 C-377.19 586.31 -377.38 585.62 -377.58 584.91 C-378.47 581.71 -379.36 578.51 -380.25 575.31 C-380.57 574.16 -380.89 573.01 -381.22 571.82 C-382.82 566.13 -384.45 560.45 -386.25 554.81 C-389.86 543.23 -391.69 531.31 -393.55 519.35 C-394.49 513.51 -394.49 513.51 -396.09 507.83 C-397.33 503.98 -397.42 500.28 -397.56 496.25 C-397.55 490.96 -397.55 490.96 -399 486 C-399.24 483.54 -399.42 481.1 -399.55 478.64 C-399.6 477.88 -399.64 477.13 -399.68 476.35 C-400.15 467.18 -400.15 458 -400.12 448.81 C-400.12 447.91 -400.12 447 -400.12 446.07 C-400.1 433.86 -399.95 421.65 -399.56 409.44 C-399.52 408.18 -399.48 406.92 -399.44 405.62 C-399.13 397.13 -399.13 397.13 -398 396 C-397.81 394 -397.68 392 -397.56 390 C-397.24 385.31 -396.67 380.95 -395.54 376.4 C-394.6 372.22 -394.07 367.97 -393.46 363.72 C-393 361 -393 361 -392 359 C-391.69 356.41 -391.49 353.82 -391.28 351.21 C-391 349 -391 349 -390 348 C-389.63 345.84 -389.3 343.67 -389 341.5 C-388.11 335.11 -388.11 335.11 -387 334 C-386.86 332.87 -386.71 331.73 -386.56 330.56 C-386 327 -386 327 -384 325 C-383.74 322.99 -383.48 320.97 -383.28 318.95 C-382.95 316.66 -382.09 315.03 -381 313 C-380.62 311.01 -380.27 309.01 -380 307 C-379.34 307 -378.68 307 -378 307 C-378.06 305.33 -378.06 305.33 -378.12 303.62 C-378 300 -378 300 -376 298 C-375.53 296.38 -375.06 294.77 -374.64 293.14 C-373.63 289.77 -372.25 286.57 -370.9 283.33 C-370.09 281.23 -369.49 279.2 -369 277 C-368.34 277 -367.68 277 -367 277 C-367.04 276.05 -367.08 275.1 -367.12 274.12 C-367 271 -367 271 -365 269 C-364.24 267.15 -363.54 265.27 -362.88 263.38 C-362.52 262.37 -362.17 261.37 -361.8 260.34 C-361.54 259.57 -361.27 258.79 -361 258 C-360.34 258 -359.68 258 -359 258 C-358.9 257.3 -358.79 256.6 -358.69 255.88 C-357.9 252.56 -356.59 250.01 -355 247 C-354.29 245.61 -353.58 244.21 -352.88 242.81 C-352.54 242.16 -352.21 241.51 -351.87 240.83 C-350.88 238.84 -350.88 238.84 -350 236 C-349.34 236 -348.68 236 -348 236 C-347.9 235.3 -347.79 234.6 -347.69 233.88 C-346.91 230.61 -345.58 227.95 -344 225 C-343.34 225 -342.68 225 -342 225 C-341.9 224.27 -341.79 223.54 -341.69 222.79 C-340.94 219.74 -339.83 217.97 -338 215.44 C-335.94 212.58 -334.75 210.43 -334 207 C-332.56 205.25 -332.56 205.25 -331 204 C-330.34 204 -329.68 204 -329 204 C-328.92 203.09 -328.83 202.19 -328.75 201.25 C-327.88 197.49 -326.79 196.54 -324 194 C-322.99 192.34 -321.99 190.67 -321 189 C-319.33 187 -317.67 185 -316 183 C-314.99 181.34 -313.99 179.67 -313 178 C-310.94 175.19 -310.94 175.19 -309 173 C-308.34 173 -307.68 173 -307 173 C-306.9 172.43 -306.8 171.86 -306.7 171.27 C-305.86 168.55 -304.61 166.95 -302.81 164.75 C-299.96 161.2 -297.22 157.61 -294.55 153.92 C-293.02 152.02 -291.36 150.33 -289.63 148.62 C-287.67 146.67 -285.73 144.72 -283.78 142.76 C-279.83 138.79 -275.87 134.83 -271.91 130.86 C-269.53 128.48 -267.15 126.09 -264.77 123.7 C-262.01 120.92 -259.24 118.15 -256.48 115.38 C-255.63 114.53 -254.79 113.68 -253.92 112.8 C-248 106.88 -242.25 101.27 -235 97 C-233.57 95.83 -232.13 94.65 -230.72 93.45 C-225.06 88.69 -219.18 84.34 -212.95 80.36 C-210.96 79.06 -210.96 79.06 -209.4 77.36 C-208 76 -208 76 -205.44 75.56 C-204.63 75.38 -203.83 75.19 -203 75 C-202.69 74.38 -202.38 73.76 -202.06 73.12 C-200.51 70.01 -198.08 69.45 -195 68 C-194.48 67.48 -193.97 66.97 -193.44 66.44 C-192 65 -192 65 -189.65 64.07 C-187.15 63.06 -185.35 61.95 -183.19 60.38 C-177.18 56.28 -170.69 53.24 -164.16 50.06 C-161.96 48.98 -159.77 47.87 -157.59 46.75 C-156.87 46.38 -156.15 46.01 -155.42 45.64 C-154.05 44.94 -152.68 44.23 -151.32 43.53 C-147.9 41.79 -144.81 40.52 -141 40 C-141 39.34 -141 38.68 -141 38 C-134.82 35.22 -128.69 33.22 -122 32 C-122 31.34 -122 30.68 -122 30 C-121.42 29.82 -120.84 29.64 -120.24 29.45 C-116.65 28.29 -113.26 27.13 -109.88 25.44 C-104.13 22.56 -98.31 21.66 -92 21 C-92 20.34 -92 19.68 -92 19 C-86.38 16.96 -80.86 15.47 -74.97 14.43 C-73.01 14.19 -73.01 14.19 -72 13 C-69.75 12.72 -67.49 12.55 -65.23 12.38 C-62.72 12.11 -62.72 12.11 -60 10 C-57.99 9.62 -57.99 9.62 -55.88 9.44 C-52.23 9.43 -52.23 9.43 -51 8 C-48.86 7.63 -46.71 7.3 -44.56 7 C-40.13 6.48 -40.13 6.48 -36 5 C-32.59 4.53 -29.18 4.13 -25.77 3.75 C-21.76 3.34 -21.76 3.34 -18 2 C-15.33 1.74 -12.68 1.53 -10 1.38 C-9.26 1.32 -8.53 1.27 -7.77 1.22 C-2.25 0.88 -2.25 0.88 0 2 C0 1.34 0 0.68 0 0 Z M436 237 C437 239 437 239 437 239 Z M-398 397 C-397 399 -397 399 -397 399 Z M-56 875 C-52 876 -52 876 -52 876 Z " fill="#6D787D" transform="translate(792,0)"/>
<path d="M0 0 C18.52 -0.28 36.91 -0.11 55.33 2.06 C56.24 2.16 57.14 2.27 58.08 2.37 C87.45 5.9 117.4 14.93 144.33 27.06 C145.14 27.42 145.94 27.78 146.77 28.14 C151.68 30.34 156.52 32.65 161.33 35.06 C162.27 35.53 162.27 35.53 163.23 36 C173.05 40.94 182.25 46.69 191.4 52.78 C193.12 53.92 194.85 55.04 196.58 56.16 C207.69 63.37 217.96 71.55 227.64 80.58 C229.73 82.5 231.84 84.36 234 86.21 C239.16 90.72 243.99 95.54 248.83 100.37 C249.73 101.26 250.63 102.15 251.55 103.06 C257.26 108.76 262.42 114.67 267.33 121.06 C268.15 122.08 268.97 123.1 269.81 124.14 C286.24 145.03 300.01 168.04 311.33 192.06 C311.89 193.24 312.45 194.41 313.02 195.62 C329.06 230.31 337.33 267.1 340.33 305.06 C340.42 306.13 340.42 306.13 340.51 307.21 C340.9 312.16 341.16 317.1 341.33 322.06 C341.36 322.84 341.39 323.62 341.42 324.42 C342.18 348.72 339.66 373.36 334.33 397.06 C334.13 398 333.93 398.94 333.73 399.9 C331.01 412.68 327.53 425.1 323.27 437.44 C322.86 438.63 322.45 439.82 322.02 441.05 C319.78 447.4 317.32 453.56 314.44 459.65 C313.32 462.09 312.34 464.55 311.39 467.06 C309.54 471.8 307.19 476.17 304.7 480.6 C303.68 482.43 302.74 484.3 301.83 486.19 C300.06 489.59 297.96 492.67 295.8 495.84 C294.56 497.72 293.42 499.59 292.33 501.56 C290.4 505.03 288.2 508.3 285.98 511.59 C283.59 515.18 281.32 518.83 279.04 522.48 C277.27 525.16 275.45 527.66 273.33 530.06 C272.67 530.06 272.01 530.06 271.33 530.06 C271.1 530.78 270.87 531.49 270.62 532.23 C269.09 535.58 267.17 537.7 264.64 540.37 C263.82 541.26 262.99 542.14 262.13 543.05 C261.46 543.76 261.46 543.76 260.78 544.49 C259.18 546.23 257.65 548.01 256.11 549.8 C245.62 561.83 234.06 573.41 221.33 583.06 C219.45 584.53 217.57 586.01 215.69 587.49 C214.44 588.47 213.18 589.46 211.92 590.44 C209.62 592.23 207.4 593.99 205.33 596.06 C204.34 596.06 203.35 596.06 202.33 596.06 C202 597.05 201.67 598.04 201.33 599.06 C199.62 600.08 197.91 601.09 196.15 602.03 C194.16 603.09 194.16 603.09 191.96 605 C188.34 607.84 184.38 609.89 180.33 612.06 C178.89 612.85 177.46 613.64 176.02 614.44 C174.89 615.06 174.89 615.06 173.75 615.69 C172.06 616.65 170.39 617.64 168.73 618.65 C138.32 637.12 102.53 646.76 67.83 652.94 C66.62 653.15 65.41 653.37 64.16 653.59 C57.77 654.67 51.8 655.18 45.33 655.06 C44.67 655.39 44.01 655.72 43.33 656.06 C15.48 659.94 -14.04 657.56 -41.67 653.06 C-42.85 652.87 -44.04 652.68 -45.26 652.48 C-68.2 648.63 -91.5 642.87 -112.66 632.98 C-114.82 631.99 -117.01 631.15 -119.23 630.31 C-130.95 625.66 -142.08 619.48 -152.92 613.08 C-154.68 612.06 -156.44 611.05 -158.21 610.05 C-183.17 595.7 -205.61 576.34 -225.86 556 C-226.71 555.15 -227.56 554.31 -228.43 553.44 C-252.18 529.65 -271.51 500.5 -285.67 470.06 C-285.96 469.44 -286.25 468.82 -286.55 468.18 C-322.42 391.01 -327.32 299.25 -298.18 219.09 C-294.76 209.96 -291.3 200.97 -286.79 192.32 C-285.6 189.92 -284.62 187.5 -283.67 185 C-281.77 180.08 -279.31 175.61 -276.67 171.06 C-276.34 170.4 -276.01 169.74 -275.67 169.06 C-275.01 169.06 -274.35 169.06 -273.67 169.06 C-273.6 168.4 -273.53 167.73 -273.46 167.04 C-272.38 162.98 -270.31 159.88 -268.04 156.37 C-267.37 155.31 -267.37 155.31 -266.67 154.23 C-263.15 148.73 -259.51 143.33 -255.67 138.06 C-255.19 137.4 -254.71 136.74 -254.22 136.07 C-250.35 130.8 -246.2 125.77 -242.03 120.74 C-241 119.47 -239.99 118.19 -238.99 116.89 C-234.02 110.49 -228.59 104.68 -222.84 98.98 C-221.36 97.5 -219.89 96.02 -218.42 94.54 C-212.94 89.05 -207.27 83.94 -201.2 79.1 C-198.92 77.26 -196.72 75.36 -194.53 73.41 C-190.5 69.84 -186.23 66.68 -181.86 63.56 C-181.06 62.99 -180.27 62.43 -179.45 61.84 C-174.54 58.34 -169.59 54.94 -164.46 51.78 C-162.36 50.49 -160.31 49.17 -158.25 47.81 C-146.94 40.39 -134.97 34.65 -122.67 29.06 C-121.2 28.39 -121.2 28.39 -119.7 27.7 C-106.93 21.87 -94.21 16.76 -80.67 13.06 C-79.51 12.74 -78.36 12.43 -77.16 12.1 C-51.75 5.23 -26.39 0.45 0 0 Z " fill="#AFDAF9" transform="translate(823.66796875,113.93798828125)"/>
<path d="M0 0 C3.95 3.35 7.72 6.88 11.44 10.49 C12.92 11.92 14.42 13.34 15.91 14.76 C33.5 31.75 46.41 52.66 47.2 77.75 C47.55 101.3 42.47 123.3 25.83 140.78 C25.19 141.47 24.55 142.15 23.88 142.85 C13.9 153.34 3.61 163.55 -6.63 173.79 C-9.8 176.96 -12.97 180.14 -16.13 183.31 C-23.03 190.22 -29.93 197.12 -36.83 204.03 C-41.15 208.35 -45.46 212.67 -49.78 216.99 C-61.75 228.97 -73.72 240.96 -85.7 252.94 C-86.46 253.7 -87.23 254.47 -88.01 255.25 C-89.16 256.4 -89.16 256.4 -90.33 257.57 C-91.88 259.12 -93.43 260.67 -94.98 262.22 C-95.75 262.99 -96.52 263.76 -97.31 264.55 C-109.79 277.04 -122.27 289.53 -134.74 302.02 C-147.57 314.88 -160.42 327.74 -173.26 340.59 C-180.46 347.79 -187.66 354.99 -194.85 362.2 C-200.97 368.33 -207.09 374.46 -213.22 380.58 C-216.34 383.7 -219.46 386.82 -222.58 389.95 C-225.43 392.82 -228.3 395.68 -231.16 398.53 C-232.19 399.56 -233.22 400.59 -234.25 401.63 C-253.65 421.18 -274.64 431.99 -302.5 432.31 C-319.49 432.21 -337.41 427.46 -351 417 C-351.95 416.33 -352.89 415.65 -353.87 414.96 C-375.71 398.99 -396.27 376.65 -400.68 349.01 C-404.05 325.42 -399.97 303.46 -386.31 283.54 C-378.78 273.6 -369.9 264.75 -361.1 255.96 C-360.02 254.88 -358.95 253.8 -357.87 252.72 C-354.94 249.79 -352.01 246.85 -349.08 243.92 C-345.91 240.75 -342.74 237.57 -339.57 234.39 C-332.65 227.46 -325.73 220.54 -318.81 213.61 C-314.49 209.28 -310.16 204.95 -305.83 200.62 C-293.84 188.61 -281.84 176.61 -269.84 164.61 C-268.69 163.46 -268.69 163.46 -267.52 162.28 C-266.75 161.51 -265.98 160.75 -265.19 159.95 C-263.64 158.4 -262.08 156.84 -260.52 155.28 C-259.37 154.13 -259.37 154.13 -258.18 152.94 C-245.67 140.43 -233.17 127.9 -220.66 115.38 C-207.81 102.5 -194.94 89.62 -182.07 76.75 C-174.86 69.53 -167.64 62.31 -160.44 55.09 C-154.3 48.94 -148.16 42.79 -142.01 36.65 C-138.88 33.52 -135.75 30.39 -132.62 27.25 C-129.76 24.37 -126.88 21.5 -124 18.63 C-122.97 17.6 -121.94 16.57 -120.91 15.53 C-88.7 -16.94 -38.82 -30.79 0 0 Z " fill="#6D787D" transform="translate(419,829)"/>
<path d="M0 0 C29.37 0 58.74 0 89 0 C89 0.66 89 1.32 89 2 C90.49 1.5 90.49 1.5 92 1 C94.61 1.15 97.16 1.38 99.75 1.69 C100.53 1.78 101.31 1.87 102.12 1.96 C116.56 3.72 130.95 6.2 145 10 C146.93 10.48 148.87 10.96 150.8 11.43 C169.42 16 188.01 21.34 205.6 29 C208.69 30.29 211.76 31.19 215 32 C215 32.66 215 33.32 215 34 C216.01 34.14 216.01 34.14 217.04 34.29 C220.72 35.17 223.94 36.73 227.31 38.38 C232.47 40.84 237.59 43.12 243 45 C243 45.66 243 46.32 243 47 C243.99 47.25 244.98 47.49 246 47.75 C250.28 48.96 254.09 50.91 258 53 C258 53.66 258 54.32 258 55 C258.85 55.06 259.69 55.12 260.56 55.19 C264.83 56.2 267.74 58.11 271 61 C271.33 61.66 271.66 62.32 272 63 C274.53 63.66 274.53 63.66 277 64 C277 64.66 277 65.32 277 66 C278.14 66.19 278.14 66.19 279.31 66.38 C282 67 282 67 285 69 C285 69.66 285 70.32 285 71 C285.6 71.1 286.2 71.21 286.81 71.31 C289 72 289 72 290.38 73.41 C292.17 75.17 293.8 76.02 296.06 77.06 C298.58 78.23 300.01 79.01 302 81 C302.9 81.4 302.9 81.4 303.81 81.81 C306.73 83.39 308.66 85.66 311 88 C311.93 88.56 312.86 89.11 313.81 89.69 C314.53 90.12 315.26 90.55 316 91 C316 91.66 316 92.32 316 93 C316.9 93.4 316.9 93.4 317.81 93.81 C320 95 320 95 321.44 96.5 C323 98.2 323 98.2 325.62 99 C326.41 99.33 327.19 99.66 328 100 C328.33 100.99 328.66 101.98 329 103 C330.24 103.74 330.24 103.74 331.5 104.5 C334 106 334 106 335 109 C336.31 109.71 337.65 110.37 339 111 C343.98 114.8 348.17 119.19 352.21 123.95 C355.29 127.48 358.66 130.72 362 134 C371 143 371 143 373.07 145.07 C374.24 146.24 375.41 147.4 376.59 148.55 C379.9 151.8 379.9 151.8 381 154 C381.99 154.66 382.98 155.32 384 156 C384 156.66 384 157.32 384 158 C384.66 158 385.32 158 386 158 C386.1 158.59 386.19 159.18 386.29 159.79 C387.15 162.47 388.29 163.5 390.38 165.38 C393.51 168.35 395.06 171.13 397 175 C399 176.67 401 178.34 403 180 C404.19 182.62 404.19 182.62 405 185 C405.98 186.02 406.98 187.02 408 188 C408 188.66 408 189.32 408 190 C408.66 190.33 409.32 190.66 410 191 C410.19 192.21 410.19 192.21 410.38 193.44 C410.58 194.28 410.79 195.13 411 196 C412.85 197.05 412.85 197.05 415 198 C417.31 200.44 417.31 200.44 419 203 C418.67 203.99 418.34 204.98 418 206 C418.95 206.89 419.9 207.77 420.88 208.69 C423.48 211.29 424.94 213.42 426 217 C426.33 217.99 426.66 218.98 427 220 C427.66 220.33 428.32 220.66 429 221 C429.62 223.56 429.62 223.56 430 226 C430.99 226.33 431.98 226.66 433 227 C433 227.99 433 228.98 433 230 C433.66 230.33 434.32 230.66 435 231 C435.72 232.64 436.38 234.32 437 236 C437.52 237.2 438.03 238.39 438.56 239.62 C440 243 440 243 441 246 C441.66 246.33 442.32 246.66 443 247 C444.19 250.44 444.19 250.44 445 254 C444.67 254.66 444.34 255.32 444 256 C444.96 256.37 444.96 256.37 445.94 256.75 C448 258 448 258 448.75 260.12 C448.87 261.05 448.87 261.05 449 262 C449.66 262 450.32 262 451 262 C451.5 263.48 452 264.96 452.5 266.44 C452.78 267.26 453.06 268.08 453.34 268.93 C454 271 454 271 454 272 C454.73 273.96 455.46 275.92 456.21 277.88 C457.21 280.56 458.09 283.28 459 286 C460.1 289.02 460.72 290.72 463 293 C463.12 296.12 463.12 296.12 463 299 C463.66 299 464.32 299 465 299 C465.14 300.11 465.29 301.23 465.44 302.38 C465.78 305.82 465.78 305.82 467 308 C466.67 308.66 466.34 309.32 466 310 C466.66 310 467.32 310 468 310 C469.33 313.46 470.11 316.58 470.38 320.25 C470.79 324.9 472.34 328.7 474.26 332.93 C474.63 333.96 474.63 333.96 475 335 C474.67 335.66 474.34 336.32 474 337 C474.66 337 475.32 337 476 337 C476.06 337.68 476.12 338.35 476.18 339.05 C476.27 339.94 476.35 340.83 476.44 341.75 C476.52 342.63 476.6 343.51 476.68 344.42 C476.94 346.92 476.94 346.92 477.5 349 C478.1 351.41 478.33 353.77 478.56 356.25 C478.65 357.14 478.73 358.03 478.82 358.95 C478.88 359.63 478.94 360.3 479 361 C479.99 361.33 480.98 361.66 482 362 C482 365.96 482 369.92 482 374 C482.66 374.33 483.32 374.66 484 375 C484.04 375.9 484.04 375.9 484.08 376.82 C484.19 379.53 484.31 382.23 484.44 384.94 C484.48 385.88 484.52 386.83 484.56 387.8 C484.6 388.7 484.64 389.6 484.68 390.53 C484.72 391.36 484.76 392.19 484.79 393.05 C484.79 395 484.79 395 486 396 C486.32 398.58 486.51 401.16 486.72 403.75 C486.76 405.97 486.76 405.97 488 407 C488.1 409.23 488.13 411.46 488.13 413.69 C488.13 414.39 488.13 415.09 488.13 415.81 C488.14 418.13 488.14 420.45 488.13 422.78 C488.13 424.39 488.13 425.99 488.14 427.6 C488.14 430.98 488.14 434.35 488.13 437.73 C488.12 442.06 488.13 446.39 488.13 450.72 C488.14 454.05 488.14 457.37 488.13 460.69 C488.13 462.29 488.13 463.89 488.14 465.48 C488.14 467.72 488.13 469.95 488.13 472.18 C488.13 474.09 488.13 474.09 488.13 476.03 C488 479 488 479 487 481 C486.69 483.59 486.49 486.18 486.28 488.79 C486 491 486 491 485 492 C484.84 493.49 484.75 494.98 484.68 496.47 C484.64 497.37 484.6 498.27 484.56 499.2 C484.52 500.14 484.48 501.09 484.44 502.06 C484.39 503.01 484.35 503.96 484.31 504.94 C484.2 507.29 484.1 509.65 484 512 C483.34 512 482.68 512 482 512 C482.03 512.92 482.07 513.83 482.11 514.77 C482.13 515.96 482.16 517.15 482.19 518.38 C482.22 519.56 482.26 520.74 482.29 521.96 C482.2 522.96 482.1 523.97 482 525 C481.01 525.66 480.02 526.32 479 527 C478.45 529.85 478.45 529.85 478.38 533.06 C478.08 538.92 478.08 538.92 477 540 C476.77 541.68 476.59 543.37 476.44 545.06 C476.31 546.44 476.31 546.44 476.18 547.85 C476.12 548.56 476.06 549.27 476 550 C475.34 550 474.68 550 474 550 C474.33 550.99 474.66 551.98 475 553 C474.48 555.01 474.48 555.01 473.62 557.12 C473.35 557.83 473.07 558.53 472.79 559.26 C472 561 472 561 471 562 C470.82 563.58 470.68 565.16 470.56 566.75 C470.23 570.51 469.71 573.59 468 577 C467.34 577 466.68 577 466 577 C466.33 577.99 466.66 578.98 467 580 C466.08 582.73 465.09 585.34 464 588 C463.47 589.39 462.95 590.79 462.44 592.19 C461.63 594.35 460.8 596.49 459.94 598.62 C458.85 601.38 457.92 604.18 457 607 C456.34 607 455.68 607 455 607 C455.33 607.99 455.66 608.98 456 610 C455.06 612.69 455.06 612.69 454 615 C453.34 615 452.68 615 452 615 C451.67 617.64 451.34 620.28 451 623 C450.34 623 449.68 623 449 623 C448.6 624.58 448.6 624.58 448.19 626.19 C447.11 629.64 445.89 631.97 444 635 C442.93 637.31 441.97 639.65 441 642 C440.34 642 439.68 642 439 642 C439.33 642.99 439.66 643.98 440 645 C439.53 645.41 439.05 645.83 438.56 646.25 C436.78 648.25 436.6 649.44 436 652 C435 653.67 434 655.33 433 657 C432.3 659.19 432.3 659.19 432 661 C431.34 661 430.68 661 430 661 C429.6 662.61 429.6 662.61 429.19 664.25 C428.12 667.61 427.17 669.34 425 672 C425 672.66 425 673.32 425 674 C423.62 675.62 423.62 675.62 422 677 C421.34 677 420.68 677 420 677 C420.33 677.99 420.66 678.98 421 680 C420.34 680.33 419.68 680.66 419 681 C418.34 680.67 417.68 680.34 417 680 C417.33 680.99 417.66 681.98 418 683 C416.62 687.77 413.85 691.22 410.31 694.62 C408.74 696.08 408.74 696.08 408 699 C406 700 406 700 404 701 C403.67 701.99 403.34 702.98 403 704 C402.34 704 401.68 704 401 704 C401.33 704.99 401.66 705.98 402 707 C400.07 709.02 398.37 710.42 396 712 C395.31 713.99 394.64 715.99 394 718 C393.34 718.33 392.68 718.66 392 719 C391.34 718.67 390.68 718.34 390 718 C390.33 718.99 390.66 719.98 391 721 C390.34 721.33 389.68 721.66 389 722 C388.34 721.67 387.68 721.34 387 721 C386.88 722.08 386.88 722.08 386.75 723.19 C385.85 726.58 384.25 728.34 382 731 C381.58 731.92 381.58 731.92 381.15 732.86 C379.66 735.63 377.76 737.51 375.54 739.74 C374.61 740.67 373.69 741.61 372.74 742.57 C371.72 743.58 370.71 744.59 369.7 745.6 C368.66 746.64 367.62 747.69 366.58 748.73 C364.41 750.92 362.23 753.1 360.04 755.27 C357.25 758.06 354.47 760.86 351.69 763.66 C349.55 765.82 347.4 767.97 345.25 770.11 C344.22 771.14 343.2 772.17 342.17 773.21 C340.74 774.65 339.29 776.09 337.85 777.52 C337.03 778.34 336.21 779.16 335.37 780 C332.96 782.04 330.95 782.96 328 784 C326.64 784.96 325.29 785.95 324 787 C323.34 786.67 322.68 786.34 322 786 C322 786.66 322 787.32 322 788 C321.34 788 320.68 788 320 788 C320.33 788.99 320.66 789.98 321 791 C316.25 794 316.25 794 314 794 C313.67 794.99 313.34 795.98 313 797 C308.44 801.05 304.11 804.13 298 805 C298.33 805.99 298.66 806.98 299 808 C298.28 808.25 297.56 808.5 296.81 808.75 C293.76 810.11 291.59 811.9 289 814 C288.34 814 287.68 814 287 814 C286.67 814.66 286.34 815.32 286 816 C285.34 816 284.68 816 284 816 C283.67 816.99 283.34 817.98 283 819 C281.19 820.06 281.19 820.06 279 821 C278.36 821.33 277.72 821.66 277.06 822 C274.73 823.13 272.45 824.16 270 825 C269.34 824.67 268.68 824.34 268 824 C268.33 824.99 268.66 825.98 269 827 C268.34 827.33 267.68 827.66 267 828 C266.34 827.67 265.68 827.34 265 827 C265 827.66 265 828.32 265 829 C264.24 829.36 264.24 829.36 263.46 829.73 C260.04 831.4 256.94 833.05 253.81 835.25 C250.84 837.1 249.43 837.4 246 837 C246 837.66 246 838.32 246 839 C242.38 840.49 238.72 841.79 235 843 C235 843.66 235 844.32 235 845 C234.3 845.27 233.6 845.54 232.88 845.81 C229.96 846.95 229.96 846.95 227.19 848.56 C223.33 850.3 220.2 850.64 216 851 C216 851.66 216 852.32 216 853 C212.12 854.63 208.18 855.94 204.18 857.22 C202.02 857.99 200.06 858.97 198 860 C196.59 860.51 195.18 860.98 193.75 861.44 C189.45 862.84 185.23 864.4 181 866 C178.07 866.98 176.04 867.08 173 867 C173 867.66 173 868.32 173 869 C172.3 869.05 171.6 869.1 170.88 869.15 C169.97 869.22 169.06 869.3 168.12 869.38 C167.22 869.44 166.32 869.51 165.38 869.59 C162.82 869.8 162.82 869.8 161 872 C158.68 872.7 156.34 873.37 154 874 C153.34 874.33 152.68 874.66 152 875 C149.41 875.31 146.82 875.51 144.21 875.72 C142.03 875.77 142.03 875.77 141 877 C137.67 877.29 134.34 877.45 131 877.62 C127.89 877.7 127.89 877.7 126 880 C123.54 880.34 123.54 880.34 120.62 880.5 C116.71 880.66 116.71 880.66 113.1 882 C110.81 883.09 109.26 883.29 106.74 883.38 C105.95 883.41 105.16 883.45 104.35 883.48 C103.53 883.51 102.72 883.54 101.88 883.56 C96.27 883.51 96.27 883.51 91 885 C90.34 884.67 89.68 884.34 89 884 C88.67 884.66 88.34 885.32 88 886 C83.42 887.56 78.47 887.37 73.69 887.56 C72.12 887.63 72.12 887.63 70.52 887.69 C48.67 888.47 26.83 888.17 5 887 C5 886.67 5 886.34 5 886 C-1.34 884.85 -7.57 884.9 -14 885 C-14 884.67 -14 884.34 -14 884 C-15.28 883.86 -16.56 883.71 -17.88 883.56 C-20.26 883.29 -21.84 883.08 -24 882 C-25.54 881.93 -27.08 881.92 -28.62 881.94 C-29.85 881.95 -29.85 881.95 -31.1 881.96 C-31.73 881.98 -32.35 881.99 -33 882 C-33.66 880.68 -34.32 879.36 -35 878 C-35.99 878.33 -36.98 878.66 -38 879 C-38.33 878.67 -38.66 878.34 -39 878 C-40.83 877.95 -42.67 877.96 -44.5 878 C-46.33 878.04 -48.17 878.05 -50 878 C-50.33 877.67 -50.66 877.34 -51 877 C-53.58 876.72 -56.16 876.55 -58.75 876.38 C-59.49 876.25 -60.24 876.13 -61 876 C-61.33 875.34 -61.66 874.68 -62 874 C-63.86 873.39 -63.86 873.39 -66 873 C-67.33 872.67 -68.67 872.33 -70 872 C-70 871.34 -70 870.68 -70 870 C-70.99 870.33 -71.98 870.66 -73 871 C-73.33 870.67 -73.66 870.34 -74 870 C-75.68 869.77 -77.37 869.59 -79.06 869.44 C-79.98 869.35 -80.9 869.27 -81.85 869.18 C-82.56 869.12 -83.27 869.06 -84 869 C-84 868.34 -84 867.68 -84 867 C-85.83 866.81 -85.83 866.81 -87.69 866.62 C-91.06 866.21 -93.9 865.45 -97 864 C-97 863.34 -97 862.68 -97 862 C-97.99 862.33 -98.98 862.66 -100 863 C-100.33 862.67 -100.66 862.34 -101 862 C-102.15 861.86 -103.31 861.71 -104.5 861.56 C-105.65 861.38 -106.81 861.19 -108 861 C-108.33 860.34 -108.66 859.68 -109 859 C-111.07 858.19 -111.07 858.19 -113.56 857.56 C-118.16 856.27 -122.55 854.73 -127 853 C-127 852.34 -127 851.68 -127 851 C-127.99 851.33 -128.98 851.66 -130 852 C-132.69 851.06 -132.69 851.06 -135 850 C-135 849.34 -135 848.68 -135 848 C-135.78 848.04 -136.57 848.08 -137.38 848.12 C-140 848 -140 848 -142 846 C-142.68 845.84 -143.36 845.67 -144.06 845.5 C-144.7 845.34 -145.34 845.17 -146 845 C-146.33 844.34 -146.66 843.68 -147 843 C-148.64 842.27 -150.31 841.61 -152 841 C-155.33 839.67 -158.67 838.33 -162 837 C-162 836.34 -162 835.68 -162 835 C-162.89 834.71 -163.77 834.42 -164.69 834.12 C-167.5 833.17 -170.25 832.13 -173 831 C-173 830.34 -173 829.68 -173 829 C-173.91 828.92 -174.82 828.84 -175.75 828.75 C-179.53 827.88 -180.33 826.67 -183 824 C-184.11 823.71 -185.23 823.42 -186.38 823.12 C-190.42 821.87 -191.88 820.48 -194.54 817.34 C-196.29 815.73 -197.68 815.4 -200 815 C-200 814.34 -200 813.68 -200 813 C-200.99 812.67 -201.98 812.34 -203 812 C-203 811.34 -203 810.68 -203 810 C-204.03 809.79 -205.06 809.59 -206.12 809.38 C-209.99 808.29 -211.93 806.36 -214.6 803.46 C-217.78 800.14 -221.43 798.35 -226 798 C-229.06 799.25 -231.11 800.86 -233.42 803.2 C-234.07 803.86 -234.73 804.52 -235.4 805.2 C-236.11 805.92 -236.82 806.64 -237.55 807.39 C-238.31 808.15 -239.06 808.91 -239.84 809.69 C-241.48 811.35 -243.11 813 -244.75 814.66 C-247.33 817.28 -249.92 819.89 -252.51 822.5 C-259.88 829.91 -267.24 837.35 -274.59 844.78 C-279.09 849.33 -283.59 853.87 -288.11 858.41 C-289.83 860.14 -291.54 861.88 -293.25 863.62 C-295.64 866.04 -298.04 868.46 -300.45 870.87 C-301.16 871.6 -301.87 872.32 -302.6 873.07 C-303.25 873.73 -303.91 874.38 -304.58 875.05 C-305.15 875.62 -305.72 876.2 -306.3 876.79 C-308 878 -308 878 -312 878 C-311.67 878.99 -311.34 879.98 -311 881 C-311.33 881.66 -311.66 882.32 -312 883 C-311.69 884.67 -311.36 886.34 -311 888 C-310.75 891.05 -310.56 894.1 -310.38 897.16 C-310.18 899.93 -310.18 899.93 -308.99 901.88 C-307.83 904.36 -307.77 906.04 -307.8 908.77 C-307.81 909.66 -307.82 910.54 -307.82 911.46 C-307.84 912.38 -307.86 913.3 -307.88 914.25 C-307.89 915.65 -307.89 915.65 -307.9 917.09 C-307.93 919.39 -307.96 921.7 -308 924 C-308.66 924 -309.32 924 -310 924 C-310.05 925.17 -310.1 926.34 -310.15 927.54 C-310.22 929.09 -310.3 930.64 -310.38 932.19 C-310.41 932.96 -310.44 933.73 -310.47 934.52 C-310.69 938.74 -311.1 942.14 -313 946 C-313.66 946 -314.32 946 -315 946 C-314.67 946.99 -314.34 947.98 -314 949 C-315.29 951.03 -316.63 953.02 -318 955 C-319.11 957.3 -320.05 959.63 -321 962 C-321.66 962 -322.32 962 -323 962 C-322.67 962.99 -322.34 963.98 -322 965 C-323.7 969.39 -324.91 970.95 -329 973 C-329.17 974.11 -329.17 974.11 -329.34 975.25 C-330.21 978.87 -331.83 980.33 -334.46 982.96 C-335.16 983.67 -335.16 983.67 -335.88 984.4 C-337.46 985.99 -339.06 987.57 -340.65 989.16 C-341.8 990.31 -342.95 991.46 -344.09 992.61 C-347.24 995.78 -350.41 998.93 -353.58 1002.08 C-356.99 1005.48 -360.39 1008.9 -363.79 1012.31 C-370.45 1018.99 -377.13 1025.66 -383.81 1032.32 C-391.59 1040.08 -399.35 1047.85 -407.12 1055.61 C-420.96 1069.47 -434.82 1083.31 -448.69 1097.15 C-462.15 1110.59 -475.61 1124.04 -489.05 1137.5 C-503.69 1152.14 -518.32 1166.78 -532.97 1181.41 C-534.53 1182.97 -536.09 1184.53 -537.65 1186.09 C-538.42 1186.86 -539.18 1187.62 -539.97 1188.41 C-545.39 1193.83 -550.81 1199.25 -556.23 1204.67 C-562.82 1211.27 -569.43 1217.86 -576.03 1224.45 C-579.41 1227.82 -582.78 1231.18 -586.15 1234.56 C-589.22 1237.64 -592.31 1240.72 -595.39 1243.79 C-596.51 1244.9 -597.63 1246.02 -598.75 1247.14 C-600.26 1248.66 -601.77 1250.17 -603.29 1251.67 C-604.13 1252.51 -604.98 1253.36 -605.85 1254.22 C-608 1256 -608 1256 -611 1256 C-612.5 1257.55 -612.5 1257.55 -613.88 1259.5 C-616.65 1262.95 -616.65 1262.95 -619.88 1263.44 C-620.58 1263.29 -621.28 1263.15 -622 1263 C-622 1263.66 -622 1264.32 -622 1265 C-623.05 1265.37 -623.05 1265.37 -624.12 1265.75 C-627.14 1266.94 -627.14 1266.94 -630 1269.12 C-633.1 1271.06 -634.44 1271.42 -638 1271 C-638 1271.66 -638 1272.32 -638 1273 C-639.11 1273.12 -640.23 1273.25 -641.38 1273.38 C-645.03 1273.65 -645.03 1273.65 -647 1276 C-649.57 1276.38 -649.57 1276.38 -652.56 1276.56 C-656.09 1276.5 -656.09 1276.5 -659 1278 C-661.21 1278.1 -663.42 1278.13 -665.62 1278.13 C-666.29 1278.13 -666.95 1278.13 -667.63 1278.14 C-669.03 1278.14 -670.44 1278.13 -671.84 1278.13 C-673.99 1278.13 -676.14 1278.13 -678.3 1278.14 C-679.66 1278.14 -681.02 1278.13 -682.38 1278.13 C-683.62 1278.13 -684.87 1278.13 -686.15 1278.13 C-689 1278 -689 1278 -690 1277 C-693.1 1276.72 -696.2 1276.55 -699.31 1276.38 C-700.64 1276.19 -700.64 1276.19 -702 1276 C-702.33 1275.34 -702.66 1274.68 -703 1274 C-705.32 1273.59 -707.66 1273.26 -710 1273 C-710 1272.34 -710 1271.68 -710 1271 C-711.18 1271.06 -711.18 1271.06 -712.38 1271.12 C-715 1271 -715 1271 -717 1269 C-719.07 1268.36 -719.07 1268.36 -721 1268 C-721 1267.34 -721 1266.68 -721 1266 C-721.99 1266.33 -722.98 1266.66 -724 1267 C-725.94 1265.69 -725.94 1265.69 -728 1264 C-728.66 1263.69 -729.32 1263.38 -730 1263.06 C-732.47 1261.75 -734.03 1259.97 -736 1258 C-738.35 1256.47 -740.61 1255.17 -743.19 1254.06 C-745 1253 -745 1253 -745.79 1251.26 C-747.43 1248.2 -749.64 1246.18 -752.12 1243.75 C-752.62 1243.26 -753.12 1242.77 -753.64 1242.26 C-755.77 1240.16 -757.91 1238.07 -760.06 1235.98 C-761.62 1234.45 -763.19 1232.92 -764.75 1231.38 C-765.68 1230.47 -766.62 1229.56 -767.58 1228.62 C-769.83 1226.18 -771.4 1223.89 -773 1221 C-774.16 1219.37 -775.32 1217.74 -776.5 1216.12 C-783 1206.9 -783 1206.9 -783 1201 C-783.66 1201 -784.32 1201 -785 1201 C-785.19 1200.19 -785.39 1199.38 -785.59 1198.55 C-785.98 1196.95 -785.98 1196.95 -786.38 1195.31 C-786.63 1194.26 -786.89 1193.2 -787.15 1192.11 C-787.9 1189.07 -787.9 1189.07 -789.07 1186.59 C-790.3 1183.18 -790.42 1179.84 -790.56 1176.25 C-790.37 1171.76 -790.37 1171.76 -792 1168 C-792.1 1166 -792.13 1164 -792.12 1162 C-792.13 1160.91 -792.13 1159.81 -792.13 1158.69 C-792 1156 -792 1156 -791 1155 C-790.77 1153.65 -790.59 1152.3 -790.44 1150.94 C-790.29 1149.64 -790.15 1148.34 -790 1147 C-790.66 1146.67 -791.32 1146.34 -792 1146 C-791.34 1146 -790.68 1146 -790 1146 C-790.03 1145.1 -790.03 1145.1 -790.07 1144.17 C-790.09 1143.37 -790.11 1142.57 -790.12 1141.75 C-790.15 1140.96 -790.17 1140.17 -790.2 1139.36 C-789.98 1136.76 -789.25 1135.27 -788 1133 C-787.31 1130.67 -786.65 1128.34 -786 1126 C-785.34 1124 -784.68 1122 -784 1120 C-783.34 1120 -782.68 1120 -782 1120 C-781.9 1119.29 -781.79 1118.58 -781.68 1117.85 C-780.92 1114.65 -779.68 1112.24 -778.06 1109.38 C-777.54 1108.43 -777.01 1107.49 -776.47 1106.52 C-775.38 1104.65 -774.21 1102.81 -773 1101 C-772.34 1101 -771.68 1101 -771 1101 C-770.76 1100.11 -770.53 1099.23 -770.29 1098.32 C-768.84 1094.59 -767.24 1092.74 -764.43 1089.93 C-763.72 1089.22 -763.72 1089.22 -763.01 1088.49 C-761.43 1086.9 -759.84 1085.32 -758.25 1083.74 C-757.1 1082.6 -755.96 1081.45 -754.81 1080.3 C-751.67 1077.14 -748.51 1073.99 -745.35 1070.84 C-741.95 1067.45 -738.55 1064.05 -735.16 1060.64 C-728.51 1053.98 -721.85 1047.32 -715.18 1040.67 C-707.42 1032.92 -699.67 1025.17 -691.92 1017.42 C-678.09 1003.58 -664.25 989.76 -650.4 975.94 C-636.97 962.52 -623.54 949.1 -610.12 935.67 C-595.51 921.05 -580.9 906.44 -566.27 891.83 C-564.72 890.27 -563.16 888.71 -561.6 887.16 C-560.83 886.39 -560.06 885.63 -559.27 884.84 C-553.87 879.43 -548.46 874.03 -543.06 868.62 C-536.47 862.03 -529.88 855.45 -523.29 848.87 C-519.92 845.51 -516.56 842.15 -513.2 838.79 C-510.13 835.71 -507.05 832.63 -503.96 829.57 C-502.84 828.46 -501.73 827.34 -500.62 826.22 C-499.11 824.71 -497.59 823.2 -496.07 821.69 C-494.81 820.43 -494.81 820.43 -493.53 819.15 C-490.83 816.86 -488.19 815.49 -485 814 C-483.86 813.07 -483.86 813.07 -482.69 812.12 C-476.91 807.55 -470.37 804.57 -463.52 801.97 C-461.88 801.34 -460.26 800.66 -458.67 799.93 C-452.38 797.11 -446.22 796.15 -439.42 795.39 C-436.14 795.07 -436.14 795.07 -433.54 794.46 C-430.07 793.83 -426.64 793.82 -423.12 793.81 C-422.44 793.8 -421.76 793.79 -421.06 793.78 C-416.37 793.76 -412.51 794.58 -408 796 C-405.95 796.43 -403.88 796.83 -401.81 797.19 C-400.81 797.37 -399.8 797.55 -398.77 797.73 C-396.11 797.99 -394.47 797.97 -392 797 C-390.64 795.35 -389.32 793.68 -388 792 C-386.92 791.03 -385.82 790.08 -384.7 789.15 C-378.34 783.66 -372.49 777.64 -366.56 771.69 C-365.26 770.4 -363.97 769.1 -362.67 767.81 C-359.97 765.11 -357.27 762.41 -354.57 759.7 C-351.13 756.26 -347.69 752.81 -344.24 749.37 C-341.57 746.71 -338.9 744.04 -336.23 741.37 C-334.96 740.1 -333.69 738.83 -332.42 737.56 C-323.61 728.82 -323.61 728.82 -315.45 719.47 C-313.79 717.79 -312.16 716.94 -310 716 C-310.49 711.72 -311.27 709.32 -314 706 C-314 705.34 -314 704.68 -314 704 C-314.99 703.67 -315.98 703.34 -317 703 C-317.7 701.68 -318.37 700.35 -319 699 C-319.52 698.48 -320.03 697.97 -320.56 697.44 C-322 696 -322 696 -323 693 C-323.66 692.01 -324.32 691.02 -325 690 C-325 689.34 -325 688.68 -325 688 C-325.99 687.67 -326.98 687.34 -328 687 C-328.33 685.35 -328.66 683.7 -329 682 C-329.66 682 -330.32 682 -331 682 C-331.43 680.55 -331.43 680.55 -331.88 679.06 C-332.64 675.89 -332.64 675.89 -335 675 C-336.42 672.94 -337.76 670.88 -339.06 668.75 C-339.43 668.18 -339.79 667.6 -340.17 667.01 C-342.21 663.7 -343.53 660.87 -344 657 C-344.66 657 -345.32 657 -346 657 C-346.27 656.39 -346.54 655.78 -346.81 655.16 C-350.03 647.97 -353.49 640.92 -357.04 633.89 C-357.52 632.93 -357.52 632.93 -358.01 631.95 C-358.68 630.63 -359.35 629.31 -360.03 627.99 C-362.26 623.61 -364.2 619.21 -366 614.62 C-366.52 613.32 -367.03 612.01 -367.55 610.7 C-368.03 609.48 -368.51 608.26 -369 607 C-369.75 605.15 -370.5 603.29 -371.25 601.44 C-375 592.02 -375 592.02 -375 587 C-375.66 587 -376.32 587 -377 587 C-377.19 586.31 -377.38 585.62 -377.58 584.91 C-378.47 581.71 -379.36 578.51 -380.25 575.31 C-380.57 574.16 -380.89 573.01 -381.22 571.82 C-382.82 566.13 -384.45 560.45 -386.25 554.81 C-389.86 543.23 -391.69 531.31 -393.55 519.35 C-394.49 513.51 -394.49 513.51 -396.09 507.83 C-397.33 503.98 -397.42 500.28 -397.56 496.25 C-397.55 490.96 -397.55 490.96 -399 486 C-399.24 483.54 -399.42 481.1 -399.55 478.64 C-399.6 477.88 -399.64 477.13 -399.68 476.35 C-400.15 467.18 -400.15 458 -400.12 448.81 C-400.12 447.91 -400.12 447 -400.12 446.07 C-400.1 433.86 -399.95 421.65 -399.56 409.44 C-399.52 408.18 -399.48 406.92 -399.44 405.62 C-399.13 397.13 -399.13 397.13 -398 396 C-397.81 394 -397.68 392 -397.56 390 C-397.24 385.31 -396.67 380.95 -395.54 376.4 C-394.6 372.22 -394.07 367.97 -393.46 363.72 C-393 361 -393 361 -392 359 C-391.69 356.41 -391.49 353.82 -391.28 351.21 C-391 349 -391 349 -390 348 C-389.63 345.84 -389.3 343.67 -389 341.5 C-388.11 335.11 -388.11 335.11 -387 334 C-386.86 332.87 -386.71 331.73 -386.56 330.56 C-386 327 -386 327 -384 325 C-383.74 322.99 -383.48 320.97 -383.28 318.95 C-382.95 316.66 -382.09 315.03 -381 313 C-380.62 311.01 -380.27 309.01 -380 307 C-379.34 307 -378.68 307 -378 307 C-378.06 305.33 -378.06 305.33 -378.12 303.62 C-378 300 -378 300 -376 298 C-375.53 296.38 -375.06 294.77 -374.64 293.14 C-373.63 289.77 -372.25 286.57 -370.9 283.33 C-370.09 281.23 -369.49 279.2 -369 277 C-368.34 277 -367.68 277 -367 277 C-367.04 276.05 -367.08 275.1 -367.12 274.12 C-367 271 -367 271 -365 269 C-364.24 267.15 -363.54 265.27 -362.88 263.38 C-362.52 262.37 -362.17 261.37 -361.8 260.34 C-361.54 259.57 -361.27 258.79 -361 258 C-360.34 258 -359.68 258 -359 258 C-358.9 257.3 -358.79 256.6 -358.69 255.88 C-357.9 252.56 -356.59 250.01 -355 247 C-354.29 245.61 -353.58 244.21 -352.88 242.81 C-352.54 242.16 -352.21 241.51 -351.87 240.83 C-350.88 238.84 -350.88 238.84 -350 236 C-349.34 236 -348.68 236 -348 236 C-347.9 235.3 -347.79 234.6 -347.69 233.88 C-346.91 230.61 -345.58 227.95 -344 225 C-343.34 225 -342.68 225 -342 225 C-341.9 224.27 -341.79 223.54 -341.69 222.79 C-340.94 219.74 -339.83 217.97 -338 215.44 C-335.94 212.58 -334.75 210.43 -334 207 C-332.56 205.25 -332.56 205.25 -331 204 C-330.34 204 -329.68 204 -329 204 C-328.92 203.09 -328.83 202.19 -328.75 201.25 C-327.88 197.49 -326.79 196.54 -324 194 C-322.99 192.34 -321.99 190.67 -321 189 C-319.33 187 -317.67 185 -316 183 C-314.99 181.34 -313.99 179.67 -313 178 C-310.94 175.19 -310.94 175.19 -309 173 C-308.34 173 -307.68 173 -307 173 C-306.9 172.43 -306.8 171.86 -306.7 171.27 C-305.86 168.55 -304.61 166.95 -302.81 164.75 C-299.96 161.2 -297.22 157.61 -294.55 153.92 C-293.02 152.02 -291.36 150.33 -289.63 148.62 C-287.67 146.67 -285.73 144.72 -283.78 142.76 C-279.83 138.79 -275.87 134.83 -271.91 130.86 C-269.53 128.48 -267.15 126.09 -264.77 123.7 C-262.01 120.92 -259.24 118.15 -256.48 115.38 C-255.63 114.53 -254.79 113.68 -253.92 112.8 C-248 106.88 -242.25 101.27 -235 97 C-233.57 95.83 -232.13 94.65 -230.72 93.45 C-225.06 88.69 -219.18 84.34 -212.95 80.36 C-210.96 79.06 -210.96 79.06 -209.4 77.36 C-208 76 -208 76 -205.44 75.56 C-204.63 75.38 -203.83 75.19 -203 75 C-202.69 74.38 -202.38 73.76 -202.06 73.12 C-200.51 70.01 -198.08 69.45 -195 68 C-194.48 67.48 -193.97 66.97 -193.44 66.44 C-192 65 -192 65 -189.65 64.07 C-187.15 63.06 -185.35 61.95 -183.19 60.38 C-177.18 56.28 -170.69 53.24 -164.16 50.06 C-161.96 48.98 -159.77 47.87 -157.59 46.75 C-156.87 46.38 -156.15 46.01 -155.42 45.64 C-154.05 44.94 -152.68 44.23 -151.32 43.53 C-147.9 41.79 -144.81 40.52 -141 40 C-141 39.34 -141 38.68 -141 38 C-134.82 35.22 -128.69 33.22 -122 32 C-122 31.34 -122 30.68 -122 30 C-121.42 29.82 -120.84 29.64 -120.24 29.45 C-116.65 28.29 -113.26 27.13 -109.88 25.44 C-104.13 22.56 -98.31 21.66 -92 21 C-92 20.34 -92 19.68 -92 19 C-86.38 16.96 -80.86 15.47 -74.97 14.43 C-73.01 14.19 -73.01 14.19 -72 13 C-69.75 12.72 -67.49 12.55 -65.23 12.38 C-62.72 12.11 -62.72 12.11 -60 10 C-57.99 9.62 -57.99 9.62 -55.88 9.44 C-52.23 9.43 -52.23 9.43 -51 8 C-48.86 7.63 -46.71 7.3 -44.56 7 C-40.13 6.48 -40.13 6.48 -36 5 C-32.59 4.53 -29.18 4.13 -25.77 3.75 C-21.76 3.34 -21.76 3.34 -18 2 C-15.33 1.74 -12.68 1.53 -10 1.38 C-9.26 1.32 -8.53 1.27 -7.77 1.22 C-2.25 0.88 -2.25 0.88 0 2 C0 1.34 0 0.68 0 0 Z M-234 119 C-235.23 120.06 -236.46 121.13 -237.69 122.19 C-251.15 134 -264.45 146.28 -276 160 C-276.91 161.05 -277.82 162.09 -278.73 163.14 C-285.46 170.87 -291.86 178.79 -298 187 C-298.69 187.91 -299.37 188.83 -300.08 189.77 C-304.99 196.39 -309.47 203.27 -313.87 210.24 C-314.94 211.91 -316.05 213.57 -317.15 215.23 C-324.13 225.77 -330.09 236.83 -336 248 C-336.38 248.71 -336.76 249.43 -337.15 250.16 C-350.67 275.68 -360.9 303.47 -368.29 331.34 C-368.77 333.14 -369.26 334.94 -369.75 336.74 C-374.47 353.96 -377.51 371.34 -380 389 C-380.17 390.12 -380.33 391.24 -380.5 392.39 C-385.88 429.35 -384.73 468.15 -379 505 C-378.9 505.65 -378.8 506.31 -378.69 506.98 C-377.33 515.7 -375.76 524.36 -374 533 C-373.84 533.81 -373.67 534.62 -373.5 535.45 C-372.48 540.34 -371.3 545.18 -370 550 C-369.77 550.85 -369.54 551.71 -369.31 552.59 C-362.34 578.21 -353.2 602.93 -342 627 C-341.66 627.73 -341.33 628.46 -340.98 629.21 C-329.46 653.95 -314.66 677.42 -298 699 C-297.22 700.03 -296.45 701.07 -295.64 702.13 C-287.91 712.39 -279.82 722.52 -270.56 731.45 C-268.86 733.14 -267.31 734.92 -265.75 736.75 C-259.39 744.11 -252.41 750.95 -245.02 757.27 C-242.7 759.26 -240.45 761.32 -238.19 763.38 C-208.3 790.27 -173.26 813.14 -136.69 829.77 C-134.92 830.58 -133.17 831.39 -131.41 832.21 C-106.22 844.02 -79.45 852.61 -52.29 858.48 C-50.41 858.91 -48.55 859.44 -46.71 860 C-35.43 863.05 -23.55 864.31 -12 866 C-10.84 866.17 -9.68 866.34 -8.49 866.52 C30.02 872 70.61 870.88 109 865 C109.67 864.9 110.33 864.8 111.02 864.69 C124.12 862.68 137.16 860.38 149.88 856.61 C152.5 855.86 155.12 855.15 157.75 854.44 C174.8 849.82 191.33 844.32 207.75 837.81 C208.56 837.49 209.37 837.17 210.2 836.84 C214.57 835.08 218.8 833.16 222.99 831.01 C225.09 829.96 227.21 828.97 229.34 827.99 C239.47 823.34 249.12 818.26 258.62 812.44 C261.26 810.84 263.92 809.28 266.58 807.71 C278.01 800.94 288.78 793.77 299.15 785.47 C300.88 784.09 302.64 782.75 304.41 781.42 C324 766.71 343.13 749.78 359.1 731.18 C361.27 728.69 363.51 726.29 365.75 723.88 C370.99 718.13 375.78 712.09 380.51 705.93 C382.06 703.92 383.63 701.92 385.2 699.93 C394.48 688.06 402.81 675.67 410.43 662.67 C411.66 660.57 412.92 658.5 414.2 656.43 C421.35 644.69 427.28 632.49 433 620 C433.39 619.18 433.77 618.35 434.17 617.5 C444.98 594.29 453.32 568.97 459 544 C459.21 543.11 459.41 542.22 459.63 541.31 C462.64 528.28 465.27 515.26 467 502 C467.14 501.02 467.27 500.05 467.41 499.04 C472.49 461.72 472.19 422.29 467 385 C466.79 383.35 466.59 381.7 466.38 380.05 C460.57 336.78 446.75 294.62 427.75 255.44 C427.42 254.76 427.09 254.08 426.76 253.39 C420.35 240.23 413.19 227.59 405.31 215.25 C404.72 214.32 404.12 213.38 403.51 212.42 C397.68 203.36 391.45 194.63 385 186 C384.56 185.4 384.11 184.81 383.66 184.19 C377.15 175.47 370.2 167.16 363 159 C362.37 158.28 361.73 157.55 361.08 156.81 C355.21 150.19 349.07 143.88 342.82 137.63 C341.13 135.94 339.45 134.24 337.77 132.54 C331.16 125.9 324.36 119.82 317 114 C315.93 113.1 314.86 112.2 313.79 111.29 C306.99 105.48 299.93 100.22 292.59 95.11 C291.18 94.13 289.78 93.13 288.38 92.13 C233.25 52.91 167.87 28.3 101 19 C100.3 18.9 99.6 18.8 98.87 18.7 C82.03 16.36 65.37 15.84 48.39 15.87 C45.07 15.87 41.76 15.87 38.45 15.86 C-59.79 15.83 -160.38 53.66 -234 119 Z M436 237 C437 239 437 239 437 239 Z M-398 397 C-397 399 -397 399 -397 399 Z M-499.52 850.26 C-500.61 851.35 -501.7 852.44 -502.8 853.53 C-505.76 856.48 -508.72 859.44 -511.68 862.41 C-514.89 865.61 -518.1 868.82 -521.31 872.02 C-527.59 878.28 -533.86 884.55 -540.12 890.82 C-545.22 895.92 -550.32 901.02 -555.42 906.11 C-556.15 906.84 -556.88 907.57 -557.63 908.32 C-559.11 909.8 -560.59 911.27 -562.06 912.75 C-575.91 926.59 -589.75 940.43 -603.59 954.27 C-616.23 966.92 -628.88 979.56 -641.53 992.19 C-654.55 1005.19 -667.56 1018.19 -680.56 1031.2 C-687.85 1038.49 -695.15 1045.78 -702.45 1053.07 C-708.66 1059.27 -714.87 1065.48 -721.07 1071.69 C-724.23 1074.85 -727.39 1078.02 -730.56 1081.17 C-733.46 1084.07 -736.36 1086.97 -739.26 1089.88 C-740.3 1090.92 -741.34 1091.96 -742.39 1093 C-752.07 1102.61 -761.3 1112.88 -766.94 1125.44 C-767.31 1126.24 -767.68 1127.04 -768.06 1127.87 C-771.13 1134.78 -772.94 1141.5 -774 1149 C-774.13 1149.77 -774.26 1150.53 -774.39 1151.32 C-777.5 1171.93 -771.92 1194.02 -760 1211 C-741.62 1235.01 -718.49 1254.97 -687.95 1260.5 C-671.22 1262.62 -654.44 1260.94 -639 1254 C-638.1 1253.61 -637.21 1253.21 -636.29 1252.81 C-621.61 1245.96 -610.15 1233.3 -598.87 1222 C-597.78 1220.91 -596.69 1219.83 -595.6 1218.74 C-592.64 1215.79 -589.68 1212.83 -586.72 1209.87 C-583.52 1206.66 -580.31 1203.47 -577.11 1200.27 C-570.84 1194.01 -564.58 1187.75 -558.32 1181.48 C-553.22 1176.39 -548.13 1171.3 -543.04 1166.21 C-528.58 1151.76 -514.13 1137.31 -499.68 1122.86 C-498.9 1122.08 -498.12 1121.31 -497.32 1120.5 C-496.54 1119.73 -495.76 1118.95 -494.96 1118.14 C-482.33 1105.52 -469.7 1092.89 -457.06 1080.27 C-444.07 1067.29 -431.08 1054.31 -418.1 1041.33 C-410.82 1034.05 -403.53 1026.77 -396.25 1019.49 C-390.04 1013.3 -383.84 1007.1 -377.65 1000.9 C-374.49 997.74 -371.33 994.58 -368.17 991.42 C-365.27 988.53 -362.37 985.63 -359.48 982.73 C-358.44 981.68 -357.39 980.64 -356.35 979.6 C-348.03 971.32 -339.86 962.94 -334.75 952.25 C-334.25 951.24 -334.25 951.24 -333.75 950.2 C-323.95 929.46 -323.22 905.35 -330.07 883.61 C-339.4 857.59 -363.61 831.2 -388.65 819.35 C-432.5 801.71 -468.21 818.82 -499.52 850.26 Z M-56 875 C-52 876 -52 876 -52 876 Z " fill="#003566" transform="translate(792,0)"/>
<path d="M0 0 C1.65 0 1.65 0 3.34 0 C19.21 0.04 34.65 0.52 50.31 3.31 C52.23 3.63 54.16 3.95 56.08 4.26 C61.51 5.18 66.91 6.22 72.31 7.31 C73.03 7.45 73.74 7.59 74.48 7.74 C86.76 10.18 98.49 14.24 110.32 18.29 C113.61 19.42 116.89 20.51 120.25 21.44 C128.31 23.74 135.86 27.52 143.31 31.31 C144.49 31.78 144.49 31.78 145.68 32.25 C154.55 35.82 162.98 40.64 171.31 45.31 C172.27 45.85 173.23 46.38 174.21 46.93 C181.28 50.96 188 55.4 194.62 60.12 C196.34 61.33 198.06 62.53 199.79 63.72 C212.7 72.71 224.16 82.98 235.57 93.79 C238.62 96.68 241.72 99.48 244.88 102.25 C248.38 105.38 251.52 108.64 254.55 112.23 C256.51 114.55 258.57 116.77 260.62 119 C272.67 132.37 282.65 147.44 292.24 162.62 C293.24 164.2 294.26 165.78 295.27 167.35 C303.88 180.94 311.49 195.31 317.31 210.31 C318.1 212.17 318.89 214.02 319.69 215.88 C337.08 257.73 344.77 301.26 344.62 346.44 C344.62 348.19 344.62 348.19 344.62 349.98 C344.57 366.94 344.19 383.56 341.31 400.31 C341.14 401.36 340.97 402.41 340.79 403.49 C336.93 426.71 331.08 449.45 322.31 471.31 C321.89 472.37 321.47 473.42 321.04 474.51 C319.84 477.46 318.58 480.39 317.31 483.31 C316.9 484.28 316.9 484.28 316.48 485.26 C308.65 503.6 299.49 520.79 288.31 537.31 C287.83 538.03 287.35 538.75 286.85 539.49 C285.41 541.65 283.96 543.79 282.5 545.94 C282.07 546.58 281.64 547.22 281.19 547.87 C278.56 551.7 275.74 555.24 272.68 558.73 C270.98 560.69 269.43 562.74 267.88 564.81 C265.18 568.31 262.33 571.42 259.15 574.47 C257.4 576.23 255.79 578.04 254.18 579.93 C249.96 584.79 245.44 589.33 240.88 593.88 C240.07 594.69 239.26 595.5 238.43 596.33 C233.55 601.2 228.55 605.84 223.31 610.31 C222.17 611.31 221.02 612.31 219.88 613.31 C213.39 618.85 206.59 623.9 199.57 628.73 C198.07 629.79 196.59 630.88 195.14 632.02 C193.31 633.31 193.31 633.31 191.31 633.31 C191.31 633.97 191.31 634.63 191.31 635.31 C185.56 638.31 185.56 638.31 183.31 638.31 C183.31 638.97 183.31 639.63 183.31 640.31 C175.14 644.89 166.81 649.11 158.42 653.27 C155.61 654.66 152.8 656.06 150 657.47 C148.63 658.16 147.26 658.84 145.88 659.52 C143.16 660.87 140.46 662.23 137.79 663.68 C129.89 667.92 121.36 670.56 112.89 673.42 C110.22 674.34 107.58 675.34 104.94 676.33 C99.12 678.46 93.21 679.99 87.19 681.44 C86.17 681.69 85.15 681.94 84.1 682.2 C81.17 682.92 78.24 683.62 75.31 684.31 C74.59 684.49 73.86 684.68 73.11 684.86 C65.76 686.64 58.25 687.45 50.75 688.38 C49.37 688.55 47.98 688.72 46.6 688.9 C42.84 689.38 39.07 689.84 35.31 690.31 C34.08 690.49 32.85 690.67 31.59 690.86 C26.29 691.51 21 691.49 15.67 691.52 C14 691.53 14 691.53 12.29 691.54 C8.69 691.55 5.1 691.56 1.5 691.56 C-0.33 691.56 -0.33 691.56 -2.2 691.57 C-19.56 691.56 -36.53 691.2 -53.69 688.31 C-54.65 688.16 -55.61 688.01 -56.6 687.86 C-67.83 686.1 -78.75 683.7 -89.64 680.46 C-92.46 679.63 -95.27 678.95 -98.14 678.34 C-116.13 674.44 -133.1 665.99 -149.69 658.31 C-150.46 657.96 -151.22 657.61 -152.01 657.25 C-171.36 648.32 -190.36 636.96 -206.99 623.66 C-208.68 622.32 -210.39 621.02 -212.12 619.74 C-218.75 614.78 -224.93 609.51 -230.96 603.86 C-235.42 599.69 -239.98 595.67 -244.75 591.88 C-247.67 589.33 -250.08 586.67 -252.59 583.73 C-254.64 581.37 -256.76 579.09 -258.9 576.82 C-270.42 564.57 -280.15 551.14 -289.69 537.31 C-290.28 536.45 -290.88 535.58 -291.5 534.69 C-292.92 532.58 -294.31 530.46 -295.69 528.31 C-296.31 527.34 -296.93 526.38 -297.57 525.38 C-302.49 517.58 -306.66 509.6 -310.69 501.31 C-311.71 499.31 -312.73 497.31 -313.75 495.31 C-329.92 462.8 -340.3 426.31 -344.69 390.31 C-344.77 389.69 -344.85 389.07 -344.93 388.42 C-346.72 374.52 -347.05 360.75 -347 346.75 C-347 345.65 -347 344.55 -347 343.42 C-346.96 327.19 -346.45 311.33 -343.69 295.31 C-343.57 294.58 -343.45 293.84 -343.33 293.08 C-342.7 289.16 -341.97 285.27 -341.14 281.39 C-340.82 279.91 -340.5 278.42 -340.2 276.93 C-333.15 242.78 -321.4 208.5 -303.69 178.31 C-302.87 176.91 -302.87 176.91 -302.03 175.48 C-295.71 164.76 -289.33 154.15 -281.69 144.31 C-280.73 143.02 -279.77 141.73 -278.81 140.44 C-278.33 139.8 -277.85 139.16 -277.35 138.51 C-276.09 136.85 -274.85 135.17 -273.62 133.49 C-267.65 125.49 -261.11 118.24 -254.2 111.04 C-251.87 108.6 -249.63 106.11 -247.46 103.54 C-245.48 101.19 -243.49 99.09 -241.12 97.12 C-238.07 94.53 -235.12 91.85 -232.2 89.1 C-225.04 82.37 -217.53 76.23 -209.69 70.31 C-208.8 69.64 -207.91 68.96 -206.99 68.27 C-195.81 59.98 -184.23 51.9 -171.87 45.48 C-169.47 44.25 -169.47 44.25 -166.56 42.19 C-164.26 40.69 -162.28 39.64 -159.79 38.56 C-156.06 36.93 -152.37 35.24 -148.68 33.51 C-133.62 26.45 -118.77 19.97 -102.79 15.24 C-100.79 14.64 -98.79 14.01 -96.8 13.36 C-65.7 3.15 -32.55 -0.11 0 0 Z M-177.69 69.31 C-178.31 69.71 -178.92 70.11 -179.56 70.51 C-193.17 79.26 -206.31 88.79 -218.1 99.9 C-220.15 101.81 -222.24 103.65 -224.37 105.48 C-229.37 109.84 -234.06 114.5 -238.75 119.19 C-239.61 120.03 -240.47 120.88 -241.35 121.75 C-246.6 126.98 -251.26 132.38 -255.69 138.31 C-257.02 139.96 -258.35 141.61 -259.69 143.25 C-263.59 148.12 -267.19 153.15 -270.69 158.31 C-271.27 159.17 -271.27 159.17 -271.87 160.05 C-281.7 172.41 -281.7 172.41 -286.69 186.31 C-287.35 186.31 -288.01 186.31 -288.69 186.31 C-289 186.95 -289.32 187.59 -289.64 188.25 C-293.56 196.17 -293.56 196.17 -295.75 199.81 C-297.68 203.14 -299.06 206.57 -300.43 210.15 C-301.41 212.61 -302.42 215.02 -303.47 217.44 C-312.07 237.23 -318.08 257.25 -322.69 278.31 C-322.88 279.2 -323.08 280.08 -323.29 281 C-338.27 349.38 -329.01 424.3 -298.69 487.31 C-298.39 487.94 -298.09 488.56 -297.79 489.2 C-292.96 499.26 -287.58 508.84 -281.69 518.31 C-281.13 519.23 -280.56 520.15 -279.98 521.1 C-268.39 539.76 -254.9 556.5 -239.69 572.31 C-238.97 573.06 -238.26 573.8 -237.52 574.56 C-229.07 583.31 -220.58 591.65 -210.83 598.95 C-207.96 601.11 -205.23 603.36 -202.5 605.69 C-190.15 615.82 -176.51 624.31 -162.65 632.19 C-160.77 633.27 -158.9 634.36 -157.04 635.46 C-145.96 641.98 -134.71 647.57 -122.43 651.43 C-119.91 652.24 -117.5 653.17 -115.06 654.19 C-91.23 663.83 -66.14 669.11 -40.69 672.31 C-40.01 672.4 -39.33 672.49 -38.63 672.58 C-26.68 674.1 -14.9 674.6 -2.86 674.52 C-0.1 674.5 2.67 674.5 5.43 674.5 C7.23 674.49 9.02 674.49 10.82 674.48 C11.62 674.48 12.43 674.48 13.26 674.48 C23.44 674.43 23.44 674.43 33.31 672.31 C34.97 672.35 34.97 672.35 36.66 672.38 C42.79 672.45 48.73 671.25 54.75 670.19 C56.03 669.96 57.31 669.74 58.62 669.51 C78.03 666.03 96.55 661.32 114.96 654.21 C118.2 652.98 121.47 651.87 124.75 650.75 C135.6 646.87 145.75 641.85 155.62 635.93 C157.97 634.52 160.34 633.18 162.75 631.88 C166.58 629.76 170.33 627.53 174.06 625.25 C175.13 624.6 176.2 623.95 177.3 623.28 C180.12 621.44 182.7 619.44 185.31 617.31 C186.62 616.6 187.95 615.92 189.31 615.31 C189.31 614.65 189.31 613.99 189.31 613.31 C189.87 613.23 190.42 613.15 191 613.06 C194.07 612.07 195.91 610.4 198.38 608.31 C199.83 607.09 199.83 607.09 201.32 605.84 C202.8 604.59 202.8 604.59 204.31 603.31 C206.12 601.85 207.94 600.39 209.75 598.94 C219.21 591.17 227.96 582.75 236.62 574.12 C237.75 573 237.75 573 238.91 571.86 C244.88 565.87 250.65 559.7 255.75 552.94 C256.24 552.29 256.74 551.64 257.25 550.98 C258.49 549.36 258.49 549.36 258.31 547.31 C259.3 546.98 260.29 546.65 261.31 546.31 C265.1 541.82 268.53 536.9 271.38 531.75 C273.05 528.78 274.84 526.09 276.81 523.31 C279.58 519.41 281.99 515.49 284.31 511.31 C285.01 510.28 285.72 509.25 286.44 508.19 C288.32 505.52 288.32 505.52 289.16 503.13 C290.39 500.12 291.87 497.35 293.43 494.49 C297.74 486.62 301.3 478.78 304.31 470.31 C304.87 468.82 305.43 467.34 305.99 465.85 C336.18 385.74 335 299.9 303.31 220.31 C303.01 219.56 302.71 218.8 302.4 218.02 C297.67 206.27 291.57 195.31 285.31 184.31 C284.9 183.58 284.49 182.85 284.07 182.09 C275.54 166.89 265.84 152.2 254.52 138.93 C252.39 136.41 250.34 133.84 248.29 131.26 C243.51 125.41 238.35 120.04 232.98 114.72 C231.44 113.19 229.9 111.64 228.37 110.1 C222.72 104.44 216.93 99.17 210.66 94.19 C208.55 92.51 206.55 90.76 204.56 88.94 C194.28 79.89 182.74 72.52 171.08 65.41 C168.68 63.92 166.35 62.33 164 60.75 C156.92 56.23 149.24 52.87 141.62 49.38 C139.56 48.43 137.53 47.46 135.49 46.46 C106.54 32.5 74.26 23.04 42.31 19.31 C41.36 19.2 40.41 19.09 39.43 18.97 C-36.72 10.42 -113.39 27.46 -177.69 69.31 Z " fill="#003668" transform="translate(836.6875,96.6875)"/>
<path d="M0 0 C16.36 11.9 29.13 33.19 40 50 C40.75 51.12 41.49 52.24 42.24 53.36 C46.74 60.14 50.65 66.98 54.19 74.32 C55.44 76.91 56.77 79.44 58.15 81.96 C64.04 92.66 68.69 103.58 73 115 C73.61 116.6 74.23 118.19 74.84 119.79 C87.1 151.97 97.02 187.58 97.2 222.21 C97.21 223.05 97.21 223.9 97.22 224.77 C97.23 226.55 97.24 228.33 97.24 230.11 C97.25 232.8 97.28 235.48 97.31 238.17 C97.39 251.49 97.08 263.37 87.56 273.62 C79.4 281.19 72.23 284.39 61 284 C51.08 282.44 44.77 278.24 38 271 C37.45 270.44 36.91 269.87 36.34 269.29 C30.98 263.39 30.72 257.23 30.73 249.67 C30.71 247.81 30.69 245.95 30.67 244.1 C30.67 243.13 30.66 242.16 30.65 241.17 C30.5 223.78 29.86 207.02 26 190 C25.8 189.11 25.6 188.21 25.39 187.29 C24.22 182.22 22.94 177.2 21.58 172.18 C21.05 170.18 20.56 168.18 20.07 166.17 C16.41 151.25 10.61 136.84 4 123 C3.37 121.61 2.74 120.22 2.12 118.82 C-8.61 95.24 -22.74 73.79 -39.41 54.01 C-41.72 51.09 -43.85 48.04 -46 45 C-42.02 40.99 -38.04 36.99 -34.05 32.99 C-32.7 31.64 -31.34 30.28 -29.99 28.92 C-16.7 15.54 -16.7 15.54 -10.57 10.35 C-8.26 8.37 -6.13 6.23 -4 4.06 C-3.24 3.29 -2.47 2.52 -1.69 1.72 C-1.13 1.15 -0.57 0.59 0 0 Z " fill="#F9FAF3" transform="translate(984,248)"/>
<path d="M0 0 C3.94 1.82 6.67 4.37 9.69 7.44 C10.22 7.97 10.75 8.51 11.29 9.06 C15.39 13.25 19.16 17.65 22.8 22.25 C25.06 25.07 27.4 27.81 29.75 30.56 C51.55 56.74 69.89 87.25 83.02 118.67 C83.99 120.97 84.98 123.26 85.97 125.55 C99 156.27 107.92 189.89 112 223 C112.1 223.79 112.2 224.58 112.31 225.39 C119.16 280.26 119.16 280.26 106 300 C105.32 301.05 105.32 301.05 104.62 302.12 C97.59 312.21 87.56 319.2 75.62 322.38 C61.81 324.76 48.5 322.83 36.62 315.25 C26.14 307.68 18.07 298.96 15.38 285.9 C14.6 279.93 14.66 273.89 14.59 267.88 C14.08 228.39 7.01 188.51 -11 153 C-11.71 151.47 -12.42 149.94 -13.12 148.41 C-22.92 127.01 -35.54 106.81 -51 89 C-52.09 87.74 -53.18 86.48 -54.27 85.21 C-56.5 82.63 -58.74 80.05 -60.98 77.48 C-63.7 74.36 -66.36 71.19 -69 68 C-66.32 64.57 -63.63 61.59 -60.31 58.78 C-56.03 55.08 -52.04 51.15 -48.06 47.12 C-47.34 46.4 -46.61 45.67 -45.87 44.92 C-43.58 42.61 -41.29 40.31 -39 38 C-35.98 34.96 -32.96 31.91 -29.94 28.88 C-29.26 28.19 -28.58 27.5 -27.89 26.8 C-23.97 22.86 -19.94 19.14 -15.74 15.52 C-13.81 13.83 -11.96 12.08 -10.16 10.25 C-9.55 9.64 -8.94 9.04 -8.32 8.41 C-7.72 7.8 -7.12 7.19 -6.5 6.56 C-5.87 5.93 -5.24 5.29 -4.59 4.63 C-3.05 3.09 -1.53 1.55 0 0 Z M-1.36 24.27 C-1.94 24.85 -2.51 25.43 -3.1 26.04 C-3.74 26.68 -4.37 27.33 -5.03 27.99 C-6.36 29.34 -7.69 30.7 -9.01 32.05 C-12.17 35.24 -15.34 38.34 -18.75 41.25 C-24.46 46.17 -29.69 51.59 -35 56.94 C-36.07 58.01 -37.14 59.09 -38.21 60.17 C-40.81 62.77 -43.41 65.39 -46 68 C-42.58 72.65 -39.06 77.19 -35.36 81.63 C-16.81 103.93 -1.56 130.01 9 157 C9.35 157.88 9.7 158.77 10.06 159.68 C18.48 180.95 24.26 202.43 28 225 C28.27 226.47 28.27 226.47 28.54 227.97 C30.51 239.83 30.36 251.72 30.38 263.72 C30.39 266.55 30.42 269.38 30.46 272.21 C30.45 273.48 30.45 273.48 30.45 274.78 C30.59 283.45 33.51 290.24 39.75 296.31 C47.62 303.72 55.49 306.75 66.35 307.07 C74.28 306.59 82.41 302.59 88 297 C97.74 285.32 97.54 271.51 97.44 257.06 C97.43 256.18 97.43 255.31 97.43 254.4 C97.32 230.73 93.88 207.92 88 185 C87.78 184.11 87.55 183.22 87.32 182.3 C79.28 150.52 67.2 120.74 51.21 92.18 C49.74 89.53 48.34 86.86 46.94 84.19 C36.68 65.44 23.08 48.01 9 32 C8.2 31.08 7.4 30.16 6.58 29.21 C3.84 26.06 3.84 26.06 1 23 C-0.19 22.89 -0.19 22.89 -1.36 24.27 Z " fill="#003668" transform="translate(984,225)"/>
<path d="M0 0 C3.07 1.46 4.89 2.74 7.06 5.38 C14.89 14.58 23.16 23.26 31.69 31.81 C32.48 32.61 33.28 33.41 34.1 34.24 C40.09 40.21 46.28 45.83 52.88 51.12 C55.63 53.46 57.05 55.43 58 59 C57.51 59.42 57.01 59.85 56.5 60.28 C51.75 64.39 47.21 68.65 42.77 73.1 C42.1 73.77 41.43 74.44 40.74 75.13 C38.54 77.32 36.35 79.51 34.16 81.71 C32.63 83.24 31.09 84.77 29.56 86.3 C26.36 89.5 23.17 92.7 19.97 95.9 C15.87 100.01 11.76 104.11 7.66 108.21 C4.5 111.36 1.34 114.52 -1.82 117.68 C-3.33 119.2 -4.84 120.71 -6.36 122.22 C-8.47 124.33 -10.57 126.44 -12.68 128.55 C-13.62 129.49 -13.62 129.49 -14.59 130.45 C-17.67 133.44 -17.67 133.44 -20 137 C-20.66 137 -21.32 137 -22 137 C-22 136.34 -22 135.68 -22 135 C-22.99 134.67 -23.98 134.34 -25 134 C-26.24 132.53 -26.24 132.53 -27.45 130.65 C-27.9 129.96 -28.36 129.28 -28.82 128.58 C-29.29 127.85 -29.76 127.12 -30.25 126.38 C-33.68 121.23 -37 116.5 -41.58 112.31 C-43.64 110.41 -45.27 108.19 -47 106 C-56.95 95.86 -67 87.56 -79 80 C-74.75 74.93 -70.31 70.17 -65.62 65.5 C-64.9 64.79 -64.19 64.08 -63.46 63.34 C-61.12 61.01 -58.78 58.68 -56.45 56.35 C-54.82 54.72 -53.19 53.09 -51.56 51.47 C-47.29 47.2 -43.02 42.94 -38.75 38.68 C-34.38 34.32 -30.02 29.97 -25.66 25.61 C-17.11 17.07 -8.55 8.53 0 0 Z " fill="#6D787D" transform="translate(494,727)"/>
<path d="M0 0 C1.98 0.5 1.98 0.5 4 1 C-77.18 82.18 -158.36 163.36 -242 247 C-242.66 246.67 -243.32 246.34 -244 246 C-242.52 242.58 -240.61 240.35 -237.99 237.73 C-237.14 236.87 -236.3 236.02 -235.43 235.15 C-234.49 234.21 -233.56 233.28 -232.6 232.32 C-231.6 231.32 -230.6 230.32 -229.61 229.32 C-226.87 226.56 -224.12 223.81 -221.37 221.06 C-218.4 218.1 -215.45 215.13 -212.49 212.16 C-206.02 205.66 -199.54 199.18 -193.06 192.69 C-189.02 188.65 -184.98 184.6 -180.94 180.55 C-169.76 169.35 -158.57 158.15 -147.38 146.96 C-146.31 145.89 -146.31 145.89 -145.21 144.79 C-143.76 143.34 -142.31 141.89 -140.86 140.43 C-139.78 139.35 -139.78 139.35 -138.68 138.25 C-137.59 137.17 -137.59 137.17 -136.49 136.06 C-124.78 124.35 -113.09 112.63 -101.4 100.91 C-89.41 88.88 -77.41 76.86 -65.4 64.85 C-58.65 58.1 -51.91 51.35 -45.18 44.59 C-39.45 38.84 -33.71 33.09 -27.96 27.36 C-25.03 24.43 -22.1 21.49 -19.17 18.55 C-16.5 15.86 -13.82 13.18 -11.13 10.51 C-10.16 9.54 -9.19 8.57 -8.22 7.59 C-6.91 6.26 -5.59 4.95 -4.27 3.65 C-3.53 2.91 -2.8 2.18 -2.05 1.42 C-1.37 0.95 -0.7 0.48 0 0 Z " fill="#1A4164" transform="translate(273,845)"/>
<path d="M0 0 C2.19 0.35 2.19 0.35 4 1 C-5.55 10.64 -15.11 20.27 -24.69 29.89 C-29.13 34.36 -33.57 38.83 -38.01 43.31 C-42.28 47.63 -46.57 51.94 -50.86 56.24 C-52.5 57.89 -54.14 59.54 -55.77 61.19 C-58.05 63.5 -60.34 65.8 -62.64 68.09 C-63.31 68.78 -63.99 69.47 -64.68 70.18 C-70.4 75.85 -70.4 75.85 -75 76 C-70.87 71.08 -66.58 66.41 -62.05 61.86 C-61.38 61.18 -60.71 60.5 -60.03 59.81 C-57.84 57.6 -55.65 55.39 -53.46 53.19 C-52.71 52.43 -51.96 51.68 -51.19 50.9 C-47.22 46.91 -43.26 42.92 -39.29 38.94 C-36 35.64 -32.72 32.33 -29.45 29.02 C-25.49 25.01 -21.53 21.02 -17.55 17.03 C-16.03 15.51 -14.52 13.99 -13.02 12.46 C-10.92 10.33 -8.81 8.22 -6.69 6.11 C-6.07 5.47 -5.45 4.83 -4.81 4.18 C-3.06 2.45 -3.06 2.45 0 0 Z " fill="#1C4061" transform="translate(273,845)"/>
<path d="M0 0 C0.99 0.33 1.98 0.66 3 1 C-1.94 6.96 -7.29 12.41 -12.77 17.87 C-13.7 18.79 -14.62 19.72 -15.57 20.67 C-18.01 23.1 -20.44 25.52 -22.88 27.95 C-25.38 30.44 -27.87 32.92 -30.36 35.41 C-35.24 40.28 -40.12 45.14 -45 50 C-45.66 49.67 -46.32 49.34 -47 49 C-45.48 45.43 -43.38 43.14 -40.64 40.42 C-39.74 39.51 -38.84 38.61 -37.91 37.69 C-36.93 36.71 -35.94 35.74 -34.96 34.77 C-33.95 33.76 -32.95 32.76 -31.94 31.76 C-29.3 29.12 -26.65 26.49 -24 23.87 C-21.3 21.18 -18.6 18.49 -15.9 15.8 C-10.6 10.53 -5.3 5.26 0 0 Z " fill="#1C4061" transform="translate(76,1042)"/>
<path d="M0 0 C0.66 0.33 1.32 0.66 2 1 C-11.86 14.86 -25.72 28.72 -40 43 C-40.66 42.67 -41.32 42.34 -42 42 C-36.73 35.31 -31.19 29.03 -25.18 23.01 C-24.55 22.38 -23.92 21.74 -23.27 21.09 C-21.96 19.77 -20.64 18.45 -19.32 17.14 C-17.3 15.11 -15.29 13.08 -13.28 11.05 C-12 9.77 -10.71 8.48 -9.43 7.2 C-8.83 6.59 -8.23 5.98 -7.61 5.36 C-3.34 1.11 -3.34 1.11 0 0 Z " fill="#1B4266" transform="translate(200,920)"/>
<path d="M0 0 C1.32 0.33 2.64 0.66 4 1 C-8.21 13.21 -20.42 25.42 -33 38 C-33.99 37.67 -34.98 37.34 -36 37 C-29.99 29.85 -23.52 23.23 -16.95 16.6 C-15.56 15.19 -14.17 13.78 -12.79 12.36 C-10.79 10.3 -8.77 8.26 -6.74 6.22 C-6.13 5.58 -5.51 4.94 -4.87 4.28 C-4.29 3.7 -3.71 3.12 -3.11 2.53 C-2.35 1.76 -2.35 1.76 -1.58 0.97 C-1.06 0.65 -0.54 0.33 0 0 Z " fill="#173C5D" transform="translate(273,845)"/>
<path d="M0 0 C0 0.33 0 0.66 0 1 C-26.35 2.41 -52.65 2.41 -79 1 C-79 0.67 -79 0.34 -79 0 C-52.58 -1.02 -26.42 -0.91 0 0 Z " fill="#000002" transform="translate(876,886)"/>
<path d="M0 0 C0.66 0.33 1.32 0.66 2 1 C-4.2 8.86 -10.85 15.98 -18 23 C-18.99 22.67 -19.98 22.34 -21 22 C-16.62 16.75 -11.99 11.87 -7.12 7.06 C-6.44 6.38 -5.75 5.69 -5.04 4.99 C-3.36 3.32 -1.68 1.66 0 0 Z " fill="#173D5F" transform="translate(161,957)"/>
<path d="M0 0 C0.66 0.66 1.32 1.32 2 2 C0.27 3.9 -1.46 5.79 -3.19 7.69 C-3.67 8.22 -4.15 8.75 -4.65 9.29 C-7.69 12.62 -10.79 15.84 -14 19 C-14.66 18.67 -15.32 18.34 -16 18 C-13.52 13.24 -10.12 9.88 -6.31 6.19 C-5.71 5.59 -5.1 4.99 -4.47 4.38 C-2.99 2.91 -1.49 1.46 0 0 Z " fill="#1E4567" transform="translate(296,822)"/>
<path d="M0 0 C0.33 0 0.66 0 1 0 C2.14 4.58 2.18 9 2.19 13.69 C2.2 14.46 2.21 15.23 2.22 16.03 C2.23 18.02 2.12 20.01 2 22 C1.34 22.66 0.68 23.32 0 24 C-0.77 21.27 -1.13 18.83 -1.13 16 C-1.13 15.26 -1.14 14.51 -1.14 13.75 C-1.13 12.99 -1.13 12.22 -1.12 11.44 C-1.13 10.67 -1.13 9.9 -1.14 9.11 C-1.13 5.82 -1.05 3.14 0 0 Z " fill="#FAFBF3" transform="translate(1099,471)"/>
<path d="M0 0 C1.32 0.33 2.64 0.66 4 1 C-0.62 5.62 -5.24 10.24 -10 15 C-10.99 14.67 -11.98 14.34 -13 14 C-9.87 10.26 -6.7 6.57 -3.38 3 C-2.83 2.4 -2.28 1.8 -1.71 1.19 C-1.15 0.8 -0.58 0.4 0 0 Z " fill="#1C4569" transform="translate(90,1028)"/>
<path d="M0 0 C1.32 0.33 2.64 0.66 4 1 C-0.62 5.62 -5.24 10.24 -10 15 C-10.99 14.67 -11.98 14.34 -13 14 C-9.87 10.26 -6.7 6.57 -3.38 3 C-2.83 2.4 -2.28 1.8 -1.71 1.19 C-1.15 0.8 -0.58 0.4 0 0 Z " fill="#1C4569" transform="translate(250,868)"/>
<path d="M0 0 C0.66 0.33 1.32 0.66 2 1 C-0.09 4.76 -2.41 7.7 -5.44 10.75 C-6.2 11.53 -6.96 12.31 -7.75 13.11 C-9.95 14.96 -11.2 15.62 -14 16 C-12.34 11.67 -9.13 8.91 -5.88 5.75 C-5.31 5.2 -4.75 4.64 -4.17 4.07 C-2.78 2.71 -1.39 1.35 0 0 Z " fill="#173C5D" transform="translate(105,1013)"/>
<path d="M0 0 C0.66 0.33 1.32 0.66 2 1 C-1.63 4.63 -5.26 8.26 -9 12 C-9.66 11.67 -10.32 11.34 -11 11 C-9.4 6.84 -6.39 3.8 -3 1 C-2.01 0.67 -1.02 0.34 0 0 Z " fill="#1F4669" transform="translate(40,1080)"/>
<path d="M0 0 C0.66 0.33 1.32 0.66 2 1 C-0.17 4.99 -2.54 8.04 -6 11 C-8.81 11.81 -8.81 11.81 -11 12 C-7.49 7.82 -3.92 3.8 0 0 Z " fill="#15395A" transform="translate(49,1069)"/>
<path d="M0 0 C0.66 0.33 1.32 0.66 2 1 C-0.17 4.99 -2.54 8.04 -6 11 C-8.81 11.81 -8.81 11.81 -11 12 C-7.49 7.82 -3.92 3.8 0 0 Z " fill="#15395A" transform="translate(209,909)"/>
<path d="M0 0 C1.32 0.33 2.64 0.66 4 1 C0.7 4.3 -2.6 7.6 -6 11 C-6.66 10.67 -7.32 10.34 -8 10 C-5.84 6.02 -3.5 2.9 0 0 Z " fill="#1F476B" transform="translate(113,1005)"/>
<path d="M0 0 C1.32 0.33 2.64 0.66 4 1 C0.7 4.3 -2.6 7.6 -6 11 C-6.66 10.67 -7.32 10.34 -8 10 C-5.84 6.02 -3.5 2.9 0 0 Z " fill="#1F476B" transform="translate(273,845)"/>
<path d="M0 0 C1.32 0.33 2.64 0.66 4 1 C0.7 4.3 -2.6 7.6 -6 11 C-6.66 10.67 -7.32 10.34 -8 10 C-5.33 6.67 -2.67 3.33 0 0 Z " fill="#254C6F" transform="translate(166,952)"/>
<path d="M0 0 C0.33 0 0.66 0 1 0 C1.33 4.29 1.66 8.58 2 13 C1.34 12.67 0.68 12.34 0 12 C0 8.04 0 4.08 0 0 Z " fill="#000002" transform="translate(482,888)"/>
<path d="M0 0 C1.53 4.08 0.63 7.79 0 12 C-0.33 12 -0.66 12 -1 12 C-1.03 10.19 -1.05 8.38 -1.06 6.56 C-1.07 5.55 -1.09 4.54 -1.1 3.5 C-1 1 -1 1 0 0 Z " fill="#000002" transform="translate(483,925)"/>
<path d="M0 0 C0.33 0 0.66 0 1 0 C0.67 3.3 0.34 6.6 0 10 C-0.33 10 -0.66 10 -1 10 C-1.03 8.52 -1.05 7.04 -1.06 5.56 C-1.07 4.74 -1.09 3.92 -1.1 3.07 C-1 1 -1 1 0 0 Z " fill="#000002" transform="translate(1272,526)"/>
<path d="M0 0 C1.86 3.13 2.2 5.37 2 9 C1.34 8.67 0.68 8.34 0 8 C0 5.36 0 2.72 0 0 Z " fill="#000002" transform="translate(1271,351)"/>
<path d="M0 0 C3.3 0 6.6 0 10 0 C10 0.33 10 0.66 10 1 C6.37 1.33 2.74 1.66 -1 2 C-0.67 1.34 -0.34 0.68 0 0 Z " fill="#000002" transform="translate(920,878)"/>
<path d="M0 0 C0.33 0 0.66 0 1 0 C1 3.96 1 7.92 1 12 C0.67 12 0.34 12 0 12 C0 8.04 0 4.08 0 0 Z " fill="#000002" transform="translate(1277,492)"/>
<path d="M0 0 C0.33 0 0.66 0 1 0 C1 3.96 1 7.92 1 12 C0.67 12 0.34 12 0 12 C0 8.04 0 4.08 0 0 Z " fill="#000002" transform="translate(1277,383)"/>
<path d="M0 0 C3.3 0 6.6 0 10 0 C10 0.33 10 0.66 10 1 C6.7 1 3.4 1 0 1 C0 0.67 0 0.34 0 0 Z " fill="#000002" transform="translate(885,884)"/>
<path d="M0 0 C3.3 0 6.6 0 10 0 C10 0.33 10 0.66 10 1 C6.7 1 3.4 1 0 1 C0 0.67 0 0.34 0 0 Z " fill="#000002" transform="translate(743,878)"/>
<path d="M0 0 C1.43 2.86 0.6 4.93 0 8 C-0.33 8 -0.66 8 -1 8 C-1.04 5.67 -1.04 3.33 -1 1 C-0.67 0.67 -0.34 0.34 0 0 Z " fill="#000002" transform="translate(1264,561)"/>
<path d="M0 0 C0.33 0 0.66 0 1 0 C1 2.97 1 5.94 1 9 C0.67 9 0.34 9 0 9 C0 6.03 0 3.06 0 0 Z " fill="#000002" transform="translate(1274,365)"/>
<path d="M0 0 C0.33 0 0.66 0 1 0 C1.33 2.64 1.66 5.28 2 8 C1.34 7.67 0.68 7.34 0 7 C0 4.69 0 2.38 0 0 Z " fill="#000002" transform="translate(1263,318)"/>
<path d="M0 0 C0.33 0 0.66 0 1 0 C1 2.64 1 5.28 1 8 C0.67 8 0.34 8 0 8 C0 5.36 0 2.72 0 0 Z " fill="#000002" transform="translate(1274,514)"/>
<path d="M0 0 C2.31 0 4.62 0 7 0 C7 0.33 7 0.66 7 1 C4.69 1 2.38 1 0 1 C0 0.67 0 0.34 0 0 Z " fill="#000002" transform="translate(134,1277)"/>
<path d="M0 0 C2.31 0 4.62 0 7 0 C7 0.33 7 0.66 7 1 C4.69 1 2.38 1 0 1 C0 0.67 0 0.34 0 0 Z " fill="#000002" transform="translate(95,1277)"/>
<path d="M0 0 C2.31 0 4.62 0 7 0 C7 0.33 7 0.66 7 1 C4.69 1 2.38 1 0 1 C0 0.67 0 0.34 0 0 Z " fill="#000002" transform="translate(907,881)"/>
<path d="M0 0 C1.98 0 3.96 0 6 0 C6 0.33 6 0.66 6 1 C4.02 1 2.04 1 0 1 C0 0.67 0 0.34 0 0 Z " fill="#000002" transform="translate(955,870)"/>
<path d="M0 0 C1.98 0 3.96 0 6 0 C6 0.33 6 0.66 6 1 C4.02 1 2.04 1 0 1 C0 0.67 0 0.34 0 0 Z " fill="#000002" transform="translate(712,870)"/>
<path d="M0 0 C0.33 0 0.66 0 1 0 C1 1.98 1 3.96 1 6 C0.67 6 0.34 6 0 6 C0 4.02 0 2.04 0 0 Z " fill="#000002" transform="translate(1269,540)"/>
<path d="M0 0 C0.33 0 0.66 0 1 0 C1 1.98 1 3.96 1 6 C0.67 6 0.34 6 0 6 C0 4.02 0 2.04 0 0 Z " fill="#000002" transform="translate(1269,341)"/>
<path d="M0 0 C1.65 0 3.3 0 5 0 C5 0.33 5 0.66 5 1 C3.35 1 1.7 1 0 1 C0 0.67 0 0.34 0 0 Z " fill="#000002" transform="translate(84,1274)"/>
<path d="M0 0 C4 1 4 1 4 1 Z " fill="#000002" transform="translate(147,1274)"/>
<path d="M0 0 C1 4 1 4 1 4 Z " fill="#000002" transform="translate(474,955)"/>
<path d="M0 0 C4 1 4 1 4 1 Z " fill="#000002" transform="translate(934,876)"/>
<path d="M0 0 C4 1 4 1 4 1 Z " fill="#000002" transform="translate(947,873)"/>
<path d="M0 0 C4 1 4 1 4 1 Z " fill="#000002" transform="translate(687,862)"/>
<path d="M0 0 C4 1 4 1 4 1 Z " fill="#000002" transform="translate(679,859)"/>
<path d="M0 0 C4 1 4 1 4 1 Z " fill="#000002" transform="translate(1010,851)"/>
<path d="M0 0 C1 4 1 4 1 4 Z " fill="#000002" transform="translate(1255,589)"/>
<path d="M0 0 C1 4 1 4 1 4 Z " fill="#000002" transform="translate(1266,554)"/>
<path d="M0 0 C1 4 1 4 1 4 Z " fill="#000002" transform="translate(1266,329)"/>
<path d="M0 0 C1 4 1 4 1 4 Z " fill="#000002" transform="translate(1258,302)"/>
<path d="M0 0 C1 4 1 4 1 4 Z " fill="#000002" transform="translate(1250,280)"/>
<path d="M0 0 C3 1 3 1 3 1 Z " fill="#000002" transform="translate(72,1269)"/>
<path d="M0 0 C3 1 3 1 3 1 Z " fill="#000002" transform="translate(166,1266)"/>
<path d="" fill="#000002" transform="translate(0,0)"/>
<path d="M0 0 C3 1 3 1 3 1 Z " fill="#000002" transform="translate(723,873)"/>
<path d="M0 0 C3 1 3 1 3 1 Z " fill="#000002" transform="translate(967,867)"/>
<path d="M0 0 C3 1 3 1 3 1 Z " fill="#000002" transform="translate(703,867)"/>
<path d="M0 0 C3 1 3 1 3 1 Z " fill="#000002" transform="translate(974,865)"/>
<path d="M0 0 C3 1 3 1 3 1 Z " fill="#000002" transform="translate(696,865)"/>
<path d="M0 0 C3 1 3 1 3 1 Z " fill="#000002" transform="translate(983,862)"/>
<path d="M0 0 C3 1 3 1 3 1 Z " fill="#000002" transform="translate(996,857)"/>
<path d="M0 0 C3 1 3 1 3 1 Z " fill="#000002" transform="translate(674,857)"/>
<path d="M0 0 C3 1 3 1 3 1 Z " fill="#000002" transform="translate(1004,854)"/>
<path d="M0 0 C3 1 3 1 3 1 Z " fill="#000002" transform="translate(666,854)"/>
<path d="M0 0 C3 1 3 1 3 1 Z " fill="#000002" transform="translate(642,843)"/>
<path d="M0 0 C3 1 3 1 3 1 Z " fill="#000002" transform="translate(1034,840)"/>
<path d="M0 0 C3 1 3 1 3 1 Z " fill="#000002" transform="translate(636,840)"/>
<path d="" fill="#000002" transform="translate(0,0)"/>
<path d="" fill="#000002" transform="translate(0,0)"/>
<path d="" fill="#000002" transform="translate(0,0)"/>
<path d="M0 0 C0.33 0.66 0.66 1.32 1 2 C0.34 1.67 -0.32 1.34 -1 1 C-0.67 0.67 -0.34 0.34 0 0 Z " fill="#000002" transform="translate(1253,596)"/>
<path d="" fill="#000002" transform="translate(0,0)"/>
<path d="" fill="#000002" transform="translate(0,0)"/>
<path d="M0 0 C0.66 0 1.32 0 2 0 C1.67 0.66 1.34 1.32 1 2 C0.67 1.34 0.34 0.68 0 0 Z " fill="#000002" transform="translate(1252,289)"/>
<path d="M0 0 C2 1 2 1 2 1 Z " fill="#000002" transform="translate(79,1272)"/>
<path d="M0 0 C2 1 2 1 2 1 Z " fill="#000002" transform="translate(161,1269)"/>
<path d="M0 0 C2 1 2 1 2 1 Z " fill="#000002" transform="translate(62,1263)"/>
<path d="M0 0 C2 1 2 1 2 1 Z " fill="#6D787D" transform="translate(181,1256)"/>
<path d="" fill="#000002" transform="translate(0,0)"/>
<path d="" fill="#000002" transform="translate(0,0)"/>
<path d="" fill="#000002" transform="translate(0,0)"/>
<path d="" fill="#000002" transform="translate(0,0)"/>
<path d="M0 0 C2 1 2 1 2 1 Z " fill="#6D787D" transform="translate(992,858)"/>
<path d="M0 0 C2 1 2 1 2 1 Z " fill="#000002" transform="translate(659,851)"/>
<path d="M0 0 C2 1 2 1 2 1 Z " fill="#000002" transform="translate(1023,846)"/>
<path d="M0 0 C2 1 2 1 2 1 Z " fill="#000002" transform="translate(648,846)"/>
<path d="M0 0 C2 1 2 1 2 1 Z " fill="#000002" transform="translate(1029,843)"/>
<path d="M0 0 C2 1 2 1 2 1 Z " fill="#000002" transform="translate(1039,838)"/>
<path d="M0 0 C2 1 2 1 2 1 Z " fill="#000002" transform="translate(1045,835)"/>
<path d="M0 0 C2 1 2 1 2 1 Z " fill="#000002" transform="translate(626,835)"/>
<path d="M0 0 C2 1 2 1 2 1 Z " fill="#000002" transform="translate(1050,832)"/>
<path d="M0 0 C2 1 2 1 2 1 Z " fill="#000002" transform="translate(621,832)"/>
<path d="M0 0 C2 1 2 1 2 1 Z " fill="#000002" transform="translate(1064,824)"/>
<path d="M0 0 C2 1 2 1 2 1 Z " fill="#000002" transform="translate(607,824)"/>
<path d="M0 0 C2 1 2 1 2 1 Z " fill="#000002" transform="translate(1069,821)"/>
<path d="M0 0 C2 1 2 1 2 1 Z " fill="#000002" transform="translate(594,816)"/>
<path d="M0 0 C2 1 2 1 2 1 Z " fill="#6D787D" transform="translate(1079,814)"/>
<path d="M0 0 C2 1 2 1 2 1 Z " fill="#000002" transform="translate(585,810)"/>
<path d="M0 0 C2 1 2 1 2 1 Z " fill="#000002" transform="translate(1097,802)"/>
<path d="M0 0 C2 1 2 1 2 1 Z " fill="#000002" transform="translate(574,802)"/>
<path d="M0 0 C2 1 2 1 2 1 Z " fill="#000002" transform="translate(1121,783)"/>
<path d="M0 0 C2 1 2 1 2 1 Z " fill="#6D787D" transform="translate(1196,700)"/>
<path d="" fill="#000002" transform="translate(0,0)"/>
<path d="" fill="#000002" transform="translate(0,0)"/>
<path d="" fill="#6D787D" transform="translate(0,0)"/>
<path d="" fill="#000002" transform="translate(0,0)"/>
<path d="" fill="#000002" transform="translate(0,0)"/>
<path d="" fill="#000002" transform="translate(0,0)"/>
<path d="" fill="#6D787D" transform="translate(0,0)"/>
<path d="" fill="#000002" transform="translate(0,0)"/>
<path d="" fill="#6D787D" transform="translate(0,0)"/>
<path d="" fill="#000002" transform="translate(0,0)"/>
<path d="" fill="#000002" transform="translate(0,0)"/>
<path d="" fill="#6D787D" transform="translate(0,0)"/>
<path d="" fill="#000002" transform="translate(0,0)"/>
<path d="" fill="#6D787D" transform="translate(0,0)"/>
<path d="" fill="#000002" transform="translate(0,0)"/>
<path d="" fill="#000002" transform="translate(0,0)"/>
<path d="M0 0 C2 1 2 1 2 1 Z " fill="#000002" transform="translate(1233,245)"/>
<path d="" fill="#000002" transform="translate(0,0)"/>
<path d="" fill="#000002" transform="translate(0,0)"/>
<path d="" fill="#000002" transform="translate(0,0)"/>
<path d="" fill="#6D787D" transform="translate(0,0)"/>
<path d="" fill="#000002" transform="translate(0,0)"/>
<path d="" fill="#000002" transform="translate(0,0)"/>
<path d="" fill="#000002" transform="translate(0,0)"/>
<path d="" fill="#000002" transform="translate(0,0)"/>
<path d="" fill="#000002" transform="translate(0,0)"/>
<path d="" fill="#000002" transform="translate(0,0)"/>
<path d="" fill="#6D787D" transform="translate(0,0)"/>
<path d="" fill="#000002" transform="translate(0,0)"/>
<path d="" fill="#000002" transform="translate(0,0)"/>
<path d="" fill="#000002" transform="translate(0,0)"/>
<path d="" fill="#003668" transform="translate(0,0)"/>
<path d="" fill="#003668" transform="translate(0,0)"/>
<path d="" fill="#000002" transform="translate(0,0)"/>
<path d="" fill="#6D787D" transform="translate(0,0)"/>
<path d="" fill="#000002" transform="translate(0,0)"/>
<path d="" fill="#6D787D" transform="translate(0,0)"/>
<path d="" fill="#000002" transform="translate(0,0)"/>
<path d="" fill="#6D787D" transform="translate(0,0)"/>
<path d="" fill="#000002" transform="translate(0,0)"/>
<path d="" fill="#6D787D" transform="translate(0,0)"/>
<path d="" fill="#003668" transform="translate(0,0)"/>
<path d="" fill="#000002" transform="translate(0,0)"/>
<path d="" fill="#6D787D" transform="translate(0,0)"/>
<path d="" fill="#000002" transform="translate(0,0)"/>
<path d="" fill="#000002" transform="translate(0,0)"/>
<path d="" fill="#000002" transform="translate(0,0)"/>
<path d="" fill="#6D787D" transform="translate(0,0)"/>
<path d="" fill="#6D787D" transform="translate(0,0)"/>
<path d="" fill="#000002" transform="translate(0,0)"/>
<path d="" fill="#6D787D" transform="translate(0,0)"/>
<path d="" fill="#000002" transform="translate(0,0)"/>
<path d="" fill="#000002" transform="translate(0,0)"/>
<path d="" fill="#000002" transform="translate(0,0)"/>
<path d="" fill="#000002" transform="translate(0,0)"/>
<path d="" fill="#000002" transform="translate(0,0)"/>
<path d="" fill="#000002" transform="translate(0,0)"/>
<path d="" fill="#000002" transform="translate(0,0)"/>
<path d="" fill="#000002" transform="translate(0,0)"/>
<path d="" fill="#000002" transform="translate(0,0)"/>
<path d="" fill="#000002" transform="translate(0,0)"/>
<path d="" fill="#6D787D" transform="translate(0,0)"/>
<path d="" fill="#000002" transform="translate(0,0)"/>
<path d="" fill="#000002" transform="translate(0,0)"/>
<path d="" fill="#000002" transform="translate(0,0)"/>
<path d="" fill="#000002" transform="translate(0,0)"/>
<path d="" fill="#6D787D" transform="translate(0,0)"/>
<path d="" fill="#6D787D" transform="translate(0,0)"/>
<path d="" fill="#003668" transform="translate(0,0)"/>
<path d="" fill="#000002" transform="translate(0,0)"/>
<path d="" fill="#000002" transform="translate(0,0)"/>
<path d="" fill="#000002" transform="translate(0,0)"/>
<path d="" fill="#000002" transform="translate(0,0)"/>
<path d="" fill="#000002" transform="translate(0,0)"/>
<path d="" fill="#000002" transform="translate(0,0)"/>
<path d="" fill="#000002" transform="translate(0,0)"/>
<path d="" fill="#000002" transform="translate(0,0)"/>
<path d="" fill="#6D787D" transform="translate(0,0)"/>
<path d="" fill="#003668" transform="translate(0,0)"/>
<path d="" fill="#6D787D" transform="translate(0,0)"/>
<path d="" fill="#000002" transform="translate(0,0)"/>
<path d="" fill="#000002" transform="translate(0,0)"/>
<path d="" fill="#003668" transform="translate(0,0)"/>
<path d="" fill="#6D787D" transform="translate(0,0)"/>
<path d="" fill="#000002" transform="translate(0,0)"/>
<path d="" fill="#000002" transform="translate(0,0)"/>
<path d="" fill="#003668" transform="translate(0,0)"/>
<path d="" fill="#6D787D" transform="translate(0,0)"/>
<path d="" fill="#6D787D" transform="translate(0,0)"/>
<path d="" fill="#000002" transform="translate(0,0)"/>
<path d="" fill="#000002" transform="translate(0,0)"/>
<path d="" fill="#000002" transform="translate(0,0)"/>
<path d="" fill="#000002" transform="translate(0,0)"/>
<path d="" fill="#6D787D" transform="translate(0,0)"/>
<path d="" fill="#6D787D" transform="translate(0,0)"/>
<path d="" fill="#000002" transform="translate(0,0)"/>
<path d="" fill="#000002" transform="translate(0,0)"/>
<path d="" fill="#000002" transform="translate(0,0)"/>
<path d="" fill="#003668" transform="translate(0,0)"/>
<path d="" fill="#003668" transform="translate(0,0)"/>
<path d="" fill="#6D787D" transform="translate(0,0)"/>
<path d="" fill="#000002" transform="translate(0,0)"/>
<path d="" fill="#6D787D" transform="translate(0,0)"/>
<path d="" fill="#6D787D" transform="translate(0,0)"/>
<path d="" fill="#000002" transform="translate(0,0)"/>
<path d="" fill="#000002" transform="translate(0,0)"/>
<path d="" fill="#000002" transform="translate(0,0)"/>
<path d="" fill="#6D787D" transform="translate(0,0)"/>
<path d="" fill="#000002" transform="translate(0,0)"/>
<path d="" fill="#6D787D" transform="translate(0,0)"/>
<path d="" fill="#000002" transform="translate(0,0)"/>
<path d="" fill="#000002" transform="translate(0,0)"/>
<path d="" fill="#6D787D" transform="translate(0,0)"/>
<path d="" fill="#000002" transform="translate(0,0)"/>
<path d="" fill="#000002" transform="translate(0,0)"/>
<path d="" fill="#6D787D" transform="translate(0,0)"/>
<path d="" fill="#000002" transform="translate(0,0)"/>
<path d="" fill="#6D787D" transform="translate(0,0)"/>
<path d="" fill="#000002" transform="translate(0,0)"/>
<path d="" fill="#6D787D" transform="translate(0,0)"/>
<path d="" fill="#6D787D" transform="translate(0,0)"/>
<path d="" fill="#6D787D" transform="translate(0,0)"/>
<path d="" fill="#6D787D" transform="translate(0,0)"/>
<path d="" fill="#6D787D" transform="translate(0,0)"/>
<path d="" fill="#6D787D" transform="translate(0,0)"/>
<path d="" fill="#6D787D" transform="translate(0,0)"/>
<path d="" fill="#000002" transform="translate(0,0)"/>
<path d="" fill="#003668" transform="translate(0,0)"/>
<path d="" fill="#6D787D" transform="translate(0,0)"/>
<path d="" fill="#6D787D" transform="translate(0,0)"/>
<path d="" fill="#000002" transform="translate(0,0)"/>
<path d="" fill="#000002" transform="translate(0,0)"/>
<path d="" fill="#000002" transform="translate(0,0)"/>
<path d="" fill="#6D787D" transform="translate(0,0)"/>
<path d="" fill="#000002" transform="translate(0,0)"/>
<path d="" fill="#6D787D" transform="translate(0,0)"/>
<path d="" fill="#000002" transform="translate(0,0)"/>
<path d="" fill="#000002" transform="translate(0,0)"/>
<path d="" fill="#000002" transform="translate(0,0)"/>
<path d="" fill="#000002" transform="translate(0,0)"/>
<path d="" fill="#000002" transform="translate(0,0)"/>
<path d="" fill="#6D787D" transform="translate(0,0)"/>
<path d="" fill="#000002" transform="translate(0,0)"/>
<path d="" fill="#000002" transform="translate(0,0)"/>
<path d="" fill="#000002" transform="translate(0,0)"/>
<path d="" fill="#000002" transform="translate(0,0)"/>
<path d="" fill="#000002" transform="translate(0,0)"/>
<path d="" fill="#000002" transform="translate(0,0)"/>
<path d="" fill="#003668" transform="translate(0,0)"/>
<path d="" fill="#6D787D" transform="translate(0,0)"/>
<path d="" fill="#000002" transform="translate(0,0)"/>
<path d="" fill="#000002" transform="translate(0,0)"/>
</svg>
