<?xml version="1.0" encoding="UTF-8"?>
<!-- Generator: visioncortex VTracer 0.6.3 -->
<svg version="1.1" xmlns="http://www.w3.org/2000/svg" width="1280" height="853">
<path d="M0 0 C2 0.67 4 1.34 6 2 C6 2.66 6 3.32 6 4 C6.66 4 7.32 4 8 4 C8 4.66 8 5.32 8 6 C8.58 6.1 9.15 6.21 9.75 6.31 C12.36 7.11 13.97 8.19 16 10 C16 10.66 16 11.32 16 12 C16.66 12 17.32 12 18 12 C18 12.66 18 13.32 18 14 C18.66 14 19.32 14 20 14 C24.54 20.46 28 27.36 30 35 C30.18 35.61 30.37 36.22 30.55 36.85 C32.59 46.68 30.58 56.5 28 66 C27.64 67.54 27.29 69.08 26.94 70.62 C26 74 26 74 24 77 C23.62 78.66 23.27 80.32 23 82 C22.34 82 21.68 82 21 82 C20.86 83.12 20.86 83.12 20.71 84.26 C19.89 87.42 18.88 88.61 16.58 90.88 C15.88 91.58 15.19 92.27 14.47 92.98 C13.74 93.69 13 94.4 12.25 95.12 C11.53 95.84 10.82 96.56 10.08 97.29 C1.39 105.84 1.39 105.84 -3.81 106.19 C-4.9 106.09 -4.9 106.09 -6 106 C-6 106.99 -6 107.98 -6 109 C-7.81 109.83 -9.62 110.64 -11.44 111.44 C-12.45 111.89 -13.46 112.34 -14.5 112.81 C-21.69 115.25 -29.15 115.12 -36.67 114.99 C-38.49 114.97 -40.3 114.96 -42.12 114.94 C-44.95 114.91 -47.77 114.87 -50.6 114.83 C-53.35 114.79 -56.11 114.76 -58.86 114.74 C-59.7 114.72 -60.54 114.7 -61.41 114.69 C-66.12 114.67 -69.17 114.95 -73 118 C-78.17 124.73 -78.87 131.78 -78 140 C-77.37 143.76 -76.36 147.19 -74.81 150.69 C-73.82 153.5 -74.19 155.17 -75 158 C-74.13 158.08 -73.27 158.16 -72.38 158.25 C-69 159 -69 159 -66.22 160.91 C-62.83 163.11 -59.95 164.13 -56.06 165.19 C-54.32 165.67 -54.32 165.67 -52.54 166.17 C-46.84 167.51 -41.47 168.12 -35.62 168 C-33.75 167.96 -31.87 167.95 -30 168 C-29.67 168.33 -29.34 168.66 -29 169 C-28.18 168.67 -27.35 168.34 -26.5 168 C-22.53 166.86 -19.12 167 -15 167 C-10.1 165.84 -10.1 165.84 -7 162 C-7 162.66 -7 163.32 -7 164 C-5.37 163.38 -3.75 162.75 -2.12 162.12 C-1.22 161.78 -0.32 161.43 0.62 161.07 C3.12 160.11 3.12 160.11 5 158 C5.7 157.75 6.4 157.5 7.12 157.25 C12.32 154.99 16.86 151.72 20 147 C20.66 147 21.32 147 22 147 C24.78 145.18 26.12 143.82 28 141 C28.66 141.33 29.32 141.66 30 142 C30 140.35 30 138.7 30 137 C31.65 136.67 33.3 136.34 35 136 C35.33 135.01 35.66 134.02 36 133 C36.99 132.67 37.98 132.34 39 132 C39.45 131.05 39.91 130.1 40.38 129.12 C42.2 125.61 43.62 124.87 47 123 C47.33 122.01 47.66 121.02 48 120 C49.67 118.35 49.67 118.35 51.75 116.62 C55 113.87 58.04 111.05 61 108 C60.67 107.34 60.34 106.68 60 106 C61.32 106 62.64 106 64 106 C64.21 105.32 64.41 104.64 64.62 103.94 C66.18 100.62 68.13 98.34 70.56 95.62 C72.07 93.98 72.07 93.98 73.44 91.94 C74.94 90.08 76.4 88.81 78.25 87.31 C83.8 82.66 88.99 77.37 90 70 C90.99 70 91.98 70 93 70 C93.19 68.64 93.19 68.64 93.38 67.25 C93.47 66.62 93.56 65.99 93.66 65.35 C93.92 63.54 94.17 61.74 94.41 59.93 C94.56 58.86 94.72 57.79 94.88 56.69 C95.02 55.66 95.16 54.63 95.3 53.57 C96 51 96 51 99 49 C100.17 46.07 100.95 43.38 101.38 40.25 C101.58 39.51 101.79 38.76 102 38 C102.57 37.73 103.14 37.45 103.73 37.17 C106.75 35.61 108.65 33.46 111 31 C116.5 25.23 116.5 25.23 120 24 C123.25 24.38 123.25 24.38 126 25 C126 24.34 126 23.68 126 23 C127.55 22.81 127.55 22.81 129.12 22.62 C132.87 22.15 132.87 22.15 135.72 20.98 C143.21 18.74 153.29 18.8 160.81 21 C165.09 23.68 166.71 26.15 168 31 C169.86 43.95 165.38 58.21 161.91 70.62 C161.12 73.56 160.48 76.45 159.94 79.44 C159.39 82.37 158.69 84.99 157.56 87.75 C155.2 93.59 154.22 99.85 153 106 C153.66 106 154.32 106 155 106 C155.33 104.35 155.66 102.7 156 101 C157.49 100.5 157.49 100.5 159 100 C159 99.34 159 98.68 159 98 C159.66 98 160.32 98 161 98 C161.33 97.34 161.66 96.68 162 96 C162.5 95.4 162.99 94.8 163.5 94.19 C165.17 91.75 165.47 89.88 166 87 C166.66 86.34 167.32 85.68 168 85 C169.32 85 170.64 85 172 85 C172 84.01 172 83.02 172 82 C171.34 81.67 170.68 81.34 170 81 C170.99 81 171.98 81 173 81 C174.36 79.35 175.68 77.68 177 76 C178.72 74.44 180.49 72.96 182.27 71.47 C183.77 70.2 185.17 68.83 186.56 67.44 C188.38 65.62 190.15 64 192.12 62.38 C194.83 60.23 194.83 60.23 196.4 58.54 C201.88 53.27 208.76 50.41 216.07 48.74 C218.86 48.1 218.86 48.1 220.92 47.27 C227.32 44.85 233.14 44.52 239.94 44.56 C240.96 44.54 241.98 44.52 243.03 44.5 C249.28 44.51 254.08 45.39 259.75 48.04 C262.15 49.07 264.44 49.52 267 50 C269.24 51.12 269.24 51.12 271.31 52.44 C272.01 52.87 272.71 53.3 273.43 53.75 C273.95 54.16 274.46 54.57 275 55 C275 55.66 275 56.32 275 57 C275.89 57.35 276.77 57.7 277.69 58.06 C281.62 60.36 283.92 62.96 286 67 C286 67.99 286 68.98 286 70 C286.66 70 287.32 70 288 70 C289.7 77.42 290.08 84.17 289.46 91.76 C288.85 99.18 288.91 106.56 289 114 C288.34 114 287.68 114 287 114 C287.02 114.7 287.05 115.41 287.07 116.13 C287.22 124.27 286.29 131.98 285 140 C284.66 142.33 284.33 144.67 284 147 C281.34 165.58 281.34 165.58 278.76 173.18 C276.84 180.29 276.05 187.72 275 195 C278.86 196.49 281.37 197.37 285.38 196.12 C286.57 195.75 287.77 195.38 289 195 C289.33 193.35 289.66 191.7 290 190 C290.99 189.67 291.98 189.34 293 189 C293.73 186.98 293.73 186.98 294 185 C294.66 185 295.32 185 296 185 C296.33 184.34 296.66 183.68 297 183 C297.66 183 298.32 183 299 183 C299.33 182.34 299.66 181.68 300 181 C300.66 181 301.32 181 302 181 C302.33 180.01 302.66 179.02 303 178 C304.98 176.12 307.07 174.44 309.19 172.72 C311.25 171.03 311.25 171.03 312 168 C312.99 168 313.98 168 315 168 C315.66 166.68 316.32 165.36 317 164 C317.66 164 318.32 164 319 164 C319.24 163.43 319.48 162.86 319.73 162.28 C321.26 159.54 323.11 157.73 325.38 155.56 C331.27 150.02 331.27 150.02 335 143 C335.66 143 336.32 143 337 143 C339.82 140.67 342.35 138.02 344.94 135.44 C345.67 134.73 346.4 134.03 347.15 133.3 C351.36 129.11 354.1 125.66 356 120 C355.34 119.67 354.68 119.34 354 119 C355.32 119 356.64 119 358 119 C357.94 117.7 357.94 117.7 357.88 116.38 C358.01 112.82 358.59 110.26 360 107 C361.49 106.01 361.49 106.01 363 105 C363.68 102.68 364.01 100.39 364.38 98 C364.68 97.01 364.68 97.01 365 96 C366.49 95.5 366.49 95.5 368 95 C369.8 92.59 369.8 92.59 371.5 89.69 C374.82 84.24 374.82 84.24 376.66 81.83 C378.19 79.93 378.19 79.93 379 77 C379.33 77.33 379.66 77.66 380 78 C382.48 75.52 384.97 73.04 387.43 70.54 C399.66 58.17 399.66 58.17 404 56 C404.66 55.01 405.32 54.02 406 53 C407.66 52.64 409.33 52.3 411 52 C411.33 51.34 411.66 50.68 412 50 C413.76 48.98 415.52 47.96 417.31 47 C419.17 45.99 419.17 45.99 421 44 C421.66 44 422.32 44 423 44 C423.66 43.01 424.32 42.02 425 41 C426.32 41 427.64 41 429 41 C429.99 40.34 430.98 39.68 432 39 C433.33 38.65 434.66 38.31 436 38 C436.74 37.69 437.49 37.38 438.25 37.06 C441.12 35.95 443.99 35.27 446.98 34.57 C449.26 33.99 449.26 33.99 452.19 32.44 C456.51 30.46 461.03 30.45 465.72 30.21 C469.01 30.05 469.01 30.05 472.25 29.49 C487.87 27.45 506.43 27.64 521 34 C522.49 34.46 522.49 34.46 524 34.94 C530.07 37.09 535.57 39.17 539.15 44.81 C540.96 49.46 540.81 54.13 540 59 C536.66 65.33 530.69 67.92 524 70 C518.71 70.53 513.49 70.39 508.19 70.19 C506.11 70.12 504.04 70.07 501.96 70.02 C500.09 69.98 498.22 69.92 496.35 69.85 C488.69 70.19 481.59 73.86 476 79 C474.98 80.66 473.98 82.32 473 84 C472.34 84 471.68 84 471 84 C470.73 84.58 470.46 85.16 470.18 85.75 C468.99 88.02 467.64 89.91 466.06 91.94 C464.28 94.26 462.73 96.46 461.25 99 C460.63 99.99 460.63 99.99 460 101 C459.34 101 458.68 101 458 101 C457.75 101.66 457.5 102.32 457.25 103 C455.27 107.75 452.91 112.3 450.48 116.83 C447.46 122.56 445.3 127.6 444.42 134.04 C444 136 444 136 442 138 C440.56 142.27 439.88 146.56 440.06 151.06 C440 155 440 155 438.5 158.56 C435.38 166.14 435.79 175.77 438.62 183.38 C439.37 184.94 440.16 186.48 441 188 C441.44 188.79 441.87 189.58 442.32 190.4 C448.03 199.79 455.61 203.98 466 207 C469.44 207.76 469.44 207.76 472 208 C472 207.34 472 206.68 472 206 C472.71 205.82 473.42 205.64 474.15 205.45 C475.07 205.2 475.99 204.95 476.94 204.69 C477.85 204.44 478.77 204.2 479.71 203.95 C480.47 203.64 481.22 203.32 482 203 C482.33 202.01 482.66 201.02 483 200 C484.32 200 485.64 200 487 200 C489.07 199.09 489.07 199.09 491 198 C491.99 197.67 492.98 197.34 494 197 C498.49 194.92 502.78 192.58 507 190 C507.64 189.71 508.28 189.42 508.94 189.12 C511.27 187.95 511.27 187.95 513.94 185.5 C516.73 183.22 518.73 182.29 522 181 C522.7 180.3 523.4 179.6 524.12 178.88 C524.74 178.26 525.36 177.64 526 177 C526.99 177 527.98 177 529 177 C529.33 175.68 529.66 174.36 530 173 C531.65 172.67 533.3 172.34 535 172 C535.08 171.22 535.16 170.43 535.25 169.62 C536 167 536 167 537.81 165.81 C538.53 165.54 539.26 165.28 540 165 C544.28 163.05 546.39 160.92 549 157 C550.67 155.33 552.33 153.67 554 152 C555.03 150.8 556.05 149.59 557.06 148.38 C558.73 146.38 560.03 144.98 562.19 143.5 C564.33 141.97 564.33 141.97 565.44 138.56 C567 135 567 135 569.38 133.12 C573.13 130.09 574.86 126.27 577 122 C577.54 120.93 577.54 120.93 578.08 119.84 C578.38 119.24 578.69 118.63 579 118 C579.33 117.34 579.66 116.68 580 116 C580.66 116 581.32 116 582 116 C582 114.35 582 112.7 582 111 C582.66 111 583.32 111 584 111 C584.12 109.7 584.12 109.7 584.25 108.38 C585.11 104.49 586.73 102.24 589 99 C589.72 97.35 590.4 95.69 591 94 C591.66 94 592.32 94 593 94 C593.15 93.1 593.15 93.1 593.31 92.19 C594.1 89.68 595.17 88.83 597 87 C597.71 84.9 597.71 84.9 598 83 C598.99 83 599.98 83 601 83 C601 82.34 601 81.68 601 81 C601.66 81 602.32 81 603 81 C603.33 79.35 603.66 77.7 604 76 C604.66 76 605.32 76 606 76 C606.33 75.01 606.66 74.02 607 73 C607.33 72.01 607.66 71.02 608 70 C608.66 70 609.32 70 610 70 C610.33 69.34 610.66 68.68 611 68 C613.7 65.03 616.55 62.22 619.38 59.38 C620.16 58.57 620.94 57.77 621.74 56.95 C622.87 55.81 622.87 55.81 624.02 54.65 C624.71 53.95 625.4 53.25 626.11 52.53 C628 51 628 51 631 51 C631.33 49.35 631.66 47.7 632 46 C632.95 45.92 633.9 45.83 634.88 45.75 C638.1 45.35 638.1 45.35 639.38 42.94 C639.58 42.3 639.79 41.66 640 41 C640.66 41.33 641.32 41.66 642 42 C642.33 40.68 642.66 39.36 643 38 C644.39 37.81 644.39 37.81 645.81 37.62 C649.14 37.18 649.14 37.18 652 35 C654.33 34.92 656.67 34.91 659 35 C659 34.34 659 33.68 659 33 C663.85 31.46 668.1 30.7 673.22 30.52 C673.88 30.49 674.54 30.47 675.22 30.44 C676.61 30.39 678 30.35 679.39 30.31 C681.5 30.25 683.6 30.17 685.71 30.08 C687.07 30.04 688.42 29.99 689.78 29.95 C691 29.91 692.22 29.87 693.47 29.83 C699.34 30.11 704.06 31.67 708.88 35 C709.64 35.52 710.4 36.03 711.18 36.56 C713 38 713 38 714 40 C714.24 43.26 714.19 46.54 714.19 49.81 C714.19 51.23 714.19 51.23 714.19 52.67 C714.03 71.97 714.03 71.97 711 75 C710.72 77.91 710.5 80.81 710.32 83.73 C710.26 84.63 710.2 85.53 710.13 86.46 C709.94 89.37 709.75 92.28 709.56 95.19 C709.32 98.95 709.07 102.72 708.82 106.48 C708.75 107.45 708.69 108.41 708.63 109.4 C708.32 113.91 707.98 118.4 707.47 122.89 C705.52 140.41 705.59 157.96 705.57 175.56 C705.57 180.19 705.53 184.81 705.49 189.44 C705.46 193.03 705.45 196.62 705.45 200.21 C705.44 201.91 705.43 203.62 705.41 205.33 C705.38 207.7 705.39 210.07 705.4 212.44 C705.39 213.13 705.37 213.83 705.36 214.55 C705.41 218.35 705.92 219.91 708.35 222.91 C711.41 225.32 713.1 226.08 717 226 C719.27 224.15 719.27 224.15 721 222 C721.66 222 722.32 222 723 222 C723.66 221.01 724.32 220.02 725 219 C725.99 218.67 726.98 218.34 728 218 C728.33 217.34 728.66 216.68 729 216 C729.66 216 730.32 216 731 216 C731 215.01 731 214.02 731 213 C731.6 212.77 732.2 212.55 732.81 212.31 C735.15 211.16 735.15 211.16 736.23 208.84 C738.53 205.16 741.36 202.35 744.44 199.31 C745.01 198.73 745.58 198.15 746.17 197.55 C746.73 197 747.29 196.44 747.87 195.86 C748.38 195.36 748.88 194.86 749.4 194.34 C751 193 751 193 753.1 191.98 C755.76 190.61 756.51 188.53 758 186 C758.99 185.67 759.98 185.34 761 185 C762.03 183.35 763.02 181.68 764 180 C764.68 179.34 765.36 178.68 766.06 178 C768.14 176.11 768.14 176.11 769 173.5 C770.17 170.57 771.6 169.03 774 167 C774.66 167 775.32 167 776 167 C776 166.34 776 165.68 776 165 C776.66 165 777.32 165 778 165 C778.33 164.01 778.66 163.02 779 162 C779.66 161.34 780.32 160.68 781 160 C781 159.34 781 158.68 781 158 C782.53 156.76 784.07 155.52 785.61 154.29 C787.38 152.65 787.55 151.33 788 149 C789.33 147.67 790.67 146.33 792 145 C793.56 142.72 794.76 140.49 796 138 C795.67 137.34 795.34 136.68 795 136 C797.97 135.01 797.97 135.01 801 134 C801.08 133.28 801.16 132.56 801.25 131.81 C802.15 128.45 803.82 126.67 806 124 C806 123.01 806 122.02 806 121 C807.49 120.5 807.49 120.5 809 120 C811.05 117.2 811.05 117.2 811.88 114.5 C813.16 111.65 814.53 110.81 817 109 C817 108.01 817 107.02 817 106 C818.36 104.75 818.36 104.75 820.19 103.56 C822.49 102.03 824.6 100.51 826.75 98.75 C829 97 829 97 832 96 C836.91 96.62 839.07 97.02 842.5 100.62 C845.54 106.97 845.22 117.43 842.98 123.99 C842.65 124.65 842.33 125.32 842 126 C841.34 126 840.68 126 840 126 C840 127.65 840 129.3 840 131 C839.34 131 838.68 131 838 131 C837.9 131.57 837.79 132.13 837.68 132.72 C836.88 135.39 835.66 137.22 834.06 139.5 C832.14 142.26 830.43 144.95 829 148 C828.34 148 827.68 148 827 148 C826.34 149.65 825.68 151.3 825 153 C824.34 153 823.68 153 823 153 C823 153.99 823 154.98 823 156 C821.64 157.29 821.64 157.29 819.81 158.62 C816.14 161.59 814.37 164.65 812.26 168.82 C810.97 171.05 809.62 172.56 807.75 174.31 C804.96 177.04 804.79 177.52 804 181 C802.71 182.38 801.37 183.71 800 185 C799.3 185.91 798.6 186.82 797.88 187.75 C797.26 188.49 796.64 189.24 796 190 C795.34 190 794.68 190 794 190 C793.67 191.32 793.34 192.64 793 194 C792.34 194 791.68 194 791 194 C791 194.66 791 195.32 791 196 C790.34 196 789.68 196 789 196 C788.71 196.58 788.42 197.15 788.12 197.75 C787.75 198.49 787.38 199.24 787 200 C786.73 200.63 786.46 201.26 786.18 201.91 C784.77 204.41 783.14 205.81 780.94 207.62 C778.02 209.95 778.02 209.95 776 213 C775.34 213 774.68 213 774 213 C773.86 213.89 773.86 213.89 773.73 214.8 C772.81 217.56 771.64 218.45 769.38 220.25 C766.4 222.72 763.81 225.24 761.31 228.19 C758.75 231.2 756.17 233.62 753 236 C751.87 237.02 750.75 238.04 749.62 239.06 C746.31 241.91 743.12 243.46 739 245 C738.26 245.34 737.52 245.68 736.76 246.03 C725.17 251.22 709.8 251.88 697.66 247.91 C688.59 243.7 679.9 237.45 676 228 C675.65 225.24 675.86 222.8 676 220 C675.34 220 674.68 220 674 220 C674 219.34 674 218.68 674 218 C673.01 217.67 672.02 217.34 671 217 C669.44 212.31 670.04 207.57 670.16 202.66 C670.01 199.19 669.36 197.13 668 194 C668.33 193.34 668.66 192.68 669 192 C668.34 192 667.68 192 667 192 C664.91 188.57 664.77 185.91 664.8 181.92 C664.81 180.76 664.82 179.6 664.82 178.41 C664.84 177.2 664.86 175.99 664.88 174.75 C664.89 172.92 664.89 172.92 664.9 171.05 C664.93 168.03 664.96 165.02 665 162 C665.66 162 666.32 162 667 162 C666.86 158.1 666.71 154.21 666.56 150.31 C666.5 148.66 666.5 148.66 666.44 146.97 C666.4 145.9 666.36 144.84 666.32 143.74 C666.26 142.27 666.26 142.27 666.21 140.77 C666.01 138.11 665.58 135.61 665 133 C663.68 132.67 662.36 132.34 661 132 C661.33 133.65 661.66 135.3 662 137 C661.01 137 660.02 137 659 137 C659.23 137.56 659.45 138.11 659.69 138.69 C660.13 141.95 658.75 143.27 657 146 C656.69 147.03 656.38 148.06 656.06 149.12 C655 152 655 152 653.06 153.38 C650.29 155.56 649.71 157.87 648.61 161.16 C648 163 648 163 647 165 C647 166.32 647 167.64 647 169 C646.34 169.33 645.68 169.66 645 170 C644.09 172.11 644.09 172.11 643.38 174.56 C642.98 175.8 642.98 175.8 642.59 177.07 C642.3 178.02 642.3 178.02 642 179 C641.01 179 640.02 179 639 179 C639.33 179.99 639.66 180.98 640 182 C638.62 183.5 638.62 183.5 637 185 C636.34 185 635.68 185 635 185 C634.89 185.59 634.77 186.17 634.65 186.77 C633.95 189.16 633.04 190.64 631.56 192.62 C631.13 193.22 630.7 193.81 630.25 194.41 C629 196 629 196 627 198 C626.11 199.18 625.24 200.37 624.38 201.56 C621.96 204.8 619.44 207.93 616.81 211 C616.16 211.76 615.51 212.53 614.83 213.31 C613 215 613 215 610 215 C610 215.66 610 216.32 610 217 C609.34 217 608.68 217 608 217 C607.67 217.99 607.34 218.98 607 220 C604.44 221.19 604.44 221.19 602 222 C602 222.66 602 223.32 602 224 C601.26 224.12 600.51 224.25 599.75 224.38 C597.08 224.85 597.08 224.85 595.21 226.01 C589.73 228.47 582.7 228.02 577.17 225.94 C571.53 222.75 566.48 218.52 563 213 C562.32 210.25 562.32 210.25 562 208 C561.01 207.67 560.02 207.34 559 207 C559 206.34 559 205.68 559 205 C558.34 204.67 557.68 204.34 557 204 C556.67 203.01 556.34 202.02 556 201 C551.85 201.13 550.07 202.7 547.31 205.56 C546.73 206.2 546.15 206.84 545.55 207.5 C544 209 544 209 542 209 C541.75 209.62 541.5 210.24 541.25 210.88 C539.78 213.38 538.59 213.83 536 215 C535.67 215.66 535.34 216.32 535 217 C534.26 217.27 533.51 217.54 532.75 217.81 C529.83 218.87 529.83 218.87 527.62 221.44 C525.13 223.88 523.18 224.95 519.96 226.18 C517.65 227.14 515.55 228.33 513.38 229.56 C510.3 231.3 507.3 232.73 504 234 C502.7 234.66 501.41 235.33 500.12 236 C496.49 237.84 492.96 238.99 489 240 C488.14 240.25 487.28 240.5 486.4 240.75 C480.9 242.33 475.69 243.44 470 244 C468.92 244.18 467.85 244.36 466.74 244.54 C460.66 245.31 454.55 244.97 448.44 244.76 C446.33 244.69 444.23 244.63 442.13 244.58 C431.12 244.26 420.28 243.47 409.86 239.65 C407.88 238.9 407.88 238.9 405.25 238.5 C402.43 237.87 400.45 236.51 398 235 C395.93 234.36 395.93 234.36 394 234 C393.01 233.67 392.02 233.34 391 233 C391 232.34 391 231.68 391 231 C390.3 230.73 389.6 230.46 388.88 230.19 C385.84 228.93 382.93 227.5 380 226 C380 225.34 380 224.68 380 224 C378.86 223.63 378.86 223.63 377.69 223.25 C374.74 221.88 373.64 220.76 372 218 C372 217.34 372 216.68 372 216 C371.34 216 370.68 216 370 216 C368.38 214.69 368.38 214.69 367 213 C367 212.01 367 211.02 367 210 C366.34 210 365.68 210 365 210 C363.89 207.81 362.79 205.63 361.69 203.44 C361.22 202.52 361.22 202.52 360.75 201.59 C357.38 194.89 354.59 188.04 352 181 C347.29 182.27 344.69 183.84 341.33 187.35 C340.5 188.2 339.67 189.05 338.82 189.93 C337.97 190.82 337.12 191.71 336.25 192.62 C334.55 194.39 332.85 196.16 331.14 197.91 C330.39 198.7 329.65 199.48 328.88 200.29 C327 202 327 202 325 202 C324.67 202.99 324.34 203.98 324 205 C320.56 208 320.56 208 318 208 C318 208.66 318 209.32 318 210 C314.51 213.17 311.04 215.58 307 218 C305.95 218.88 304.91 219.78 303.88 220.69 C301 223 301 223 298 223 C297.75 223.61 297.5 224.22 297.25 224.84 C293.93 230.58 285.2 232.84 279.29 235.08 C276.78 236.03 276.78 236.03 273.75 237.81 C270.39 239.26 268.49 238.91 265 238 C265 238.66 265 239.32 265 240 C264.37 240.06 263.75 240.12 263.1 240.18 C262.28 240.27 261.47 240.35 260.62 240.44 C259.81 240.52 259 240.6 258.16 240.68 C255.96 240.89 255.96 240.89 254 242 C251.09 242.13 248.22 242.19 245.31 242.19 C244.52 242.2 243.73 242.21 242.92 242.22 C237.89 242.24 233.77 241.61 229 240 C229 239.34 229 238.68 229 238 C228.13 238.1 227.27 238.21 226.38 238.31 C220.09 237.73 216.27 232.27 212 228 C211.01 227.34 210.02 226.68 209 226 C207.87 223.54 207.87 223.54 206.88 220.62 C206.38 219.19 206.38 219.19 205.87 217.73 C204.29 212.75 203.69 208.09 203.38 202.88 C203.3 201.78 203.3 201.78 203.22 200.67 C202.88 195.24 202.88 195.24 204 193 C204.05 191.13 204.04 189.25 204 187.38 C203.97 183.21 204.1 179.25 204.71 175.14 C205.22 171.38 205.44 167.61 205.72 163.83 C205.98 161.17 206.43 158.62 207 156 C207.33 156 207.66 156 208 156 C208.33 152.04 208.66 148.08 209 144 C209.66 144 210.32 144 211 144 C210.97 142.17 210.97 142.17 210.94 140.31 C210.88 137.06 211.35 134.19 212 131 C212.29 128.21 212.5 125.42 212.72 122.62 C213.05 119.49 213.48 116.93 215.02 114.17 C216.12 111.72 216.26 110.05 216.27 107.38 C216.27 106.07 216.27 106.07 216.27 104.73 C216.27 103.83 216.26 102.93 216.25 102 C216.26 101.1 216.27 100.2 216.27 99.27 C216.27 98.39 216.27 97.52 216.27 96.62 C216.26 95.44 216.26 95.44 216.26 94.23 C215.97 91.77 215.22 90.13 214 88 C210.9 88.31 209.96 89.04 207.75 91.33 C206.98 92.29 206.22 93.26 205.44 94.25 C204.29 95.68 204.29 95.68 203.12 97.14 C200.97 99.93 200.97 99.93 199.35 102.86 C198.9 103.57 198.46 104.27 198 105 C197.34 105 196.68 105 196 105 C195.67 106.65 195.34 108.3 195 110 C194.34 110 193.68 110 193 110 C192.69 110.99 192.69 110.99 192.38 112 C190.51 116.07 188.02 119.69 185 123 C184.34 123 183.68 123 183 123 C182.89 123.57 182.77 124.14 182.65 124.73 C181.94 127.21 180.93 129.06 179.56 131.25 C179.13 131.96 178.7 132.66 178.25 133.39 C177.84 133.92 177.43 134.45 177 135 C176.34 135 175.68 135 175 135 C175 135.99 175 136.98 175 138 C173.67 139.33 172.33 140.67 171 142 C169.96 143.98 168.97 145.98 168 148 C167.24 149.24 166.47 150.47 165.69 151.69 C163.18 155.63 160.95 159.7 158.73 163.81 C153.38 173.67 147.84 183.42 142 193 C141.49 193.87 140.99 194.75 140.47 195.64 C139 198 139 198 136.88 200 C134.65 202.37 134.56 203.87 134 207 C132.5 208.62 132.5 208.62 131 210 C130.67 210.99 130.34 211.98 130 213 C129.34 213.66 128.68 214.32 128 215 C127.1 216.52 126.2 218.04 125.31 219.56 C122.46 223.85 122.46 223.85 118.75 225.06 C116.89 225.03 116.89 225.03 115 225 C114.21 225.03 113.42 225.07 112.61 225.1 C103.61 225.4 96.83 223.28 89 219 C88.07 218.5 87.15 217.99 86.19 217.48 C84.3 216.44 82.4 215.41 80.52 214.37 C78.36 213.2 76.2 212.08 74 211 C74 210.34 74 209.68 74 209 C73.36 208.82 72.72 208.65 72.06 208.46 C70 207 70 207 69.25 203.69 C69.15 202.32 69.06 200.94 69 199.56 C68.91 198.57 68.91 198.57 68.81 197.56 C68.55 193.1 69.3 189.89 70.98 185.76 C73.44 179.53 73.46 173.93 73.25 167.31 C73.23 166.22 73.21 165.12 73.2 163.99 C73.15 161.33 73.08 158.66 73 156 C68.74 157.98 66.22 159.66 63.33 163.41 C61.93 165.08 60.45 166.33 58.75 167.69 C54.6 171.11 51.48 175.26 48.14 179.45 C45.63 182.44 43.08 184.62 40 187 C37.72 189.23 35.49 191.48 33.31 193.81 C32 195 32 195 30 195 C30 195.66 30 196.32 30 197 C27.78 198.49 25.57 199.85 23.25 201.19 C22.57 201.58 21.89 201.98 21.19 202.39 C19.8 203.21 18.41 204.02 17.01 204.83 C15.19 205.89 13.38 206.98 11.58 208.08 C6.39 211.21 1.88 213.59 -4 215 C-4.99 215.52 -5.98 216.03 -7 216.56 C-10.43 218.2 -13.23 218.53 -17 219 C-18.81 219.26 -18.81 219.26 -20.66 219.54 C-40.95 222.24 -62.09 222.16 -82 217 C-82 216.34 -82 215.68 -82 215 C-82.56 215.21 -83.12 215.42 -83.7 215.64 C-86.77 216.12 -88.15 215.26 -90.88 213.81 C-91.75 213.35 -92.63 212.88 -93.53 212.41 C-96.47 210.73 -99.24 208.95 -102 207 C-103.49 206.01 -103.49 206.01 -105 205 C-105 204.34 -105 203.68 -105 203 C-105.66 203 -106.32 203 -107 203 C-107 202.34 -107 201.68 -107 201 C-107.66 201 -108.32 201 -109 201 C-109 200.34 -109 199.68 -109 199 C-109.66 199 -110.32 199 -111 199 C-112.22 197.54 -112.22 197.54 -113.5 195.62 C-114.92 193.52 -116.19 191.81 -118 190 C-118 188.68 -118 187.36 -118 186 C-118.66 185.67 -119.32 185.34 -120 185 C-121.7 182.1 -122.7 179.07 -123.69 175.87 C-124 174.9 -124.3 173.93 -124.62 172.93 C-124.93 171.92 -125.24 170.91 -125.56 169.88 C-126.19 167.87 -126.81 165.87 -127.44 163.87 C-127.85 162.54 -127.85 162.54 -128.28 161.18 C-128.95 158.99 -128.95 158.99 -130 157 C-130.28 152.36 -130.23 147.71 -130.25 143.06 C-130.27 141.78 -130.29 140.5 -130.31 139.18 C-130.34 131.24 -129.43 124.54 -127 117 C-125.78 112.03 -124.78 107.05 -124 102 C-123.34 102 -122.68 102 -122 102 C-122.5 99.03 -122.5 99.03 -123 96 C-122.01 95.5 -122.01 95.5 -121 95 C-120.09 92.66 -120.09 92.66 -119.38 89.94 C-119.11 89.02 -118.85 88.1 -118.59 87.15 C-118.39 86.44 -118.2 85.73 -118 85 C-117.34 85 -116.68 85 -116 85 C-116 83.68 -116 82.36 -116 81 C-115.34 81 -114.68 81 -114 81 C-114 79.02 -114 77.04 -114 75 C-113.01 74.5 -113.01 74.5 -112 74 C-112.5 73.01 -112.5 73.01 -113 72 C-111.68 72 -110.36 72 -109 72 C-108.91 70.76 -108.91 70.76 -108.81 69.5 C-107.79 65.09 -105.86 61.52 -103 58 C-102.34 58 -101.68 58 -101 58 C-101 57.01 -101 56.02 -101 55 C-99.69 53.64 -98.35 52.31 -97 51 C-95.66 49.01 -94.32 47.01 -93 45 C-91.5 43.38 -91.5 43.38 -90 42 C-89.36 41.36 -88.72 40.72 -88.06 40.06 C-82 34 -82 34 -79.31 31.44 C-76.81 29.15 -76.81 29.15 -76 26 C-75.34 26 -74.68 26 -74 26 C-73.34 25.01 -72.68 24.02 -72 23 C-71 22 -71 22 -69.19 21.69 C-66.33 20.79 -65.03 19.16 -63 17 C-62.01 16.5 -62.01 16.5 -61 16 C-60.28 14.36 -59.61 12.69 -59 11 C-58.01 11.33 -57.02 11.66 -56 12 C-55.57 11.57 -55.13 11.13 -54.69 10.69 C-54.13 10.13 -53.57 9.57 -53 9 C-52.53 8.46 -52.05 7.93 -51.56 7.38 C-49.74 5.77 -48.33 5.54 -46 5 C-45.67 4.34 -45.34 3.68 -45 3 C-44.34 3 -43.68 3 -43 3 C-42.67 2.34 -42.34 1.68 -42 1 C-41.01 1.5 -41.01 1.5 -40 2 C-39.67 1.34 -39.34 0.68 -39 0 C-38.34 0 -37.68 0 -37 0 C-36.67 -0.66 -36.34 -1.32 -36 -2 C-35.01 -1.67 -34.02 -1.34 -33 -1 C-31.33 -0.96 -29.67 -0.95 -28 -1 C-28 -1.66 -28 -2.32 -28 -3 C-17.53 -4.33 -9.99 -3.8 0 0 Z M-15.88 29.81 C-16.72 30.33 -17.56 30.86 -18.43 31.39 C-19.7 32.19 -19.7 32.19 -21 33 C-21.91 33.5 -22.82 34 -23.76 34.51 C-26.3 35.87 -26.3 35.87 -27 39 C-28.32 39.7 -29.65 40.36 -31 41 C-32.95 42.6 -32.95 42.6 -34.75 44.44 C-35.36 45.03 -35.98 45.63 -36.61 46.25 C-38.31 48.02 -38.31 48.02 -38 51 C-38.66 51 -39.32 51 -40 51 C-41.67 52.65 -41.67 52.65 -43.38 54.75 C-45.35 57.1 -47.22 59.19 -49.5 61.25 C-50 61.83 -50.49 62.4 -51 63 C-50.64 65.09 -50.64 65.09 -50 67 C-45.18 68.01 -42.04 68.5 -37.5 66.31 C-36.95 65.94 -36.4 65.56 -35.83 65.18 C-33.04 63.38 -29.99 62.26 -26.92 61.03 C-24.67 60.02 -24.67 60.02 -23 57 C-22.01 57 -21.02 57 -20 57 C-18.64 55.69 -17.32 54.35 -16 53 C-14.72 52.05 -13.43 51.11 -12.12 50.19 C-6.26 45.83 -6.26 45.83 -2 40 C-1.55 36.73 -1.85 34.09 -3 31 C-5.2 28.35 -5.2 28.35 -8 27 C-11.59 27 -12.86 27.93 -15.88 29.81 Z M632 47 C633 49 633 49 633 49 Z M671.31 67 C669.67 67.99 669.67 67.99 668 69 C668 69.66 668 70.32 668 71 C667.44 71.23 666.89 71.45 666.31 71.69 C663.33 73.38 661.36 75.52 659 78 C658.18 78.79 658.18 78.79 657.35 79.59 C655.86 81.02 654.43 82.51 653 84 C653 84.66 653 85.32 653 86 C652.34 86 651.68 86 651 86 C651 86.66 651 87.32 651 88 C650.34 88 649.68 88 649 88 C649 88.66 649 89.32 649 90 C648.01 90.33 647.02 90.66 646 91 C644.66 92.61 644.66 92.61 643.44 94.69 C640.24 99.71 636.78 104.51 633.25 109.3 C630.81 112.34 630.81 112.34 630 116 C629.34 116 628.68 116 628 116 C627.44 117.36 627.44 117.36 626.88 118.75 C625.41 122.18 623.76 125.49 622.06 128.81 C614.78 143.34 610.5 157.73 610 174 C611.98 173.5 611.98 173.5 614 173 C614.08 171.99 614.16 170.98 614.25 169.94 C614.96 164.96 617.29 161.2 620.38 157.23 C622.53 154.27 624.32 151.12 626.12 147.94 C626.48 147.31 626.84 146.69 627.21 146.04 C628.73 143.39 630.03 140.91 631 138 C632.33 136.66 633.66 135.33 635 134 C636.07 132.39 637.09 130.74 638.06 129.06 C638.55 128.23 639.03 127.39 639.54 126.54 C640.02 125.7 640.5 124.86 641 124 C641.56 123.11 642.11 122.22 642.68 121.31 C644.17 119.15 644.17 119.15 644 117 C644.66 117 645.32 117 646 117 C646 116.01 646 115.02 646 114 C646.66 114 647.32 114 648 114 C649.34 112.34 650.59 110.62 651.81 108.88 C654.11 105.62 656.39 102.44 659 99.44 C661.21 97.27 661.21 97.27 661 95 C661.66 95 662.32 95 663 95 C664.18 93.5 664.18 93.5 665.31 91.62 C667.6 88.26 669.23 87.51 673 86 C674.97 83.84 676.49 81.49 678 79 C678.47 78.22 678.95 77.43 679.44 76.62 C680.31 72.55 679.12 68.95 678 65 C674.83 65 673.94 65.42 671.31 67 Z M654 147 C655 149 655 149 655 149 Z M205 182 C205 185.63 205 189.26 205 193 C205.33 193 205.66 193 206 193 C206 189.37 206 185.74 206 182 C205.67 182 205.34 182 205 182 Z " fill="#D58E06" transform="translate(433,418)"/>
<path d="M0 0 C1.08 0.07 1.08 0.07 2.19 0.14 C7.42 0.55 7.42 0.55 8.56 1.69 C10.39 1.96 12.23 2.18 14.07 2.37 C15.77 2.56 15.77 2.56 17.5 2.74 C19.89 3 22.28 3.25 24.67 3.49 C34.52 4.57 34.52 4.57 39.13 5.79 C42 6.54 44.03 6.88 46.94 6.69 C48.13 6.69 49.33 6.69 50.56 6.69 C51.55 7.68 51.55 7.68 52.56 8.69 C54.86 9.5 54.86 9.5 57.56 10.17 C58.58 10.44 59.61 10.71 60.66 11 C62.31 11.43 62.31 11.43 64 11.88 C106.35 23.43 106.35 23.43 119.56 36.69 C119.56 37.35 119.56 38.01 119.56 38.69 C120.68 38.87 120.68 38.87 121.81 39.06 C124.48 39.67 126.3 40.18 128.56 41.69 C129.57 43.35 130.57 45.02 131.56 46.69 C132.41 47.35 133.25 48.01 134.12 48.69 C136.8 50.88 137.57 52.43 138.56 55.69 C139.55 55.69 140.54 55.69 141.56 55.69 C141.89 57.01 142.22 58.33 142.56 59.69 C143.55 59.69 144.54 59.69 145.56 59.69 C149.56 64.83 149.56 64.83 149.56 68.69 C150.22 68.69 150.88 68.69 151.56 68.69 C153.23 72.02 154.9 75.35 156.56 78.69 C156.94 79.39 157.33 80.09 157.72 80.81 C158.91 83.46 158.69 85.83 158.56 88.69 C159.22 88.69 159.88 88.69 160.56 88.69 C160.59 92.8 160.61 96.91 160.62 101.02 C160.62 102.42 160.63 103.82 160.64 105.22 C160.65 107.23 160.66 109.24 160.66 111.25 C160.67 113.06 160.67 113.06 160.68 114.91 C160.56 117.69 160.56 117.69 159.56 118.69 C159.97 120.74 159.97 120.74 160.56 122.69 C158.58 123.68 158.58 123.68 156.56 124.69 C157.22 126.01 157.88 127.33 158.56 128.69 C157.9 129.02 157.24 129.35 156.56 129.69 C156.56 130.68 156.56 131.67 156.56 132.69 C155.08 133.68 155.08 133.68 153.56 134.69 C153.89 135.35 154.22 136.01 154.56 136.69 C153.24 136.69 151.92 136.69 150.56 136.69 C150.23 137.68 149.9 138.67 149.56 139.69 C150.55 140.02 151.54 140.35 152.56 140.69 C151.82 141.24 151.08 141.8 150.31 142.38 C147.58 144.51 147.58 144.51 145.86 146.86 C142.85 150.56 139.51 153.84 136.12 157.19 C135.47 157.84 134.81 158.49 134.14 159.16 C132.86 160.43 131.59 161.69 130.31 162.95 C128.77 164.49 127.24 166.03 125.71 167.58 C122.14 171.08 118.28 172.19 113.56 173.69 C113.56 174.35 113.56 175.01 113.56 175.69 C111.25 176.68 108.94 177.67 106.56 178.69 C106.56 179.35 106.56 180.01 106.56 180.69 C105.24 180.36 103.92 180.03 102.56 179.69 C102.23 180.68 101.9 181.67 101.56 182.69 C99.9 182.69 98.23 182.69 96.56 182.69 C96.89 183.68 97.22 184.67 97.56 185.69 C95.77 186.49 95.77 186.49 93.94 187.31 C89.54 189.53 86.64 191.82 83.56 195.69 C83.88 199.33 85.16 202.28 86.75 205.54 C87.2 206.46 87.64 207.39 88.1 208.34 C88.83 209.81 88.83 209.81 89.56 211.31 C90.57 213.39 91.58 215.47 92.59 217.55 C93.09 218.59 93.6 219.63 94.12 220.69 C95.79 224.16 97.42 227.64 99.04 231.12 C102.73 239.01 106.65 246.73 110.75 254.41 C115.3 262.97 119.44 271.72 123.54 280.5 C124.36 282.26 125.2 284.01 126.05 285.75 C128.81 291.51 130.88 297.41 132.94 303.44 C135.68 311.46 138.88 319.04 142.59 326.67 C149.41 340.85 155.32 355.33 160.82 370.07 C165.2 381.69 170.3 393 175.67 404.2 C178.7 410.51 181.55 416.84 184.06 423.38 C184.32 424.02 184.57 424.67 184.84 425.34 C186.3 429.25 186.82 432.52 186.56 436.69 C187.22 437.02 187.88 437.35 188.56 437.69 C188.23 439.01 187.9 440.33 187.56 441.69 C188.22 441.69 188.88 441.69 189.56 441.69 C192.11 453.27 192.11 453.27 190.25 458.12 C179.83 468.06 161.81 477.99 147.12 477.88 C145.95 477.81 144.77 477.75 143.56 477.69 C142.55 477.91 141.54 478.14 140.5 478.38 C136.4 478.81 134.15 477.64 130.56 475.69 C128 473.31 128 473.31 125.56 470.69 C124.49 469.82 123.4 468.97 122.31 468.12 C119.42 465.56 119.32 465.16 118.56 461.69 C117.44 460.65 117.44 460.65 116.29 459.6 C112.95 456.04 111.41 452.53 109.56 448.06 C108.92 446.55 108.27 445.04 107.62 443.52 C107.29 442.74 106.96 441.95 106.62 441.14 C105.52 438.59 104.36 436.06 103.19 433.54 C99.77 426.05 96.81 418.39 93.79 410.73 C90.59 402.61 87.25 394.6 83.56 386.69 C82.67 384.72 81.77 382.75 80.88 380.79 C79.96 378.77 79.04 376.76 78.12 374.75 C77.67 373.76 77.22 372.76 76.76 371.74 C74.46 366.72 72.11 361.76 69.59 356.86 C66.46 350.66 63.89 344.28 61.38 337.82 C57.14 326.92 52.68 316.21 47.56 305.69 C46.91 304.26 46.26 302.84 45.61 301.41 C40.14 287.27 40.14 287.27 30.56 276.69 C30.45 277.26 30.34 277.83 30.23 278.42 C29.3 283.19 28.28 287.92 27.14 292.65 C25.49 299.76 24.28 306.92 23.12 314.12 C21.66 323.14 20.13 332.15 18.44 341.12 C16.86 349.53 15.69 357.96 14.64 366.44 C13.94 371.98 13.11 377.46 12.06 382.94 C10.4 391.67 9.52 400.49 8.65 409.34 C7.14 424.11 7.14 424.11 4.56 426.69 C4.19 429.02 3.86 431.35 3.56 433.69 C4.22 434.02 4.88 434.35 5.56 434.69 C4.57 435.02 3.58 435.35 2.56 435.69 C2.35 439.83 2.35 439.83 3.56 443.69 C3.48 445.57 3.32 447.44 3.12 449.31 C3.02 450.32 2.92 451.32 2.82 452.35 C2.69 453.51 2.69 453.51 2.56 454.69 C1.9 454.69 1.24 454.69 0.56 454.69 C0.81 455.6 1.06 456.5 1.31 457.44 C1.56 460.69 1.56 460.69 -0.12 462.81 C-0.89 463.43 -1.65 464.05 -2.44 464.69 C-3.08 465.35 -3.72 466.01 -4.38 466.69 C-9.14 471.31 -13.69 475.61 -20.61 475.75 C-29.74 475.26 -29.74 475.26 -32.33 473.13 C-32.7 472.66 -33.06 472.18 -33.44 471.69 C-33.44 472.35 -33.44 473.01 -33.44 473.69 C-35.78 474.86 -37.38 474.9 -39.99 475.03 C-41.41 475.1 -41.41 475.1 -42.85 475.18 C-44.39 475.26 -44.39 475.26 -45.96 475.34 C-48.12 475.46 -50.27 475.58 -52.43 475.7 C-55.84 475.88 -59.25 476.06 -62.66 476.23 C-65.95 476.4 -69.23 476.59 -72.52 476.77 C-73.54 476.82 -74.56 476.87 -75.6 476.92 C-80.64 477.21 -84.34 477.45 -88.44 480.69 C-94.18 484.8 -99.16 487.21 -106.44 486.69 C-112.44 480.69 -112.44 480.69 -112.68 478.26 C-112.68 477.24 -112.68 476.22 -112.68 475.17 C-112.68 474.01 -112.69 472.86 -112.69 471.67 C-112.68 470.42 -112.68 469.17 -112.67 467.88 C-112.67 466.6 -112.67 465.32 -112.67 464 C-112.67 461.29 -112.66 458.58 -112.64 455.87 C-112.63 452.39 -112.62 448.91 -112.62 445.43 C-112.62 442.12 -112.61 438.81 -112.61 435.5 C-112.6 434.25 -112.6 433 -112.6 431.71 C-112.6 430.55 -112.59 429.4 -112.58 428.21 C-112.58 427.19 -112.58 426.17 -112.57 425.12 C-112.44 422.69 -112.44 422.69 -111.44 420.69 C-111.28 418.59 -111.16 416.48 -111.06 414.38 C-110.67 408.24 -109.62 402.59 -108.12 396.64 C-107.37 393.41 -107.04 390.28 -106.75 386.99 C-106.37 384.18 -105.63 381.54 -104.88 378.81 C-103.55 373.8 -103.36 369.47 -103.53 364.32 C-103.41 360.76 -102.32 357.8 -101.17 354.45 C-99.57 348.41 -99.44 341.92 -99.44 335.69 C-98.78 335.69 -98.12 335.69 -97.44 335.69 C-97.33 334.69 -97.22 333.7 -97.11 332.68 C-96.31 325.76 -95.37 318.99 -93.81 312.19 C-92.99 308.58 -92.27 305.32 -92.44 301.62 C-92.44 296.92 -91.36 292.89 -90.23 288.34 C-89.07 283 -88.48 277.65 -87.87 272.22 C-87.38 268.21 -86.77 264.61 -85.41 260.8 C-84.35 257.41 -84.03 254.36 -83.81 250.81 C-83.74 249.66 -83.66 248.51 -83.59 247.32 C-83.51 246.02 -83.51 246.02 -83.44 244.69 C-82.78 244.69 -82.12 244.69 -81.44 244.69 C-81.43 243.6 -81.43 242.51 -81.43 241.39 C-81.2 228.94 -79.57 216.83 -77.56 204.56 C-77.43 203.76 -77.3 202.96 -77.17 202.14 C-75.55 192.11 -73.66 182.34 -70.44 172.69 C-70.11 170.15 -69.82 167.63 -69.55 165.09 C-68.55 156.1 -67.12 147.22 -65.56 138.31 C-65.3 136.77 -65.03 135.22 -64.76 133.68 C-63.39 125.75 -61.92 117.86 -60.19 110 C-55.59 89.1 -55.24 68 -55.44 46.69 C-55.11 46.69 -54.78 46.69 -54.44 46.69 C-54.44 44.05 -54.44 41.41 -54.44 38.69 C-54.77 38.69 -55.1 38.69 -55.44 38.69 C-57.44 25.75 -57.44 25.75 -55.12 20.98 C-51.99 17.34 -49.05 15.14 -44.44 13.69 C-42.74 12.39 -41.07 11.06 -39.44 9.69 C-36.46 7.7 -34.01 6.99 -30.56 6.2 C-28.6 5.73 -26.67 5.15 -24.75 4.56 C-21.78 3.78 -19.48 3.5 -16.44 3.69 C-16.44 3.03 -16.44 2.37 -16.44 1.69 C-10.8 -0.31 -5.9 -0.39 0 0 Z M67.56 62.69 C65.13 65.12 64.82 66.77 63.94 70.08 C63.65 71.17 63.35 72.27 63.05 73.4 C62.74 74.57 62.44 75.73 62.12 76.94 C61.81 78.11 61.5 79.29 61.18 80.5 C59.26 87.78 57.5 95.05 56.07 102.44 C55.56 104.69 55.56 104.69 54.56 105.69 C54.28 107.9 54.07 110.12 53.88 112.34 C53.82 113.02 53.76 113.7 53.7 114.4 C53.57 115.86 53.44 117.32 53.32 118.79 C53 122.56 52.66 126.34 52.33 130.11 C52.26 130.86 52.2 131.6 52.13 132.36 C51.38 140.82 50.5 149.25 49.56 157.69 C53.27 157.69 54.5 156.65 57.56 154.62 C62.5 151.38 67.5 148.25 72.54 145.17 C73.21 144.68 73.88 144.19 74.56 143.69 C74.56 143.03 74.56 142.37 74.56 141.69 C75.55 141.38 75.55 141.38 76.56 141.06 C80.63 139.2 84.25 136.71 87.56 133.69 C87.56 133.03 87.56 132.37 87.56 131.69 C88.15 131.42 88.74 131.15 89.35 130.88 C96.46 127.05 102.37 119.06 105.38 111.69 C107.69 103.66 107.34 95.8 103.98 88.16 C101.49 83.81 98.29 80.03 94.56 76.69 C93.9 76.69 93.24 76.69 92.56 76.69 C92.56 76.03 92.56 75.37 92.56 74.69 C85.97 69.92 75.99 62.69 67.56 62.69 Z M158.56 94.69 C158.56 97 158.56 99.31 158.56 101.69 C158.89 101.69 159.22 101.69 159.56 101.69 C159.56 99.38 159.56 97.07 159.56 94.69 C159.23 94.69 158.9 94.69 158.56 94.69 Z M158.56 104.69 C158.56 108.32 158.56 111.95 158.56 115.69 C158.89 115.69 159.22 115.69 159.56 115.69 C159.56 112.06 159.56 108.43 159.56 104.69 C159.23 104.69 158.9 104.69 158.56 104.69 Z M153.56 129.69 C154.56 131.69 154.56 131.69 154.56 131.69 Z M0.56 444.69 C1.56 446.69 1.56 446.69 1.56 446.69 Z M-0.44 451.69 C0.56 453.69 0.56 453.69 0.56 453.69 Z M-1.44 454.69 C-0.44 458.69 -0.44 458.69 -0.44 458.69 Z M144.56 474.69 C148.56 475.69 148.56 475.69 148.56 475.69 Z " fill="#D58D06" transform="translate(112.4375,205.3125)"/>
<path d="M0 0 C1.32 0.33 2.64 0.66 4 1 C4.19 1.84 4.19 1.84 4.38 2.69 C5.53 7.55 5.53 7.55 8.62 11.25 C12.06 12.33 15.42 12.64 19 13 C19 17 19 17 17.38 19.31 C15 21 15 21 11.75 20.75 C10.84 20.5 9.93 20.25 9 20 C9 20.99 9 21.98 9 23 C7.68 23.33 6.36 23.66 5 24 C4.86 24.6 4.71 25.2 4.56 25.81 C4.11 27.56 3.57 29.29 3 31 C1.39 42.71 1.39 42.71 4.69 53.48 C7.07 55.03 9.34 56.01 12 57 C13.7 57.94 15.39 58.89 17.06 59.88 C18.37 60.59 19.68 61.3 21 62 C21 62.66 21 63.32 21 64 C21.7 64.13 22.4 64.26 23.12 64.4 C33.66 66.6 42.73 70.57 52 76 C53.42 76.79 53.42 76.79 54.88 77.59 C55.58 78.06 56.28 78.52 57 79 C57 79.66 57 80.32 57 81 C57.67 81.06 58.34 81.11 59.03 81.17 C63.2 82.33 66.08 84.66 69.5 87.25 C70.48 87.97 70.48 87.97 71.47 88.7 C74.43 90.9 77.08 93.08 79.68 95.7 C81.92 97.92 83.76 99.14 86.56 100.5 C90.35 102.49 92.52 104.46 95 108 C95.99 108.66 96.98 109.32 98 110 C98 110.66 98 111.32 98 112 C98.72 112.25 99.44 112.5 100.19 112.75 C104.27 114.56 107.15 117.13 110.25 120.31 C113.26 123.25 116.46 125.73 119.82 128.25 C122 130 122 130 123.83 131.91 C126.68 134.65 129.82 136.67 133.12 138.81 C134.48 139.7 135.84 140.6 137.2 141.49 C137.85 141.92 138.51 142.35 139.18 142.8 C141.49 144.32 143.75 145.9 146 147.5 C150.79 150.89 155.67 154.13 160.56 157.36 C163.71 159.44 166.79 161.57 169.83 163.8 C172.63 166.19 172.63 166.19 175 166 C175 166.66 175 167.32 175 168 C176.32 168.33 177.64 168.66 179 169 C179 169.66 179 170.32 179 171 C179.68 171.06 180.36 171.12 181.06 171.19 C184.29 172.08 186.4 173.61 189.06 175.61 C191.78 177.56 194.68 179.09 197.62 180.69 C202.72 183.5 207.67 186.58 212.64 189.61 C217.03 192.26 221.4 194.75 226 197 C227.36 197.74 228.71 198.49 230.06 199.25 C244.01 207.05 257.92 214.01 272.75 219.94 C273.64 220.29 274.52 220.65 275.43 221.01 C280.84 223.16 286.25 225.26 291.74 227.19 C293.98 227.99 296.17 228.87 298.38 229.75 C301.58 230.85 303.67 231.31 307 231 C307 231.66 307 232.32 307 233 C308.13 233.28 309.26 233.55 310.43 233.84 C311.91 234.21 313.39 234.57 314.88 234.94 C315.62 235.12 316.37 235.3 317.14 235.49 C322.77 236.89 322.77 236.89 325 238 C325.95 237.94 326.9 237.88 327.88 237.81 C331.46 237.75 334.27 238.67 337.62 239.88 C343.17 241.86 348.55 242.86 354.38 243.61 C357 244 357 244 359 245 C362.22 245.03 365.42 244.93 368.64 244.84 C372.18 245.01 374.68 245.81 378 247 C385.75 249.2 393.35 249.39 401.36 249.57 C402.3 249.6 403.24 249.63 404.21 249.66 C405.06 249.67 405.91 249.69 406.78 249.71 C409 250 409 250 412 252 C412.79 255.07 412.65 257.91 412 261 C410.38 263.52 408.55 265.42 406 267 C405.01 267 404.02 267 403 267 C402.67 267.99 402.34 268.98 402 270 C400.29 271.03 400.29 271.03 398 272 C397.14 272.4 396.28 272.8 395.4 273.22 C380.3 279.62 364.67 279.18 348.56 279.25 C347.78 279.26 347 279.26 346.19 279.27 C338.06 279.31 330.22 279.16 322.23 277.46 C319.34 276.86 316.51 276.72 313.56 276.62 C307.42 276.25 301.53 275.27 295.5 274.06 C294.65 273.89 293.8 273.72 292.93 273.55 C288.5 272.62 284.27 271.51 280 270 C278.21 269.45 276.42 268.91 274.62 268.38 C273.75 268.11 272.88 267.85 271.98 267.59 C271.32 267.39 270.67 267.2 270 267 C270 266.34 270 265.68 270 265 C268.48 265.09 268.48 265.09 266.94 265.19 C263.3 265.01 261.25 264.37 258.03 262.84 C255.67 261.86 253.37 261.36 250.88 260.81 C244.81 259.37 239.07 257.28 233.25 255.06 C232.36 254.73 231.48 254.39 230.56 254.04 C225.82 252.21 221.27 250.19 216.76 247.86 C214.44 246.73 212.07 245.92 209.62 245.12 C204.03 243.15 198.74 240.6 194 237 C194 236.34 194 235.68 194 235 C192.73 234.86 192.73 234.86 191.43 234.72 C187.55 233.91 184.48 232.36 181.06 230.44 C179.74 229.71 178.41 228.98 177.08 228.25 C176.41 227.88 175.73 227.5 175.04 227.12 C173.06 226.03 171.07 224.98 169.07 223.94 C162.39 220.45 155.95 216.79 149.63 212.66 C143.34 208.68 136.69 205.26 130 202 C130 201.34 130 200.68 130 200 C129.11 199.82 129.11 199.82 128.21 199.63 C124.58 198.59 121.73 196.23 118.69 194.06 C117.25 193.05 115.81 192.05 114.37 191.04 C113.64 190.53 112.91 190.02 112.16 189.49 C109.53 187.67 106.86 185.91 104.18 184.16 C97.61 179.86 91.33 175.31 85.16 170.46 C82.99 168.76 80.79 167.1 78.56 165.48 C77.73 164.87 77.73 164.87 76.88 164.25 C75.34 163.13 73.8 162.02 72.27 160.91 C70 159 70 159 69 156 C68.01 156 67.02 156 66 156 C66 155.34 66 154.68 66 154 C65.3 153.77 64.61 153.53 63.89 153.29 C60.47 151.76 57.72 149.69 54.81 147.38 C54.24 146.93 53.67 146.48 53.08 146.02 C48.9 142.74 44.75 139.41 40.61 136.08 C37.51 133.61 34.39 131.17 31.25 128.75 C30.72 128.34 30.19 127.93 29.64 127.5 C26.19 124.84 22.63 122.41 19 120 C18 119 17 118 16 117 C15.34 116.61 14.69 116.22 14.01 115.82 C8.8 112.67 3.86 109.12 -1.14 105.65 C-1.96 105.08 -2.78 104.52 -3.63 103.93 C-4.37 103.42 -5.12 102.9 -5.88 102.37 C-10.32 99.5 -13.6 98.64 -18.93 98.15 C-19.94 98.05 -19.94 98.05 -20.98 97.96 C-22.4 97.82 -23.83 97.69 -25.26 97.57 C-27.4 97.38 -29.54 97.17 -31.68 96.97 C-43.32 95.88 -54.78 94.99 -66.25 97.69 C-67.45 97.96 -67.45 97.96 -68.67 98.23 C-71.12 98.8 -73.56 99.39 -76 100 C-77.16 100.29 -77.16 100.29 -78.35 100.58 C-86.31 102.61 -93.49 104.84 -100.39 109.45 C-104.36 111.81 -108.6 113.37 -112.91 115 C-115.88 116.12 -118.34 117.23 -121 119 C-123.19 118.62 -123.19 118.62 -125 118 C-125 118.66 -125 119.32 -125 120 C-129.37 121.7 -133.39 123.11 -138 124 C-139.57 124.45 -141.13 124.91 -142.69 125.38 C-149.99 127.4 -157.43 128.48 -164.91 129.66 C-167.74 130.12 -170.56 130.61 -173.38 131.12 C-174.19 131.27 -175 131.42 -175.84 131.57 C-177.96 131.96 -177.96 131.96 -179.82 132.53 C-182.34 133.07 -184.81 133.19 -187.38 133.29 C-199.33 133.78 -210.02 136.25 -221 141 C-223.77 142.15 -226.54 143.3 -229.31 144.44 C-230.04 144.74 -230.78 145.04 -231.53 145.36 C-236.01 147.21 -240.52 148.98 -245.06 150.69 C-249.11 152.23 -252.96 153.91 -256.8 155.91 C-264.04 159.5 -271.61 162.51 -279.19 165.31 C-285.7 167.77 -291.92 170.75 -298.18 173.76 C-302.99 176.07 -307.8 178.21 -312.77 180.12 C-320.03 182.98 -326.99 186.48 -333.94 190 C-339.62 192.88 -345.34 195.52 -351.25 197.89 C-358.14 200.66 -364.67 203.81 -371.21 207.3 C-374.95 209.23 -377.68 210.51 -382 210 C-382 210.66 -382 211.32 -382 212 C-382.59 212.25 -383.18 212.51 -383.79 212.77 C-384.58 213.11 -385.37 213.46 -386.19 213.81 C-386.96 214.15 -387.74 214.49 -388.54 214.83 C-391.04 215.97 -391.04 215.97 -393.42 217.48 C-396.25 219.15 -399.05 220.29 -402.12 221.44 C-403.84 222.08 -403.84 222.08 -405.59 222.74 C-406.72 223.15 -407.84 223.57 -409 224 C-409.96 224.36 -410.92 224.73 -411.91 225.11 C-417.38 227.16 -422.85 228.81 -428.5 230.27 C-430.71 230.92 -432.63 231.69 -434.69 232.69 C-438.11 234.04 -440.22 234.21 -443.81 233.91 C-446.22 233.92 -446.22 233.92 -449.29 234.94 C-453.05 236.01 -456.55 236.48 -460.44 236.88 C-471.45 238.12 -482.17 240.54 -492.38 244.93 C-495.72 246.29 -499.13 247.39 -502.56 248.5 C-509.34 250.71 -515.72 253.33 -522.06 256.56 C-528.05 259.49 -534.39 261.5 -540.69 263.62 C-541.33 263.84 -541.97 264.06 -542.63 264.29 C-546.06 265.43 -549.43 266.39 -553 267 C-553 267.66 -553 268.32 -553 269 C-556.91 270.46 -560.81 271.93 -564.72 273.39 C-565.43 273.66 -566.14 273.93 -566.87 274.2 C-568.27 274.72 -569.66 275.25 -571.06 275.77 C-575.46 277.41 -579.83 279.12 -584.19 280.88 C-588.94 282.79 -593.71 284.67 -598.5 286.5 C-603.25 288.32 -607.97 290.17 -612.69 292.06 C-613.32 292.31 -613.96 292.57 -614.61 292.83 C-617.38 293.93 -620.13 295.06 -622.86 296.27 C-628.54 298.77 -632.78 299.4 -639 299 C-639.5 297.51 -639.5 297.51 -640 296 C-640.66 296 -641.32 296 -642 296 C-641.67 295.34 -641.34 294.68 -641 294 C-640.34 293.86 -639.68 293.71 -639 293.56 C-638.34 293.38 -637.68 293.19 -637 293 C-636.67 292.01 -636.34 291.02 -636 290 C-635.01 290 -634.02 290 -633 290 C-632.53 289.5 -632.05 289.01 -631.56 288.5 C-630 287 -630 287 -626 287 C-626 286.01 -626 285.02 -626 284 C-625.15 283.69 -624.31 283.37 -623.44 283.05 C-615.84 280.2 -615.84 280.2 -608.5 276.75 C-605 275 -605 275 -602.12 274.5 C-599.8 274.21 -599.8 274.21 -598.69 271.94 C-598.46 271.3 -598.23 270.66 -598 270 C-597.01 270 -596.02 270 -595 270 C-595 269.67 -595 269.34 -595 269 C-593.02 269 -591.04 269 -589 269 C-588.67 268.01 -588.34 267.02 -588 266 C-583.46 263.36 -578.13 263.38 -573 263 C-573 262.34 -573 261.68 -573 261 C-572.03 260.88 -571.06 260.75 -570.06 260.62 C-568.55 260.32 -568.55 260.32 -567 260 C-566.67 259.34 -566.34 258.68 -566 258 C-564.18 257.22 -564.18 257.22 -561.88 256.5 C-561.07 256.24 -560.26 255.99 -559.42 255.72 C-557.33 255.1 -555.23 254.51 -553.12 253.94 C-549.88 253.13 -549.88 253.13 -547 251 C-545.68 251 -544.36 251 -543 251 C-542.67 250.34 -542.34 249.68 -542 249 C-540.21 248.4 -538.41 247.83 -536.59 247.32 C-535.71 247.07 -534.84 246.82 -533.94 246.56 C-532.62 246.19 -532.62 246.19 -531.28 245.82 C-528.84 245.13 -528.84 245.13 -527 243 C-526.67 243.33 -526.34 243.66 -526 244 C-523.88 243.79 -523.88 243.79 -521.5 243.25 C-520.69 243.09 -519.87 242.93 -519.03 242.77 C-518.36 242.51 -517.69 242.26 -517 242 C-516.67 241.01 -516.34 240.02 -516 239 C-513.97 238.34 -513.97 238.34 -511.5 237.94 C-509.09 237.57 -509.09 237.57 -507 237 C-506.67 236.34 -506.34 235.68 -506 235 C-504.01 234.6 -502.01 234.28 -500 234 C-498.66 233.68 -497.33 233.36 -496 233 C-496 232.34 -496 231.68 -496 231 C-494.58 230.78 -494.58 230.78 -493.12 230.56 C-490.11 230.17 -490.11 230.17 -488 229 C-487.67 228.34 -487.34 227.68 -487 227 C-487 227.66 -487 228.32 -487 229 C-486.18 228.59 -485.35 228.18 -484.5 227.75 C-483.35 227.17 -482.19 226.6 -481 226 C-480.3 225.64 -479.61 225.28 -478.89 224.91 C-478.18 224.55 -477.48 224.19 -476.75 223.81 C-476.08 223.47 -475.42 223.12 -474.73 222.77 C-473 222 -473 222 -471 222 C-470.67 221.34 -470.34 220.68 -470 220 C-467.68 219.3 -465.34 218.64 -463 218 C-462.34 217.63 -461.68 217.26 -461 216.88 C-458.02 215.57 -455.21 215.88 -452 216 C-451.67 215.01 -451.34 214.02 -451 213 C-450.01 213.33 -449.02 213.66 -448 214 C-447.67 213.34 -447.34 212.68 -447 212 C-447 212.66 -447 213.32 -447 214 C-446.35 213.72 -445.7 213.45 -445.02 213.16 C-440.36 211.23 -436.07 209.53 -431 209 C-430.67 207.68 -430.34 206.36 -430 205 C-429.34 205 -428.68 205 -428 205 C-425.96 204.68 -423.91 204.35 -421.88 204 C-420.78 203.81 -419.68 203.63 -418.55 203.44 C-417.29 203.22 -417.29 203.22 -416 203 C-416 202.34 -416 201.68 -416 201 C-415 200.73 -415 200.73 -413.99 200.45 C-409.19 199.08 -405.26 197.63 -401 195 C-399.68 195 -398.36 195 -397 195 C-396.67 194.34 -396.34 193.68 -396 193 C-395.34 193 -394.68 193 -394 193 C-393.34 192.34 -392.68 191.68 -392 191 C-391.01 191.33 -390.02 191.66 -389 192 C-389 191.34 -389 190.68 -389 190 C-387.35 190 -385.7 190 -384 190 C-383.67 189.01 -383.34 188.02 -383 187 C-383 187.66 -383 188.32 -383 189 C-379.88 187.69 -379.88 187.69 -378 185 C-376.19 184.44 -376.19 184.44 -374 184 C-369.82 183.06 -366.09 182.09 -363 179 C-362.15 178.88 -361.31 178.75 -360.44 178.62 C-356.64 177.93 -353.66 176.6 -350.18 174.98 C-347.51 173.78 -344.78 172.9 -342 172 C-341.36 171.65 -340.72 171.3 -340.06 170.94 C-337.13 169.6 -334.18 169.37 -331 169 C-331 168.34 -331 167.68 -331 167 C-330.45 166.81 -329.89 166.61 -329.32 166.41 C-328.6 166.15 -327.87 165.89 -327.12 165.62 C-326.41 165.37 -325.69 165.11 -324.95 164.85 C-322.82 164.06 -322.82 164.06 -321 162 C-320.11 161.86 -319.23 161.71 -318.31 161.56 C-315.57 161.1 -313.79 160.56 -311.31 159.44 C-308 158 -308 158 -305 158 C-305 157.34 -305 156.68 -305 156 C-301.49 154.4 -298.86 153.78 -295 154 C-295 153.34 -295 152.68 -295 152 C-293.35 152 -291.7 152 -290 152 C-289.67 151.34 -289.34 150.68 -289 150 C-288.34 149.67 -287.68 149.34 -287 149 C-286.01 149.33 -285.02 149.66 -284 150 C-283.67 149.34 -283.34 148.68 -283 148 C-281.04 147.16 -279.04 146.53 -277.01 145.88 C-274.8 144.91 -273.58 143.79 -272 142 C-271.34 142.33 -270.68 142.66 -270 143 C-268.06 142.53 -268.06 142.53 -266 141.69 C-265.3 141.42 -264.6 141.16 -263.88 140.89 C-261.82 140.04 -261.82 140.04 -260 138 C-258.33 138 -256.67 138 -255 138 C-253.51 137.01 -253.51 137.01 -252 136 C-251.34 136.33 -250.68 136.66 -250 137 C-249.67 136.01 -249.34 135.02 -249 134 C-245.4 132.48 -242.95 132 -239 132 C-238.67 131.34 -238.34 130.68 -238 130 C-236.68 129.61 -235.34 129.29 -234 129 C-232.1 128.35 -230.2 127.69 -228.31 127 C-227.34 126.65 -226.37 126.3 -225.36 125.94 C-223.08 125.21 -223.08 125.21 -222 124 C-220.33 123.96 -218.67 123.96 -217 124 C-217 123.34 -217 122.68 -217 122 C-217.66 121.67 -218.32 121.34 -219 121 C-218.38 121.21 -217.76 121.41 -217.12 121.62 C-216.42 121.75 -215.72 121.87 -215 122 C-214.34 121.34 -213.68 120.68 -213 120 C-210.37 119.38 -210.37 119.38 -208 119 C-208 118.01 -208 117.02 -208 116 C-207.07 116.19 -206.14 116.37 -205.19 116.56 C-201.99 117.24 -201.99 117.24 -199 116 C-199 115.34 -199 114.68 -199 114 C-198.04 113.93 -198.04 113.93 -197.07 113.85 C-195.83 113.74 -195.83 113.74 -194.56 113.62 C-193.74 113.56 -192.92 113.49 -192.07 113.41 C-191.38 113.28 -190.7 113.14 -190 113 C-189.67 112.34 -189.34 111.68 -189 111 C-186.44 110.38 -186.44 110.38 -184 110 C-184 109.67 -184 109.34 -184 109 C-183.07 108.71 -182.14 108.42 -181.19 108.12 C-177.9 107.11 -177.9 107.11 -175 105 C-171.68 104.62 -168.37 104.49 -165.03 104.34 C-161.83 104.21 -161.83 104.21 -159 102 C-156.12 101.59 -156.12 101.59 -152.88 101.38 C-151.26 101.26 -151.26 101.26 -149.62 101.15 C-147 101 -147 101 -146 101 C-144.51 100.5 -144.51 100.5 -143 100 C-141 99.65 -139 99.31 -137 99 C-137 98.67 -137 98.34 -137 98 C-136.25 98.02 -135.5 98.05 -134.73 98.07 C-133.75 98.09 -132.76 98.11 -131.75 98.12 C-130.78 98.15 -129.8 98.17 -128.8 98.2 C-125.94 98 -124.43 97.44 -122 96 C-118.11 94.16 -115.26 94 -111 94 C-110.34 93.34 -109.68 92.68 -109 92 C-106.76 91.66 -106.76 91.66 -104.12 91.5 C-100.53 91.29 -98.15 90.75 -95 89 C-91.97 87.95 -88.93 86.98 -85.88 86 C-83.12 85.11 -83.12 85.11 -81.1 84.03 C-78.24 82.63 -75.27 81.79 -72.22 80.88 C-69.76 79.9 -68.11 78.6 -66 77 C-57.9 72.61 -49.74 68.91 -41 66 C-40.34 66.33 -39.68 66.66 -39 67 C-39 66.34 -39 65.68 -39 65 C-33.33 62.16 -27.61 60.96 -21.4 59.75 C-17.43 58.88 -13.64 57.82 -10 56 C-9.67 55.01 -9.34 54.02 -9 53 C-7.02 53.33 -5.04 53.66 -3 54 C-3.33 53.01 -3.66 52.02 -4 51 C-4.07 49.27 -4.08 47.54 -4.06 45.82 C-4.05 44.81 -4.05 43.8 -4.04 42.76 C-4.01 40.63 -3.99 38.51 -3.96 36.38 C-3.95 35.37 -3.95 34.36 -3.94 33.32 C-3.92 31.93 -3.92 31.93 -3.9 30.52 C-3.99 28.16 -4.21 26.22 -5 24 C-6.91 22.93 -6.91 22.93 -9.25 22.38 C-10.06 22.13 -10.87 21.89 -11.7 21.64 C-12.46 21.43 -13.22 21.22 -14 21 C-17 20.06 -17 20.06 -19 19 C-19.69 16.94 -19.69 16.94 -20 15 C-20.66 14.67 -21.32 14.34 -22 14 C-21.11 13.87 -20.22 13.73 -19.3 13.6 C-18.13 13.42 -16.96 13.24 -15.75 13.06 C-14.59 12.89 -13.43 12.71 -12.23 12.54 C-9.77 12.13 -7.41 11.66 -5 11 C-4.92 10.48 -4.84 9.97 -4.75 9.44 C-3.68 5.96 -1.86 3.13 0 0 Z M1 31 C1 37.27 1 43.54 1 50 C1.33 50 1.66 50 2 50 C2 43.73 2 37.46 2 31 C1.67 31 1.34 31 1 31 Z M-175 106 C-175 106.33 -175 106.66 -175 107 C-172.69 107 -170.38 107 -168 107 C-168 106.67 -168 106.34 -168 106 C-170.31 106 -172.62 106 -175 106 Z " fill="#D58E06" transform="translate(868,163)"/>
<path d="M0 0 C-0.14 3.06 -0.29 6.13 -0.44 9.19 C-0.48 10.05 -0.52 10.92 -0.56 11.81 C-0.62 13.07 -0.62 13.07 -0.68 14.36 C-0.72 15.13 -0.76 15.9 -0.79 16.69 C-1 19 -1 19 -1.51 21.4 C-2.07 24.38 -2.11 27.15 -2.1 30.18 C-2.09 31.33 -2.09 32.49 -2.09 33.68 C-2.08 34.88 -2.07 36.08 -2.06 37.31 C-2.06 38.53 -2.05 39.75 -2.05 41 C-2.04 44 -2.02 47 -2 50 C-2.66 49.67 -3.32 49.34 -4 49 C-4.08 42.5 -4.13 36.01 -4.16 29.51 C-4.18 27.3 -4.2 25.09 -4.23 22.88 C-4.26 19.7 -4.28 16.53 -4.29 13.36 C-4.31 12.36 -4.32 11.37 -4.34 10.35 C-4.34 9.43 -4.34 8.51 -4.34 7.56 C-4.35 6.75 -4.35 5.94 -4.36 5.11 C-3.97 2.8 -2.74 0 0 0 Z " fill="#74624D" transform="translate(4,625)"/>
<path d="M0 0 C0.71 0.04 1.42 0.07 2.16 0.11 C6.2 0.36 9.53 0.93 13.19 2.69 C13.19 3.02 13.19 3.35 13.19 3.69 C12.62 3.65 12.05 3.62 11.46 3.58 C8.89 3.42 6.32 3.27 3.75 3.12 C2.4 3.04 2.4 3.04 1.03 2.96 C-0.25 2.88 -0.25 2.88 -1.56 2.81 C-2.74 2.74 -2.74 2.74 -3.95 2.67 C-5.83 2.47 -5.83 2.47 -6.81 3.69 C-9.48 3.83 -12.14 3.73 -14.81 3.69 C-14.81 3.36 -14.81 3.03 -14.81 2.69 C-13.16 2.69 -11.51 2.69 -9.81 2.69 C-9.81 2.03 -9.81 1.37 -9.81 0.69 C-6.67 -0.88 -3.42 -0.22 0 0 Z " fill="#8A6A38" transform="translate(111.8125,205.3125)"/>
<path d="M0 0 C0.33 0 0.66 0 1 0 C1 3.96 1 7.92 1 12 C0.67 12 0.34 12 0 12 C0 8.04 0 4.08 0 0 Z " fill="#CAA151" transform="translate(302,554)"/>
<path d="M0 0 C3.3 0 6.6 0 10 0 C10 0.33 10 0.66 10 1 C6.7 1 3.4 1 0 1 C0 0.67 0 0.34 0 0 Z " fill="#D68E06" transform="translate(576,437)"/>
<path d="M0 0 C0.33 0 0.66 0 1 0 C1 2.64 1 5.28 1 8 C0.67 8 0.34 8 0 8 C0 5.36 0 2.72 0 0 Z " fill="#685A50" transform="translate(1102,619)"/>
<path d="M0 0 C2.64 0 5.28 0 8 0 C8 0.33 8 0.66 8 1 C5.36 1 2.72 1 0 1 C0 0.67 0 0.34 0 0 Z " fill="#D68E06" transform="translate(1257,411)"/>
<path d="M0 0 C2.31 0 4.62 0 7 0 C7 0.33 7 0.66 7 1 C4.69 1 2.38 1 0 1 C0 0.67 0 0.34 0 0 Z " fill="#685A50" transform="translate(878,663)"/>
<path d="M0 0 C0.33 0 0.66 0 1 0 C1 2.31 1 4.62 1 7 C0.67 7 0.34 7 0 7 C0 4.69 0 2.38 0 0 Z " fill="#D68E06" transform="translate(648,515)"/>
<path d="M0 0 C0.33 0 0.66 0 1 0 C1 1.98 1 3.96 1 6 C0.67 6 0.34 6 0 6 C0 4.02 0 2.04 0 0 Z " fill="#685A50" transform="translate(117,632)"/>
<path d="M0 0 C0.33 0 0.66 0 1 0 C1 1.98 1 3.96 1 6 C0.67 6 0.34 6 0 6 C0 4.02 0 2.04 0 0 Z " fill="#857869" transform="translate(302,540)"/>
<path d="M0 0 C1.98 0 3.96 0 6 0 C6 0.33 6 0.66 6 1 C4.02 1 2.04 1 0 1 C0 0.67 0 0.34 0 0 Z " fill="#BFB49D" transform="translate(665,462)"/>
<path d="M0 0 C0.33 0 0.66 0 1 0 C1 1.65 1 3.3 1 5 C0.67 5 0.34 5 0 5 C0 3.35 0 1.7 0 0 Z " fill="#685A50" transform="translate(115,641)"/>
<path d="M0 0 C0.33 0 0.66 0 1 0 C1 1.65 1 3.3 1 5 C0.67 5 0.34 5 0 5 C0 3.35 0 1.7 0 0 Z " fill="#D68E06" transform="translate(1107,639)"/>
<path d="M0 0 C0.33 0 0.66 0 1 0 C1 1.65 1 3.3 1 5 C0.67 5 0.34 5 0 5 C0 3.35 0 1.7 0 0 Z " fill="#D68E06" transform="translate(644,541)"/>
<path d="M0 0 C1.65 0 3.3 0 5 0 C5 0.33 5 0.66 5 1 C3.35 1 1.7 1 0 1 C0 0.67 0 0.34 0 0 Z " fill="#D68E06" transform="translate(875,452)"/>
<path d="M0 0 C1.65 0 3.3 0 5 0 C5 0.33 5 0.66 5 1 C3.35 1 1.7 1 0 1 C0 0.67 0 0.34 0 0 Z " fill="#D68E06" transform="translate(413,413)"/>
<path d="M0 0 C1.65 0 3.3 0 5 0 C5 0.33 5 0.66 5 1 C3.35 1 1.7 1 0 1 C0 0.67 0 0.34 0 0 Z " fill="#ECD09A" transform="translate(879,174)"/>
<path d="M0 0 C4 1 4 1 4 1 Z " fill="#685A50" transform="translate(1017,646)"/>
<path d="M0 0 C1 4 1 4 1 4 Z " fill="#D68E06" transform="translate(637,587)"/>
<path d="M0 0 C1 4 1 4 1 4 Z " fill="#D68E06" transform="translate(1098,575)"/>
<path d="M0 0 C4 1 4 1 4 1 Z " fill="#D68E06" transform="translate(640,467)"/>
<path d="M0 0 C1.48 0.99 1.48 0.99 3 2 C2.01 2 1.02 2 0 2 C0 1.34 0 0.68 0 0 Z " fill="#D68E06" transform="translate(1230,406)"/>
<path d="M0 0 C0.33 0.66 0.66 1.32 1 2 C0.34 1.67 -0.32 1.34 -1 1 C-0.67 0.67 -0.34 0.34 0 0 Z " fill="#D68E06" transform="translate(919,616)"/>
<path d="M0 0 C0.33 0.66 0.66 1.32 1 2 C0.34 1.67 -0.32 1.34 -1 1 C-0.67 0.67 -0.34 0.34 0 0 Z " fill="#D68E06" transform="translate(1236,542)"/>
<path d="" fill="#D68E06" transform="translate(0,0)"/>
<path d="M0 0 C0.99 0.5 0.99 0.5 2 1 C1.01 1.5 1.01 1.5 0 2 C0 1.34 0 0.68 0 0 Z " fill="#D68E06" transform="translate(607,494)"/>
<path d="M0 0 C0.99 0.5 0.99 0.5 2 1 C1.01 1.5 1.01 1.5 0 2 C0 1.34 0 0.68 0 0 Z " fill="#D68E06" transform="translate(818,487)"/>
<path d="M0 0 C3 1 3 1 3 1 Z " fill="#D68E06" transform="translate(613,487)"/>
<path d="M0 0 C0.33 0.66 0.66 1.32 1 2 C0.34 1.67 -0.32 1.34 -1 1 C-0.67 0.67 -0.34 0.34 0 0 Z " fill="#D68E06" transform="translate(827,479)"/>
<path d="M0 0 C0.99 0.5 0.99 0.5 2 1 C1.01 1.5 1.01 1.5 0 2 C0 1.34 0 0.68 0 0 Z " fill="#D68E06" transform="translate(337,463)"/>
<path d="" fill="#D68E06" transform="translate(0,0)"/>
<path d="M0 0 C3 1 3 1 3 1 Z " fill="#D68E06" transform="translate(568,437)"/>
<path d="M0 0 C0.99 0.5 0.99 0.5 2 1 C1.01 1.5 1.01 1.5 0 2 C0 1.34 0 0.68 0 0 Z " fill="#D68E06" transform="translate(382,422)"/>
<path d="M0 0 C3 1 3 1 3 1 Z " fill="#D68E06" transform="translate(556,320)"/>
<path d="M0 0 C2 1 2 1 2 1 Z " fill="#685A50" transform="translate(534,642)"/>
<path d="" fill="#D68E06" transform="translate(0,0)"/>
<path d="M0 0 C2 1 2 1 2 1 Z " fill="#D68E06" transform="translate(931,610)"/>
<path d="M0 0 C2 1 2 1 2 1 Z " fill="#D68E06" transform="translate(636,595)"/>
<path d="" fill="#D68E06" transform="translate(0,0)"/>
<path d="M0 0 C2 1 2 1 2 1 Z " fill="#D68E06" transform="translate(1212,578)"/>
<path d="M0 0 C2 1 2 1 2 1 Z " fill="#D68E06" transform="translate(1214,574)"/>
<path d="" fill="#D68E06" transform="translate(0,0)"/>
<path d="M0 0 C2 1 2 1 2 1 Z " fill="#D68E06" transform="translate(592,513)"/>
<path d="" fill="#D68E06" transform="translate(0,0)"/>
<path d="" fill="#D68E06" transform="translate(0,0)"/>
<path d="M0 0 C2 1 2 1 2 1 Z " fill="#D68E06" transform="translate(618,483)"/>
<path d="M0 0 C2 1 2 1 2 1 Z " fill="#D68E06" transform="translate(1045,481)"/>
<path d="" fill="#D68E06" transform="translate(0,0)"/>
<path d="M0 0 C2 1 2 1 2 1 Z " fill="#D68E06" transform="translate(828,478)"/>
<path d="M0 0 C2 1 2 1 2 1 Z " fill="#D68E06" transform="translate(833,474)"/>
<path d="" fill="#D68E06" transform="translate(0,0)"/>
<path d="" fill="#D68E06" transform="translate(0,0)"/>
<path d="" fill="#D68E06" transform="translate(0,0)"/>
<path d="M0 0 C2 1 2 1 2 1 Z " fill="#D68E06" transform="translate(1097,448)"/>
<path d="M0 0 C2 1 2 1 2 1 Z " fill="#D68E06" transform="translate(1125,447)"/>
<path d="M0 0 C2 1 2 1 2 1 Z " fill="#D68E06" transform="translate(1121,447)"/>
<path d="M0 0 C2 1 2 1 2 1 Z " fill="#D68E06" transform="translate(894,447)"/>
<path d="M0 0 C2 1 2 1 2 1 Z " fill="#D68E06" transform="translate(589,437)"/>
<path d="M0 0 C2 1 2 1 2 1 Z " fill="#D68E06" transform="translate(408,413)"/>
<path d="" fill="#D68E06" transform="translate(0,0)"/>
<path d="" fill="#D68E06" transform="translate(0,0)"/>
<path d="M0 0 C2 1 2 1 2 1 Z " fill="#D68E06" transform="translate(468,356)"/>
<path d="" fill="#DDD8CD" transform="translate(0,0)"/>
<path d="" fill="#685A50" transform="translate(0,0)"/>
<path d="M0 0 C2 1 2 1 2 1 Z " fill="#D68E06" transform="translate(589,307)"/>
<path d="" fill="#D68E06" transform="translate(0,0)"/>
<path d="M0 0 C2 1 2 1 2 1 Z " fill="#D68E06" transform="translate(706,265)"/>
<path d="M0 0 C2 1 2 1 2 1 Z " fill="#D68E06" transform="translate(898,228)"/>
<path d="" fill="#FBFDFD" transform="translate(0,0)"/>
<path d="M0 0 C2 1 2 1 2 1 Z " fill="#FBFDFD" transform="translate(849,174)"/>
<path d="" fill="#BFB49D" transform="translate(0,0)"/>
<path d="" fill="#FBFDFD" transform="translate(0,0)"/>
<path d="" fill="#FBFDFD" transform="translate(0,0)"/>
<path d="" fill="#FBFDFD" transform="translate(0,0)"/>
<path d="" fill="#BFB49D" transform="translate(0,0)"/>
<path d="" fill="#BFB49D" transform="translate(0,0)"/>
<path d="" fill="#BFB49D" transform="translate(0,0)"/>
<path d="" fill="#BFB49D" transform="translate(0,0)"/>
<path d="" fill="#BFB49D" transform="translate(0,0)"/>
<path d="" fill="#BFB49D" transform="translate(0,0)"/>
<path d="" fill="#D68E06" transform="translate(0,0)"/>
<path d="" fill="#D68E06" transform="translate(0,0)"/>
<path d="" fill="#D68E06" transform="translate(0,0)"/>
<path d="" fill="#D68E06" transform="translate(0,0)"/>
<path d="" fill="#D68E06" transform="translate(0,0)"/>
<path d="" fill="#D68E06" transform="translate(0,0)"/>
<path d="" fill="#D68E06" transform="translate(0,0)"/>
<path d="" fill="#BFB49D" transform="translate(0,0)"/>
<path d="" fill="#FBFDFD" transform="translate(0,0)"/>
<path d="" fill="#BFB49D" transform="translate(0,0)"/>
<path d="" fill="#D68E06" transform="translate(0,0)"/>
<path d="" fill="#BFB49D" transform="translate(0,0)"/>
<path d="" fill="#BFB49D" transform="translate(0,0)"/>
<path d="" fill="#D68E06" transform="translate(0,0)"/>
<path d="" fill="#BFB49D" transform="translate(0,0)"/>
<path d="" fill="#D68E06" transform="translate(0,0)"/>
<path d="" fill="#BFB49D" transform="translate(0,0)"/>
<path d="" fill="#D68E06" transform="translate(0,0)"/>
<path d="" fill="#BFB49D" transform="translate(0,0)"/>
<path d="" fill="#D68E06" transform="translate(0,0)"/>
<path d="" fill="#D68E06" transform="translate(0,0)"/>
<path d="" fill="#BFB49D" transform="translate(0,0)"/>
<path d="" fill="#BFB49D" transform="translate(0,0)"/>
<path d="" fill="#D68E06" transform="translate(0,0)"/>
<path d="" fill="#BFB49D" transform="translate(0,0)"/>
<path d="" fill="#D68E06" transform="translate(0,0)"/>
<path d="" fill="#D68E06" transform="translate(0,0)"/>
<path d="" fill="#D68E06" transform="translate(0,0)"/>
<path d="" fill="#BFB49D" transform="translate(0,0)"/>
<path d="" fill="#BFB49D" transform="translate(0,0)"/>
<path d="" fill="#D68E06" transform="translate(0,0)"/>
<path d="" fill="#D68E06" transform="translate(0,0)"/>
<path d="" fill="#D68E06" transform="translate(0,0)"/>
<path d="" fill="#D68E06" transform="translate(0,0)"/>
<path d="" fill="#D68E06" transform="translate(0,0)"/>
<path d="" fill="#D68E06" transform="translate(0,0)"/>
<path d="" fill="#D68E06" transform="translate(0,0)"/>
<path d="" fill="#D68E06" transform="translate(0,0)"/>
<path d="" fill="#D68E06" transform="translate(0,0)"/>
<path d="" fill="#D68E06" transform="translate(0,0)"/>
<path d="" fill="#D68E06" transform="translate(0,0)"/>
<path d="" fill="#D68E06" transform="translate(0,0)"/>
<path d="" fill="#D68E06" transform="translate(0,0)"/>
<path d="" fill="#D68E06" transform="translate(0,0)"/>
<path d="" fill="#D68E06" transform="translate(0,0)"/>
<path d="" fill="#D68E06" transform="translate(0,0)"/>
<path d="" fill="#D68E06" transform="translate(0,0)"/>
<path d="" fill="#D68E06" transform="translate(0,0)"/>
<path d="" fill="#D68E06" transform="translate(0,0)"/>
<path d="" fill="#D68E06" transform="translate(0,0)"/>
<path d="" fill="#D68E06" transform="translate(0,0)"/>
<path d="" fill="#D68E06" transform="translate(0,0)"/>
<path d="" fill="#D68E06" transform="translate(0,0)"/>
<path d="" fill="#D68E06" transform="translate(0,0)"/>
<path d="" fill="#D68E06" transform="translate(0,0)"/>
<path d="" fill="#D68E06" transform="translate(0,0)"/>
<path d="" fill="#D68E06" transform="translate(0,0)"/>
<path d="" fill="#D68E06" transform="translate(0,0)"/>
<path d="" fill="#685A50" transform="translate(0,0)"/>
<path d="" fill="#D68E06" transform="translate(0,0)"/>
<path d="" fill="#D68E06" transform="translate(0,0)"/>
<path d="" fill="#D68E06" transform="translate(0,0)"/>
<path d="" fill="#D68E06" transform="translate(0,0)"/>
<path d="" fill="#D68E06" transform="translate(0,0)"/>
<path d="" fill="#D68E06" transform="translate(0,0)"/>
<path d="" fill="#D68E06" transform="translate(0,0)"/>
<path d="" fill="#D68E06" transform="translate(0,0)"/>
<path d="" fill="#D68E06" transform="translate(0,0)"/>
<path d="" fill="#D68E06" transform="translate(0,0)"/>
<path d="" fill="#D68E06" transform="translate(0,0)"/>
<path d="" fill="#D68E06" transform="translate(0,0)"/>
<path d="" fill="#D68E06" transform="translate(0,0)"/>
<path d="" fill="#D68E06" transform="translate(0,0)"/>
<path d="" fill="#D68E06" transform="translate(0,0)"/>
<path d="" fill="#D68E06" transform="translate(0,0)"/>
<path d="" fill="#D68E06" transform="translate(0,0)"/>
<path d="" fill="#D68E06" transform="translate(0,0)"/>
<path d="" fill="#D68E06" transform="translate(0,0)"/>
<path d="" fill="#D68E06" transform="translate(0,0)"/>
<path d="" fill="#D68E06" transform="translate(0,0)"/>
<path d="" fill="#D68E06" transform="translate(0,0)"/>
<path d="" fill="#D68E06" transform="translate(0,0)"/>
<path d="" fill="#D68E06" transform="translate(0,0)"/>
<path d="" fill="#D68E06" transform="translate(0,0)"/>
<path d="" fill="#D68E06" transform="translate(0,0)"/>
<path d="" fill="#D68E06" transform="translate(0,0)"/>
<path d="" fill="#D68E06" transform="translate(0,0)"/>
<path d="" fill="#D68E06" transform="translate(0,0)"/>
<path d="" fill="#D68E06" transform="translate(0,0)"/>
<path d="" fill="#D68E06" transform="translate(0,0)"/>
<path d="" fill="#D68E06" transform="translate(0,0)"/>
<path d="" fill="#D68E06" transform="translate(0,0)"/>
<path d="" fill="#D68E06" transform="translate(0,0)"/>
<path d="" fill="#D68E06" transform="translate(0,0)"/>
<path d="" fill="#D68E06" transform="translate(0,0)"/>
<path d="" fill="#D68E06" transform="translate(0,0)"/>
<path d="" fill="#D68E06" transform="translate(0,0)"/>
<path d="" fill="#D68E06" transform="translate(0,0)"/>
<path d="" fill="#D68E06" transform="translate(0,0)"/>
<path d="" fill="#D68E06" transform="translate(0,0)"/>
<path d="" fill="#D68E06" transform="translate(0,0)"/>
<path d="" fill="#D68E06" transform="translate(0,0)"/>
<path d="" fill="#D68E06" transform="translate(0,0)"/>
<path d="" fill="#D68E06" transform="translate(0,0)"/>
<path d="" fill="#D68E06" transform="translate(0,0)"/>
<path d="" fill="#D68E06" transform="translate(0,0)"/>
<path d="" fill="#D68E06" transform="translate(0,0)"/>
<path d="" fill="#D68E06" transform="translate(0,0)"/>
<path d="" fill="#D68E06" transform="translate(0,0)"/>
<path d="" fill="#D68E06" transform="translate(0,0)"/>
<path d="" fill="#D68E06" transform="translate(0,0)"/>
<path d="" fill="#BFB49D" transform="translate(0,0)"/>
<path d="" fill="#BFB49D" transform="translate(0,0)"/>
<path d="" fill="#D68E06" transform="translate(0,0)"/>
<path d="" fill="#BFB49D" transform="translate(0,0)"/>
<path d="" fill="#BFB49D" transform="translate(0,0)"/>
<path d="" fill="#FBFDFD" transform="translate(0,0)"/>
<path d="" fill="#D68E06" transform="translate(0,0)"/>
<path d="" fill="#D68E06" transform="translate(0,0)"/>
<path d="" fill="#D68E06" transform="translate(0,0)"/>
<path d="" fill="#D68E06" transform="translate(0,0)"/>
<path d="" fill="#D68E06" transform="translate(0,0)"/>
<path d="" fill="#BFB49D" transform="translate(0,0)"/>
<path d="" fill="#D68E06" transform="translate(0,0)"/>
<path d="" fill="#D68E06" transform="translate(0,0)"/>
<path d="" fill="#D68E06" transform="translate(0,0)"/>
<path d="" fill="#D68E06" transform="translate(0,0)"/>
<path d="" fill="#D68E06" transform="translate(0,0)"/>
<path d="" fill="#D68E06" transform="translate(0,0)"/>
<path d="" fill="#D68E06" transform="translate(0,0)"/>
<path d="" fill="#BFB49D" transform="translate(0,0)"/>
<path d="" fill="#D68E06" transform="translate(0,0)"/>
<path d="" fill="#BFB49D" transform="translate(0,0)"/>
<path d="" fill="#D68E06" transform="translate(0,0)"/>
<path d="" fill="#D68E06" transform="translate(0,0)"/>
<path d="" fill="#D68E06" transform="translate(0,0)"/>
<path d="" fill="#D68E06" transform="translate(0,0)"/>
<path d="" fill="#D68E06" transform="translate(0,0)"/>
<path d="" fill="#D68E06" transform="translate(0,0)"/>
<path d="" fill="#D68E06" transform="translate(0,0)"/>
<path d="" fill="#D68E06" transform="translate(0,0)"/>
<path d="" fill="#D68E06" transform="translate(0,0)"/>
<path d="" fill="#D68E06" transform="translate(0,0)"/>
<path d="" fill="#D68E06" transform="translate(0,0)"/>
<path d="" fill="#D68E06" transform="translate(0,0)"/>
<path d="" fill="#D68E06" transform="translate(0,0)"/>
<path d="" fill="#D68E06" transform="translate(0,0)"/>
<path d="" fill="#D68E06" transform="translate(0,0)"/>
<path d="" fill="#D68E06" transform="translate(0,0)"/>
<path d="" fill="#D68E06" transform="translate(0,0)"/>
<path d="" fill="#D68E06" transform="translate(0,0)"/>
<path d="" fill="#D68E06" transform="translate(0,0)"/>
<path d="" fill="#D68E06" transform="translate(0,0)"/>
<path d="" fill="#D68E06" transform="translate(0,0)"/>
<path d="" fill="#D68E06" transform="translate(0,0)"/>
<path d="" fill="#D68E06" transform="translate(0,0)"/>
<path d="" fill="#D68E06" transform="translate(0,0)"/>
<path d="" fill="#D68E06" transform="translate(0,0)"/>
<path d="" fill="#D68E06" transform="translate(0,0)"/>
<path d="" fill="#D68E06" transform="translate(0,0)"/>
<path d="" fill="#D68E06" transform="translate(0,0)"/>
<path d="" fill="#D68E06" transform="translate(0,0)"/>
<path d="" fill="#D68E06" transform="translate(0,0)"/>
<path d="" fill="#D68E06" transform="translate(0,0)"/>
<path d="" fill="#D68E06" transform="translate(0,0)"/>
<path d="" fill="#D68E06" transform="translate(0,0)"/>
<path d="" fill="#D68E06" transform="translate(0,0)"/>
<path d="" fill="#D68E06" transform="translate(0,0)"/>
<path d="" fill="#D68E06" transform="translate(0,0)"/>
<path d="" fill="#D68E06" transform="translate(0,0)"/>
<path d="" fill="#D68E06" transform="translate(0,0)"/>
<path d="" fill="#D68E06" transform="translate(0,0)"/>
<path d="" fill="#D68E06" transform="translate(0,0)"/>
<path d="" fill="#D68E06" transform="translate(0,0)"/>
<path d="" fill="#D68E06" transform="translate(0,0)"/>
<path d="" fill="#D68E06" transform="translate(0,0)"/>
<path d="" fill="#D68E06" transform="translate(0,0)"/>
<path d="" fill="#D68E06" transform="translate(0,0)"/>
<path d="" fill="#D68E06" transform="translate(0,0)"/>
<path d="" fill="#D68E06" transform="translate(0,0)"/>
<path d="" fill="#D68E06" transform="translate(0,0)"/>
<path d="" fill="#D68E06" transform="translate(0,0)"/>
<path d="" fill="#D68E06" transform="translate(0,0)"/>
<path d="" fill="#D68E06" transform="translate(0,0)"/>
<path d="" fill="#D68E06" transform="translate(0,0)"/>
<path d="" fill="#D68E06" transform="translate(0,0)"/>
<path d="" fill="#D68E06" transform="translate(0,0)"/>
<path d="" fill="#D68E06" transform="translate(0,0)"/>
<path d="" fill="#D68E06" transform="translate(0,0)"/>
<path d="" fill="#D68E06" transform="translate(0,0)"/>
<path d="" fill="#D68E06" transform="translate(0,0)"/>
<path d="" fill="#D68E06" transform="translate(0,0)"/>
<path d="" fill="#D68E06" transform="translate(0,0)"/>
<path d="" fill="#D68E06" transform="translate(0,0)"/>
<path d="" fill="#BFB49D" transform="translate(0,0)"/>
<path d="" fill="#685A50" transform="translate(0,0)"/>
<path d="" fill="#FBFDFD" transform="translate(0,0)"/>
<path d="" fill="#D68E06" transform="translate(0,0)"/>
<path d="" fill="#D68E06" transform="translate(0,0)"/>
<path d="" fill="#D68E06" transform="translate(0,0)"/>
<path d="" fill="#D68E06" transform="translate(0,0)"/>
<path d="" fill="#FBFDFD" transform="translate(0,0)"/>
<path d="" fill="#BFB49D" transform="translate(0,0)"/>
<path d="" fill="#FBFDFD" transform="translate(0,0)"/>
<path d="" fill="#FBFDFD" transform="translate(0,0)"/>
<path d="" fill="#FBFDFD" transform="translate(0,0)"/>
<path d="" fill="#D68E06" transform="translate(0,0)"/>
<path d="" fill="#D68E06" transform="translate(0,0)"/>
<path d="" fill="#D68E06" transform="translate(0,0)"/>
<path d="" fill="#D68E06" transform="translate(0,0)"/>
<path d="" fill="#D68E06" transform="translate(0,0)"/>
<path d="" fill="#FBFDFD" transform="translate(0,0)"/>
<path d="" fill="#D68E06" transform="translate(0,0)"/>
<path d="" fill="#D68E06" transform="translate(0,0)"/>
<path d="" fill="#D68E06" transform="translate(0,0)"/>
<path d="" fill="#D68E06" transform="translate(0,0)"/>
<path d="" fill="#D68E06" transform="translate(0,0)"/>
<path d="" fill="#D68E06" transform="translate(0,0)"/>
<path d="" fill="#D68E06" transform="translate(0,0)"/>
<path d="" fill="#D68E06" transform="translate(0,0)"/>
<path d="" fill="#D68E06" transform="translate(0,0)"/>
<path d="" fill="#D68E06" transform="translate(0,0)"/>
<path d="" fill="#D68E06" transform="translate(0,0)"/>
<path d="" fill="#D68E06" transform="translate(0,0)"/>
<path d="" fill="#D68E06" transform="translate(0,0)"/>
<path d="" fill="#D68E06" transform="translate(0,0)"/>
<path d="" fill="#D68E06" transform="translate(0,0)"/>
<path d="" fill="#D68E06" transform="translate(0,0)"/>
<path d="" fill="#D68E06" transform="translate(0,0)"/>
<path d="" fill="#D68E06" transform="translate(0,0)"/>
<path d="" fill="#D68E06" transform="translate(0,0)"/>
<path d="" fill="#D68E06" transform="translate(0,0)"/>
<path d="" fill="#FBFDFD" transform="translate(0,0)"/>
<path d="" fill="#D68E06" transform="translate(0,0)"/>
<path d="" fill="#685A50" transform="translate(0,0)"/>
<path d="" fill="#D68E06" transform="translate(0,0)"/>
<path d="" fill="#FBFDFD" transform="translate(0,0)"/>
<path d="" fill="#BFB49D" transform="translate(0,0)"/>
</svg>
